<svg width="202" height="202" viewBox="0 0 202 202" fill="none" xmlns="http://www.w3.org/2000/svg">
<g id="Group 15">
<circle id="Oval Copy 3" opacity="0.202683" cx="101" cy="101" r="101" transform="matrix(-1 0 0 1 202 0)" fill="url(#paint0_linear_7517_1454)"/>
<g id="sydney__flatline 2">
<g id="sydney__flatline">
<path id="Path" d="M163.348 100.867H177.884C177.884 100.867 187.422 120.537 189.3 128.965H163.348V100.867Z" fill="#E7816B"/>
<path id="Shape" fill-rule="evenodd" clip-rule="evenodd" d="M163.346 129.232H189.299C189.38 129.233 189.458 129.196 189.509 129.133C189.558 129.069 189.577 128.986 189.561 128.907C187.695 120.513 178.221 100.948 178.122 100.751C178.08 100.657 177.986 100.598 177.883 100.6H163.346C163.198 100.6 163.078 100.719 163.078 100.867V128.965C163.078 129.112 163.198 129.232 163.346 129.232ZM188.966 128.703H163.632L163.615 101.129H177.714C178.589 102.948 187.041 120.624 188.966 128.703Z" fill="#231F20"/>
<path id="Path_2" d="M164.321 122.478L175.666 127.495C175.666 127.495 165.691 84.4821 146.208 65.0684C146.208 65.0684 139.401 70.2996 134.489 83.8718C133.241 87.3186 134.302 85.1505 134.221 85.7318L132.896 95.1074L164.321 122.478Z" fill="#E7816B"/>
<path id="Shape_2" fill-rule="evenodd" clip-rule="evenodd" d="M175.563 127.761C175.598 127.766 175.633 127.766 175.668 127.761C175.732 127.76 175.793 127.737 175.843 127.697C175.919 127.633 175.953 127.532 175.93 127.435C175.831 127.005 165.71 84.1495 146.396 64.8811C146.296 64.7923 146.146 64.7923 146.046 64.8811C145.976 64.9334 139.122 70.3157 134.239 83.8007C133.464 85.9501 133.533 85.992 133.755 86.1255L133.755 86.1257C133.798 86.1515 133.846 86.1674 133.895 86.1722L132.612 95.0596C132.599 95.1498 132.635 95.24 132.705 95.2979L164.129 122.698C164.147 122.717 164.169 122.731 164.194 122.739L175.563 127.761ZM175.3 127.034L164.468 122.25L133.178 94.9433L134.502 85.7421C134.546 85.5933 134.481 85.4338 134.344 85.3585H134.274C134.305 85.2719 134.344 85.1568 134.392 85.0135C134.479 84.7526 134.597 84.3982 134.759 83.9519C139.139 71.8154 145.101 66.3632 146.209 65.4216C164.153 83.5101 174.087 122.093 175.3 127.034Z" fill="#231F20"/>
<path id="Path_3" d="M134.776 91.566C134.776 91.566 137.885 76.9068 146.344 68.7461C146.344 68.7461 159.375 79.7898 171.975 124.011L131.014 121.739C131.014 121.739 131.819 99.2617 134.776 91.566Z" fill="#231F20"/>
<path id="Shape_3" fill-rule="evenodd" clip-rule="evenodd" d="M131.013 122.031L171.974 124.303C172.07 124.329 172.172 124.302 172.243 124.233C172.303 124.16 172.322 124.062 172.295 123.972C159.812 80.1456 146.704 68.6718 146.57 68.5613C146.46 68.4587 146.289 68.4587 146.179 68.5613C137.884 76.5419 134.659 90.8406 134.513 91.5033C131.598 99.1019 130.784 120.524 130.739 121.707L130.739 121.728C130.732 121.887 130.854 122.021 131.013 122.031ZM171.584 123.705L131.334 121.467C131.421 118.834 132.325 98.7689 135.061 91.6718V91.6253C135.09 91.48 138.182 77.1929 146.349 69.1484C147.119 69.8808 150.129 72.9498 154.212 79.9887C158.581 87.4868 165.126 101.146 171.584 123.705Z" fill="#231F20"/>
<path id="Path_4" d="M120.992 104.215C120.992 104.215 127.852 89.9449 136.369 81.6621C136.369 81.6621 147.12 90.067 154.12 99.0647C161.12 108.062 167.536 124.012 167.536 124.012H121.616L120.992 104.215Z" fill="white"/>
<path id="Shape_4" fill-rule="evenodd" clip-rule="evenodd" d="M121.616 124.303H167.542L167.512 124.28C167.609 124.28 167.7 124.233 167.754 124.154C167.809 124.075 167.821 123.974 167.787 123.884C167.74 123.745 161.265 107.795 154.323 98.8906C147.603 90.2695 137.306 82.0788 136.562 81.4867C136.537 81.4672 136.523 81.4559 136.52 81.4531C136.41 81.3568 136.245 81.3568 136.135 81.4531C127.851 89.5302 121.019 103.437 120.71 104.066C120.705 104.077 120.701 104.085 120.7 104.087C120.691 104.131 120.691 104.177 120.7 104.221L121.324 124.024C121.33 124.18 121.459 124.303 121.616 124.303ZM167.11 123.722H121.896L121.289 104.279C121.299 104.259 121.311 104.235 121.326 104.206C122.061 102.737 128.536 89.7938 136.392 82.046C137.897 83.2492 147.516 91.0496 153.892 99.2452C160.11 107.272 166.054 121.193 167.11 123.722Z" fill="#231F20"/>
<path id="Path_5" d="M136.252 84.5039C136.252 84.5039 126.977 93.2227 123.576 105.15C123.576 105.15 163.365 119.152 163.01 118.803C162.654 118.455 157.1 105.894 150.76 98.5411C141.794 88.1309 136.252 84.5039 136.252 84.5039Z" fill="#231F20"/>
<path id="Shape_5" fill-rule="evenodd" clip-rule="evenodd" d="M143.153 112.323C159.661 118.083 162.496 119.054 163.08 119.054C163.202 119.054 163.231 119.013 163.255 118.961C163.331 118.853 163.318 118.706 163.225 118.612C163.15 118.513 162.817 117.845 162.432 117.066L162.414 117.03C160.491 113.168 156.029 104.208 150.993 98.3498C142.091 88.0035 136.468 84.3009 136.41 84.2661C136.297 84.1908 136.147 84.2028 136.048 84.2951C135.955 84.3823 126.68 93.1999 123.296 105.069C123.25 105.217 123.33 105.374 123.477 105.424C123.477 105.424 133.306 108.882 143.153 112.323ZM162.432 118.356C158.39 117.083 136.182 109.306 123.932 104.988C127.076 94.2636 135.027 86.1203 136.293 84.8996C137.343 85.632 142.64 89.5322 150.567 98.745C155.559 104.542 159.999 113.473 161.909 117.315L161.925 117.345L162.432 118.356Z" fill="#231F20"/>
<path id="Path_6" d="M126.742 92.002C126.742 92.002 145.491 94.8559 156.667 107.62C162.372 114.142 167.541 124.011 167.541 124.011H144.68L126.742 92.002Z" fill="#E7816B"/>
<path id="Shape_6" fill-rule="evenodd" clip-rule="evenodd" d="M144.681 124.279H167.542C167.638 124.279 167.726 124.225 167.769 124.14C167.816 124.059 167.816 123.959 167.769 123.878L167.766 123.872C167.607 123.571 162.459 113.835 156.855 107.435C145.748 94.7575 126.959 91.7408 126.773 91.7408C126.671 91.7272 126.571 91.7695 126.51 91.8512C126.46 91.9397 126.46 92.0476 126.51 92.136L144.448 124.145C144.496 124.229 144.585 124.28 144.681 124.279ZM167.098 123.75H144.838L127.251 92.3627C130.413 92.9556 146.548 96.4664 156.464 107.795C161.452 113.491 166.078 121.861 167.098 123.75Z" fill="#231F20"/>
<path id="Path_7" d="M116.594 105.167C120.677 99.1571 123.01 95.35 126.744 92.002C133.714 96.1257 140.131 101.114 145.842 106.847C150.845 111.931 155.079 117.713 158.413 124.011H107.377C107.377 124.011 112.814 110.712 116.594 105.167Z" fill="white"/>
<path id="Shape_7" fill-rule="evenodd" clip-rule="evenodd" d="M107.377 124.302H158.412C158.51 124.302 158.601 124.251 158.652 124.168C158.698 124.079 158.698 123.973 158.652 123.883C155.293 117.562 151.04 111.754 146.022 106.638C140.288 100.893 133.85 95.8913 126.86 91.7519C126.754 91.689 126.618 91.7032 126.527 91.7867C123.313 94.6407 121.126 97.8899 118.104 102.383C117.567 103.208 116.984 104.08 116.354 105.004C112.597 110.509 107.161 123.773 107.108 123.907C107.07 123.995 107.081 124.096 107.137 124.174C107.19 124.254 107.28 124.302 107.377 124.302ZM157.934 123.721H107.814C108.753 121.465 113.478 110.247 116.838 105.33L118.617 102.708C121.563 98.32 123.71 95.1347 126.784 92.3622C133.652 96.465 139.985 101.398 145.637 107.05C150.492 112.012 154.63 117.623 157.934 123.721Z" fill="#231F20"/>
<path id="Path_8" d="M109.236 124.013C109.236 124.013 113.197 114.271 118.12 106.517C123.131 98.6297 127.005 94.8574 127.005 94.8574C127.005 94.8574 132.879 97.6358 142.585 107.139C149.218 113.632 155.378 123.995 155.378 123.995L109.236 124.013Z" fill="#231F20"/>
<path id="Shape_8" fill-rule="evenodd" clip-rule="evenodd" d="M109.237 124.302H155.379C155.489 124.311 155.594 124.254 155.647 124.157C155.699 124.067 155.699 123.956 155.647 123.866C155.644 123.861 155.623 123.827 155.584 123.764C154.916 122.666 149.042 113.024 142.814 106.928C133.189 97.5004 127.215 94.5941 127.157 94.5941C127.046 94.5431 126.915 94.5637 126.825 94.6464C126.823 94.6481 126.815 94.6564 126.8 94.6713C126.462 95.0139 122.663 98.8602 117.9 106.359C113.017 114.025 109.027 123.808 108.992 123.907C108.945 123.99 108.945 124.091 108.992 124.174C109.048 124.254 109.139 124.302 109.237 124.302ZM154.86 123.721H109.675C110.474 121.843 114.073 113.432 118.366 106.673C122.759 99.7556 126.311 95.9775 127.064 95.2103C128.131 95.7683 133.772 98.9128 142.382 107.347C148.14 112.979 153.611 121.68 154.86 123.721Z" fill="#231F20"/>
<path id="Path_9" d="M127.833 127.493H68.2221C68.2221 127.493 65.3813 101.918 66.7871 85.0617C68.1929 68.2055 76.9371 55.6621 76.9371 55.6621C76.9371 55.6621 99.0454 61.0794 112.34 82.3531C125.634 103.627 127.833 127.493 127.833 127.493Z" fill="white"/>
<path id="Shape_9" fill-rule="evenodd" clip-rule="evenodd" d="M68.2233 127.784H127.834C127.922 127.793 128.009 127.758 128.067 127.691C128.124 127.632 128.152 127.552 128.143 127.471L128.143 127.469C128.112 127.153 125.777 103.267 112.592 82.1737C99.385 61.0453 77.23 55.4072 77.0083 55.3549C76.8907 55.3204 76.7645 55.3679 76.6991 55.4711C76.6116 55.5816 67.885 68.3109 66.4966 85.0102C65.2246 100.311 67.4932 123.054 67.8821 126.952C67.9176 127.308 67.9375 127.507 67.9375 127.529C67.9525 127.675 68.0762 127.785 68.2233 127.784ZM127.531 127.203H68.4858C68.1941 124.471 65.7675 100.803 67.0916 85.0335C68.3983 69.5199 76.0575 57.5171 77.0841 55.971C79.2833 56.5755 99.6825 62.6147 112.096 82.4818C124.387 102.145 127.204 124.297 127.531 127.203Z" fill="#231F20"/>
<path id="Path_10" d="M127.833 127.495H109.75C109.75 127.495 107.545 104.413 98.6667 83.9358C89.7884 63.4584 76.9551 55.6348 76.9551 55.6348C76.9551 55.6348 99.0634 61.052 112.358 82.3258C125.652 103.6 127.833 127.495 127.833 127.495Z" fill="#E7816B"/>
<path id="Shape_10" fill-rule="evenodd" clip-rule="evenodd" d="M109.751 127.76H127.834H127.922C127.997 127.761 128.069 127.729 128.12 127.674C128.171 127.619 128.197 127.545 128.19 127.47L128.19 127.468C128.156 127.119 125.826 103.258 112.639 82.1846C99.4202 61.062 77.2768 55.4297 77.0552 55.3774C76.9272 55.3447 76.7947 55.4119 76.746 55.5343C76.6977 55.6538 76.7419 55.7907 76.851 55.8598C76.8533 55.8615 76.862 55.8671 76.8767 55.8766C77.522 56.2945 89.8796 64.2968 98.4343 84.0446C107.184 104.243 109.489 127.29 109.489 127.522C109.503 127.656 109.616 127.758 109.751 127.76ZM127.543 127.231H109.961C109.699 124.715 107.196 102.999 98.8777 83.8412C91.7668 67.4092 81.9668 59.016 78.4143 56.3655C83.676 58.0627 101.048 64.7936 112.096 82.4752C124.434 102.197 127.234 124.441 127.543 127.231Z" fill="#231F20"/>
<path id="Path_11" d="M107.375 127.494C107.375 127.494 103.607 103.012 98.6662 89.8757C91.4096 70.6944 77.6662 59.6855 77.6662 59.6855C77.6662 59.6855 71.8329 70.6944 70.5204 79.7735C69.6687 85.772 68.9687 115.584 70.5787 127.227L107.375 127.494Z" fill="#231F20"/>
<path id="Shape_11" fill-rule="evenodd" clip-rule="evenodd" d="M70.5787 127.517L107.375 127.784C107.462 127.788 107.546 127.751 107.603 127.685C107.661 127.62 107.686 127.533 107.673 127.447C107.671 127.435 107.66 127.367 107.64 127.245C107.256 124.861 103.596 102.154 98.9229 89.788C91.7187 70.7404 77.9754 59.5862 77.8354 59.4758C77.7698 59.419 77.6807 59.3973 77.5962 59.4177C77.5115 59.4338 77.4386 59.4872 77.3979 59.563C77.3396 59.6502 71.5179 70.6939 70.2287 79.7323C69.4062 85.5507 68.6771 115.607 70.2929 127.267C70.3131 127.409 70.4345 127.515 70.5787 127.517ZM107.037 127.203L70.8354 126.936C69.2721 115.148 69.9896 85.5739 70.8121 79.8253C71.9554 71.7402 76.7854 62.0333 77.7479 60.1675C86.8938 68.3481 93.9627 78.5729 98.3746 90.003C102.954 102.099 106.559 124.204 107.037 127.203Z" fill="#231F20"/>
<path id="Path_12" d="M62.5003 75.7051C62.5003 75.7051 74.7095 77.815 88.6278 87.4928C112.282 103.942 120.501 127.494 120.501 127.494H58.627C58.627 127.494 60.7503 82.529 62.5003 75.7051Z" fill="#E7816B"/>
<path id="Shape_12" fill-rule="evenodd" clip-rule="evenodd" d="M58.6276 127.761H120.519V127.715C120.606 127.713 120.686 127.671 120.737 127.601C120.787 127.532 120.802 127.442 120.776 127.36C120.774 127.356 120.769 127.342 120.76 127.319C120.342 126.197 111.786 103.235 88.8035 87.2539C74.9785 77.6459 62.676 75.4197 62.5535 75.4197C62.4148 75.3969 62.2813 75.4822 62.2443 75.6173C60.5118 82.3889 58.4293 125.622 58.3418 127.459C58.3413 127.532 58.3683 127.603 58.4176 127.657C58.4684 127.721 58.5454 127.76 58.6276 127.761ZM120.158 127.227H58.9076C59.0885 123.466 61.0835 83.1852 62.7401 76.0068C64.531 76.3671 75.8768 78.913 88.5176 87.7015C110.241 102.814 118.991 124.227 120.158 127.227Z" fill="#231F20"/>
<path id="Path_13" d="M101.065 127.494C101.065 127.494 99.4545 114.649 88.5753 100.327C77.6962 86.0048 62.5003 75.7051 62.5003 75.7051C62.5003 75.7051 55.9845 84.8075 53.5637 95.6478C51.1428 106.488 52.9803 127.494 52.9803 127.494H101.065Z" fill="white"/>
<path id="Shape_13" fill-rule="evenodd" clip-rule="evenodd" d="M52.9862 127.784H101.065C101.137 127.78 101.206 127.749 101.257 127.697C101.311 127.634 101.336 127.552 101.327 127.47C101.31 127.33 99.5595 114.339 88.7795 100.151C78.0778 86.0658 63.0298 75.7212 62.6635 75.4694C62.6609 75.4675 62.659 75.4662 62.6579 75.4655C62.527 75.3756 62.348 75.4066 62.2554 75.5352C62.2544 75.5366 62.252 75.54 62.2483 75.5453C61.9979 75.9016 55.6168 84.9833 53.2779 95.5825C51.0593 105.636 52.4776 124.602 52.6731 127.216C52.6868 127.4 52.6945 127.503 52.6945 127.516C52.7093 127.666 52.8349 127.782 52.9862 127.784ZM100.703 127.203H53.2545C53.0562 124.75 51.6387 105.725 53.8204 95.693C56.0137 85.9745 61.5495 77.5928 62.5704 76.0932C64.5479 77.4882 78.3379 87.3578 88.3187 100.506C98.072 113.334 100.359 125.116 100.703 127.203Z" fill="#231F20"/>
<path id="Path_14" d="M98.264 125.756C98.264 125.756 95.0498 112.597 82.059 97.1005C76.5477 90.5542 70.2243 84.732 63.2406 79.7734C63.2406 79.7734 57.2148 87.6842 55.704 97.7224C54.4673 105.959 54.199 120.723 54.1406 125.756H98.264Z" fill="#231F20"/>
<path id="Shape_14" fill-rule="evenodd" clip-rule="evenodd" d="M54.1413 126.046H98.2646C98.3495 126.043 98.4286 126.003 98.4805 125.936C98.5375 125.866 98.557 125.773 98.533 125.686C98.5038 125.552 95.1555 112.282 82.2696 96.9139C76.7332 90.3537 70.3913 84.5129 63.393 79.5287C63.2666 79.4421 63.0941 79.4703 63.0021 79.5926C62.9496 79.6566 56.9238 87.6836 55.4188 97.6753C54.1996 105.79 53.9138 120.013 53.8496 125.75C53.8485 125.829 53.8802 125.904 53.9371 125.959C53.9913 126.013 54.0645 126.044 54.1413 126.046ZM97.8796 125.465H54.4388C54.5088 119.559 54.8005 105.702 55.9963 97.7625C57.338 88.8461 62.3371 81.5282 63.3113 80.1681C70.1673 85.0962 76.3895 90.8452 81.838 97.2859C93.4463 111.137 97.2555 123.25 97.8796 125.465Z" fill="#231F20"/>
<path id="Path_15" d="M94.7522 127.494C94.1689 125.209 91.7364 117.345 84.2522 106.017C75.2864 92.4676 62.9956 88.4512 62.9956 88.4512H38.8164V89.3579L55.3364 127.494H94.7522Z" fill="#E7816B"/>
<path id="Shape_15" fill-rule="evenodd" clip-rule="evenodd" d="M55.3376 127.761H94.7534C94.8491 127.765 94.9397 127.719 94.9926 127.639C95.0444 127.576 95.0619 127.491 95.0392 127.412C94.4734 125.233 92.0409 117.258 84.4984 105.854C75.5851 92.3804 63.2301 88.2245 63.1076 88.1838C63.0787 88.1783 63.049 88.1783 63.0201 88.1838H38.8467C38.7008 88.187 38.5842 88.3058 38.5842 88.4512V89.3579C38.5787 89.3926 38.5787 89.4279 38.5842 89.4626L55.0926 127.598C55.1332 127.697 55.2302 127.762 55.3376 127.761ZM94.3917 127.226H55.5009L39.0859 89.3056V88.7244H62.9384C63.7084 88.9859 75.4567 93.2291 84.0084 106.162C91.1659 116.979 93.6917 124.675 94.3917 127.226Z" fill="#231F20"/>
<path id="Path_16" d="M82.0589 127.494C78.7922 121.844 63.6664 97.6407 38.8164 88.4512C38.8164 88.4512 31.0464 105.023 33.2572 127.494H82.0589Z" fill="white"/>
<path id="Shape_16" fill-rule="evenodd" clip-rule="evenodd" d="M33.2586 127.785H82.0603C82.1638 127.784 82.2593 127.729 82.3111 127.64C82.3632 127.55 82.3632 127.439 82.3111 127.349C79.4761 122.472 64.0586 97.4787 38.9228 88.1787C38.7795 88.1252 38.619 88.1912 38.5553 88.3298C38.5547 88.3312 38.5536 88.3335 38.552 88.337C38.3575 88.7649 30.791 105.41 32.9669 127.524C32.9845 127.671 33.1093 127.783 33.2586 127.785ZM81.5528 127.204H33.5269C31.5844 106.668 38.0419 90.9513 38.9694 88.8413C63.1078 97.8798 78.1694 121.461 81.5528 127.204Z" fill="#231F20"/>
<path id="Path_17" d="M79.0849 127.494C77.5857 124.693 72.0849 116.782 65.5924 109.574C53.3949 96.0776 39.8149 91.6543 39.8149 91.6543C33.509 108.987 35.7782 122.182 35.9007 127.494H79.0849Z" fill="#231F20"/>
<path id="Shape_17" fill-rule="evenodd" clip-rule="evenodd" d="M35.918 127.785H79.0846V127.796C79.1878 127.797 79.2834 127.743 79.3361 127.654C79.3889 127.566 79.3908 127.456 79.3413 127.366C77.9646 124.797 72.5746 116.88 65.808 109.394C53.698 95.9787 40.0421 91.4217 39.9021 91.3752C39.7529 91.3318 39.5952 91.4104 39.5405 91.5554C34.1971 106.284 35.0138 118.124 35.4571 124.518C35.4725 124.737 35.4881 124.951 35.5033 125.159C35.5687 126.054 35.6263 126.844 35.6263 127.5C35.6263 127.576 35.6572 127.65 35.7121 127.703C35.7669 127.757 35.8412 127.786 35.918 127.785ZM78.5888 127.203H36.1805C36.1588 126.492 36.1021 125.65 36.0381 124.702C36.0331 124.628 36.0281 124.553 36.023 124.477C35.5855 118.182 34.7805 106.511 39.9896 92.0262C41.9496 92.7295 54.293 97.519 65.3763 109.766C71.7696 116.846 76.9146 124.297 78.5888 127.203Z" fill="#231F20"/>
<path id="Path_18" d="M181.658 127.494L178.864 121.867H88.3776L85.6009 127.494H28.5801V147.367H191.178V127.494H181.658V127.494Z" fill="white"/>
<path id="Shape_18" fill-rule="evenodd" clip-rule="evenodd" d="M28.5788 147.657H191.177C191.336 147.654 191.463 147.525 191.463 147.366V127.493C191.463 127.333 191.332 127.203 191.171 127.203H181.838L179.125 121.739C179.075 121.64 178.974 121.577 178.863 121.576H88.3763C88.2647 121.576 88.1628 121.639 88.1138 121.739L85.4188 127.203H28.5788C28.4177 127.203 28.2871 127.333 28.2871 127.493V147.366C28.2871 147.527 28.4177 147.657 28.5788 147.657ZM190.885 147.076H28.8704V127.784H85.5996C85.7108 127.783 85.812 127.72 85.8621 127.621L88.5571 122.157H178.682L181.395 127.621C181.445 127.72 181.546 127.783 181.657 127.784H190.885V147.076Z" fill="#231F20"/>
<rect id="Rectangle" x="68.2227" y="127.494" width="32.8417" height="19.8671" fill="#D1D3D4"/>
<path id="Shape_19" fill-rule="evenodd" clip-rule="evenodd" d="M68.2233 147.657H101.065C101.226 147.657 101.357 147.527 101.357 147.367V127.494C101.357 127.333 101.226 127.203 101.065 127.203H68.2233C68.0635 127.206 67.9347 127.335 67.9316 127.494V147.367C67.9316 147.527 68.0622 147.657 68.2233 147.657ZM100.773 147.076H68.515V127.784H100.773V147.076Z" fill="#231F20"/>
<path id="Path_19" d="M152.502 128.965L174.19 147.367H152.502V128.965V128.965Z" fill="#D1D3D4"/>
<path id="Shape_20" fill-rule="evenodd" clip-rule="evenodd" d="M152.503 147.658H174.191C174.313 147.657 174.421 147.581 174.462 147.467C174.504 147.353 174.47 147.225 174.378 147.147L152.689 128.744C152.602 128.674 152.483 128.658 152.38 128.704C152.277 128.75 152.21 128.852 152.211 128.965V147.367C152.211 147.528 152.342 147.658 152.503 147.658ZM173.398 147.077H152.794V129.599L173.398 147.077Z" fill="#231F20"/>
<rect id="Rectangle_2" x="23.8828" y="131.104" width="44.3392" height="1.9995" fill="white"/>
<path id="Shape_21" fill-rule="evenodd" clip-rule="evenodd" d="M23.8893 133.393H68.2227C68.3 133.393 68.3742 133.363 68.4289 133.308C68.4836 133.254 68.5143 133.18 68.5143 133.103V131.103C68.5143 130.943 68.3837 130.812 68.2227 130.812H23.8893C23.7282 130.812 23.5977 130.943 23.5977 131.103V133.103C23.6008 133.262 23.7295 133.39 23.8893 133.393ZM67.9252 132.812H24.1752V131.394H67.9252V132.812Z" fill="#231F20"/>
<rect id="Rectangle_3" x="19.6016" y="136.178" width="48.6267" height="3.52238" fill="white"/>
<path id="Shape_22" fill-rule="evenodd" clip-rule="evenodd" d="M19.6022 139.985H68.223C68.3841 139.985 68.5147 139.854 68.5147 139.694V136.177C68.5147 136.017 68.3841 135.887 68.223 135.887H19.6022C19.4411 135.887 19.3105 136.017 19.3105 136.177V139.694C19.3105 139.854 19.4411 139.985 19.6022 139.985ZM67.9314 139.403H19.8939L19.9172 136.468H67.9314V139.403Z" fill="#231F20"/>
<rect id="Rectangle_4" x="19.6016" y="138.275" width="48.6267" height="4.38844" fill="#E7816B"/>
<path id="Shape_23" fill-rule="evenodd" clip-rule="evenodd" d="M19.6023 142.925H68.2232C68.2938 142.927 68.362 142.9 68.4125 142.851C68.463 142.801 68.4915 142.734 68.4915 142.664V138.275C68.4915 138.128 68.3713 138.008 68.2232 138.008H19.6023C19.4541 138.008 19.334 138.128 19.334 138.275V142.664C19.334 142.734 19.3624 142.801 19.4129 142.851C19.4634 142.9 19.5317 142.927 19.6023 142.925ZM67.9607 142.396H19.8648V138.543H67.9607V142.396Z" fill="#231F20"/>
<rect id="Rectangle_5" x="23.8828" y="133.104" width="44.3392" height="3.07481" fill="#E7816B"/>
<path id="Shape_24" fill-rule="evenodd" clip-rule="evenodd" d="M23.8895 136.44H68.2229C68.2935 136.441 68.3618 136.414 68.4123 136.365C68.4627 136.316 68.4912 136.249 68.4912 136.178V133.103C68.4928 133.032 68.465 132.963 68.4144 132.913C68.3637 132.862 68.2945 132.834 68.2229 132.836H23.8895C23.8189 132.836 23.7512 132.864 23.7018 132.915C23.6524 132.965 23.6254 133.033 23.627 133.103V136.178C23.627 136.323 23.7445 136.44 23.8895 136.44ZM67.9604 135.911H24.152V133.365H67.9604V135.911Z" fill="#231F20"/>
<rect id="Rectangle_6" x="28.5801" y="129.307" width="39.6492" height="1.79606" fill="#E7816B"/>
<path id="Shape_25" fill-rule="evenodd" clip-rule="evenodd" d="M28.5554 131.37H68.2221C68.3703 131.37 68.4904 131.25 68.4904 131.102V129.306C68.4904 129.236 68.4622 129.168 68.4118 129.117C68.3615 129.067 68.2933 129.039 68.2221 129.039H28.5554C28.4843 129.039 28.416 129.067 28.3657 129.117C28.3154 129.168 28.2871 129.236 28.2871 129.306V131.102C28.2871 131.25 28.4072 131.37 28.5554 131.37ZM67.9596 130.835H28.8413V129.574H67.9596V130.835Z" fill="#231F20"/>
<path id="Path_20" d="M85.5996 127.494H111.36L113.74 121.867H88.3763L85.5996 127.494V127.494Z" fill="#D1D3D4"/>
<path id="Shape_26" fill-rule="evenodd" clip-rule="evenodd" d="M85.6008 127.784H111.361C111.474 127.779 111.574 127.708 111.618 127.604L113.998 121.983C114.044 121.898 114.044 121.795 113.998 121.71C113.944 121.627 113.852 121.576 113.753 121.576H88.3892C88.2776 121.576 88.1758 121.639 88.1267 121.739L85.35 127.365C85.3 127.452 85.3 127.558 85.35 127.644C85.4048 127.73 85.499 127.782 85.6008 127.784ZM111.151 127.203H86.0675L88.5583 122.157H113.286L111.151 127.203Z" fill="#231F20"/>
<rect id="Rectangle_7" x="119.305" y="124.885" width="38.4825" height="1.73794" fill="#E7816B"/>
<rect id="Rectangle_8" x="169.998" y="133.586" width="16.1875" height="1.27294" fill="#E7816B"/>
<rect id="Rectangle_9" x="10.8223" y="141.061" width="57.4058" height="6.30656" fill="white"/>
<path id="Shape_27" fill-rule="evenodd" clip-rule="evenodd" d="M10.8229 147.657H68.2229C68.384 147.657 68.5146 147.527 68.5146 147.367V141.06C68.5146 140.9 68.384 140.77 68.2229 140.77H10.8229C10.6618 140.77 10.5312 140.9 10.5312 141.06V147.367C10.5312 147.527 10.6618 147.657 10.8229 147.657ZM67.9312 147.076H11.1146V141.351H67.9312V147.076Z" fill="#231F20"/>
<path id="Path_21" d="M181.658 129.231H152.491C152.387 129.246 152.284 129.2 152.226 129.111C152.169 129.023 152.169 128.91 152.226 128.821C152.284 128.733 152.387 128.687 152.491 128.702H181.658C181.762 128.687 181.866 128.733 181.923 128.821C181.98 128.91 181.98 129.023 181.923 129.111C181.866 129.2 181.762 129.246 181.658 129.231V129.231Z" fill="#231F20"/>
</g>
</g>
</g>
<defs>
<linearGradient id="paint0_linear_7517_1454" x1="0" y1="202" x2="202" y2="202" gradientUnits="userSpaceOnUse">
<stop stop-color="#5D0202" stop-opacity="0.01"/>
<stop offset="1" stop-color="#5D0202" stop-opacity="0.497569"/>
</linearGradient>
</defs>
</svg>
