<svg width="202" height="202" viewBox="0 0 202 202" fill="none" xmlns="http://www.w3.org/2000/svg">
<g id="Group 10">
<circle id="Oval Copy 3" opacity="0.202683" cx="101" cy="101" r="101" transform="matrix(0 -1 -1 0 202 202)" fill="url(#paint0_linear_7517_944)"/>
<g id="toronto_flatline 2">
<g id="toronto_flatline">
<rect id="Rectangle" x="126.428" y="172.025" width="47.2303" height="65.0554" transform="rotate(-180 126.428 172.025)" fill="white"/>
<path id="Shape" fill-rule="evenodd" clip-rule="evenodd" d="M79.211 172.36H126.435C126.523 172.361 126.608 172.327 126.67 172.264C126.732 172.2 126.765 172.114 126.762 172.026V106.951C126.762 106.774 126.618 106.631 126.441 106.631H79.211C79.0341 106.631 78.8906 106.774 78.8906 106.951V172.039C78.8906 172.216 79.0341 172.36 79.211 172.36ZM126.114 171.718H79.5251V107.291H126.114V171.718Z" fill="#231F20"/>
<path id="Path" d="M124.339 114.594H81.2931C81.1161 114.594 80.9727 114.451 80.9727 114.274C80.9761 114.098 81.1175 113.957 81.2931 113.953H124.339C124.516 113.953 124.659 114.097 124.659 114.274C124.659 114.359 124.625 114.44 124.565 114.5C124.505 114.561 124.424 114.594 124.339 114.594V114.594Z" fill="#D1D3D4"/>
<path id="Path_2" d="M124.339 121.7H81.2931C81.1175 121.696 80.9761 121.555 80.9727 121.379C80.9727 121.202 81.1161 121.059 81.2931 121.059H124.339C124.516 121.059 124.659 121.202 124.659 121.379C124.659 121.464 124.625 121.546 124.565 121.606C124.505 121.666 124.424 121.7 124.339 121.7Z" fill="#D1D3D4"/>
<path id="Path_3" d="M124.339 128.798H81.2931C81.1175 128.794 80.9761 128.653 80.9727 128.477C80.9727 128.3 81.1161 128.156 81.2931 128.156H124.339C124.516 128.156 124.659 128.3 124.659 128.477C124.659 128.562 124.625 128.643 124.565 128.704C124.505 128.764 124.424 128.798 124.339 128.798Z" fill="#D1D3D4"/>
<path id="Path_4" d="M124.339 135.897H81.2931C81.1161 135.897 80.9727 135.754 80.9727 135.576C80.9727 135.399 81.1161 135.256 81.2931 135.256H124.339C124.516 135.256 124.659 135.399 124.659 135.576C124.659 135.754 124.516 135.897 124.339 135.897V135.897Z" fill="#D1D3D4"/>
<path id="Path_5" d="M124.339 142.995H81.2931C81.1161 142.995 80.9727 142.851 80.9727 142.674C80.9761 142.498 81.1175 142.357 81.2931 142.354H124.339C124.516 142.354 124.659 142.497 124.659 142.674C124.659 142.759 124.625 142.841 124.565 142.901C124.505 142.961 124.424 142.995 124.339 142.995Z" fill="#D1D3D4"/>
<path id="Path_6" d="M124.339 150.1H81.2931C81.1175 150.097 80.9761 149.955 80.9727 149.78C80.9727 149.603 81.1161 149.459 81.2931 149.459H124.339C124.516 149.459 124.659 149.603 124.659 149.78C124.659 149.865 124.625 149.946 124.565 150.006C124.505 150.066 124.424 150.1 124.339 150.1Z" fill="#D1D3D4"/>
<path id="Path_7" d="M124.339 157.2H81.2931C81.1175 157.196 80.9761 157.055 80.9727 156.879C80.9727 156.702 81.1161 156.559 81.2931 156.559H124.339C124.516 156.559 124.659 156.702 124.659 156.879C124.659 156.964 124.625 157.046 124.565 157.106C124.505 157.166 124.424 157.2 124.339 157.2Z" fill="#D1D3D4"/>
<path id="Path_8" d="M124.339 164.298H81.2931C81.1161 164.298 80.9727 164.154 80.9727 163.977C80.9727 163.8 81.1161 163.656 81.2931 163.656H124.339C124.516 163.656 124.659 163.8 124.659 163.977C124.659 164.154 124.516 164.298 124.339 164.298V164.298Z" fill="#D1D3D4"/>
<rect id="Rectangle_2" x="126.436" y="106.963" width="40.2066" height="3.75776" transform="rotate(-180 126.436 106.963)" fill="#231F20"/>
<path id="Shape_2" fill-rule="evenodd" clip-rule="evenodd" d="M86.2228 107.29H126.436C126.524 107.288 126.607 107.251 126.667 107.187C126.728 107.123 126.76 107.038 126.756 106.95V103.211C126.756 103.034 126.613 102.891 126.436 102.891H86.2228C86.0458 102.891 85.9023 103.034 85.9023 103.211V106.969C85.9058 107.145 86.0472 107.286 86.2228 107.29ZM126.115 106.648H86.5432V103.532H126.115V106.648Z" fill="#231F20"/>
<rect id="Rectangle_3" x="56.9668" y="123.752" width="13.1565" height="48.2673" fill="white"/>
<path id="Shape_3" fill-rule="evenodd" clip-rule="evenodd" d="M56.9669 172.359H70.1235C70.2119 172.36 70.2964 172.323 70.3571 172.259C70.4178 172.194 70.4492 172.108 70.4439 172.02V123.752C70.4439 123.575 70.3004 123.432 70.1235 123.432H56.9669C56.7914 123.435 56.6499 123.577 56.6465 123.752V172.039C56.6465 172.216 56.7899 172.359 56.9669 172.359ZM69.8223 171.718H57.3066L57.2873 124.073H69.8223V171.718Z" fill="#231F20"/>
<rect id="Rectangle_4" x="31.6738" y="117.607" width="25.7299" height="54.417" fill="white"/>
<path id="Shape_4" fill-rule="evenodd" clip-rule="evenodd" d="M31.6739 172.358H57.4231C57.5103 172.358 57.5938 172.323 57.6543 172.26C57.7148 172.197 57.747 172.112 57.7435 172.025V117.608C57.7435 117.431 57.6001 117.287 57.4231 117.287H31.6739C31.497 117.287 31.3535 117.431 31.3535 117.608V172.038C31.3535 172.215 31.497 172.358 31.6739 172.358ZM57.1027 171.717H32.0136L31.9944 117.928H57.1027V171.717Z" fill="#231F20"/>
<path id="Path_9" d="M56.2631 124.04H32.8146C32.6376 124.04 32.4941 123.896 32.4941 123.719C32.4941 123.542 32.6376 123.398 32.8146 123.398H56.2631C56.44 123.398 56.5835 123.542 56.5835 123.719C56.5835 123.896 56.44 124.04 56.2631 124.04Z" fill="#D1D3D4"/>
<path id="Path_10" d="M56.2631 129.985H32.8146C32.6376 129.985 32.4941 129.841 32.4941 129.664C32.4941 129.487 32.6376 129.344 32.8146 129.344H56.2631C56.44 129.344 56.5835 129.487 56.5835 129.664C56.5835 129.841 56.44 129.985 56.2631 129.985Z" fill="#D1D3D4"/>
<path id="Path_11" d="M56.2631 135.923H32.8146C32.6376 135.923 32.4941 135.779 32.4941 135.602C32.4941 135.425 32.6376 135.281 32.8146 135.281H56.2631C56.44 135.281 56.5835 135.425 56.5835 135.602C56.5835 135.779 56.44 135.923 56.2631 135.923Z" fill="#D1D3D4"/>
<path id="Path_12" d="M56.2631 141.86H32.8146C32.6376 141.86 32.4941 141.716 32.4941 141.539C32.4941 141.362 32.6376 141.219 32.8146 141.219H56.2631C56.44 141.219 56.5835 141.362 56.5835 141.539C56.5835 141.716 56.44 141.86 56.2631 141.86Z" fill="#D1D3D4"/>
<path id="Path_13" d="M56.2631 147.799H32.8146C32.6376 147.799 32.4941 147.656 32.4941 147.479C32.4941 147.302 32.6376 147.158 32.8146 147.158H56.2631C56.44 147.158 56.5835 147.302 56.5835 147.479C56.5835 147.656 56.44 147.799 56.2631 147.799Z" fill="#D1D3D4"/>
<path id="Path_14" d="M56.2631 153.762H32.8146C32.6376 153.762 32.4941 153.619 32.4941 153.442C32.4941 153.265 32.6376 153.121 32.8146 153.121H56.2631C56.44 153.121 56.5835 153.265 56.5835 153.442C56.5835 153.619 56.44 153.762 56.2631 153.762Z" fill="#D1D3D4"/>
<path id="Path_15" d="M56.2631 159.674H32.8146C32.6376 159.674 32.4941 159.531 32.4941 159.354C32.4941 159.177 32.6376 159.033 32.8146 159.033H56.2631C56.44 159.033 56.5835 159.177 56.5835 159.354C56.5835 159.531 56.44 159.674 56.2631 159.674Z" fill="#D1D3D4"/>
<path id="Path_16" d="M56.2631 165.612H32.8146C32.6376 165.612 32.4941 165.468 32.4941 165.291C32.4941 165.114 32.6376 164.971 32.8146 164.971H56.2631C56.44 164.971 56.5835 165.114 56.5835 165.291C56.5835 165.468 56.44 165.612 56.2631 165.612Z" fill="#D1D3D4"/>
<rect id="Rectangle_5" x="31.6738" y="114.467" width="21.9041" height="3.14215" fill="#231F20"/>
<path id="Shape_5" fill-rule="evenodd" clip-rule="evenodd" d="M31.6739 117.928H53.578C53.755 117.928 53.8984 117.784 53.8984 117.607V114.465C53.8984 114.288 53.755 114.145 53.578 114.145H31.6739C31.497 114.145 31.3535 114.288 31.3535 114.465V117.607C31.3535 117.784 31.497 117.928 31.6739 117.928ZM53.2576 117.287H31.9944V114.786H53.2576V117.287Z" fill="#231F20"/>
<rect id="Rectangle_6" x="64.6836" y="128.035" width="2.42239" height="0.641256" fill="#D1D3D4"/>
<rect id="Rectangle_7" x="60.4336" y="135.051" width="2.42239" height="0.641256" fill="#D1D3D4"/>
<rect id="Rectangle_8" x="63.459" y="141.713" width="2.42239" height="0.641256" fill="#D1D3D4"/>
<path id="Path_17" d="M93.5149 157.417C87.5614 147.895 72.4055 141.123 54.6476 141.123C36.8898 141.123 21.7403 147.895 15.7676 157.417H93.5149Z" fill="#E7816B"/>
<path id="Shape_6" fill-rule="evenodd" clip-rule="evenodd" d="M15.7684 157.712H93.5157C93.5928 157.689 93.6575 157.636 93.6952 157.565C93.7465 157.471 93.7465 157.357 93.6952 157.264C87.5751 147.433 71.8295 140.828 54.6036 140.828C37.3777 140.828 21.6578 147.433 15.5121 157.264C15.4569 157.356 15.4569 157.472 15.5121 157.565C15.5649 157.656 15.6627 157.713 15.7684 157.712ZM92.9774 157.129H16.3195C22.5614 147.709 37.8583 141.418 54.6485 141.418C71.4386 141.418 86.742 147.709 92.9774 157.129Z" fill="#231F20"/>
<path id="Path_18" d="M92.1813 162.534H19.0609L15.8887 157.27H93.4117L92.1813 162.534V162.534Z" fill="#231F20"/>
<path id="Shape_7" fill-rule="evenodd" clip-rule="evenodd" d="M19.0609 162.855H92.1813C92.3411 162.869 92.4862 162.762 92.521 162.605L93.745 157.34C93.7682 157.247 93.7469 157.147 93.6873 157.071C93.6248 156.994 93.5305 156.949 93.4309 156.949H15.8887C15.7745 156.949 15.669 157.01 15.6131 157.11C15.556 157.211 15.556 157.335 15.6131 157.437L18.7853 162.701C18.8438 162.797 18.9484 162.856 19.0609 162.855ZM91.925 162.214H19.2403L16.459 157.59H93.0016L91.925 162.214Z" fill="#231F20"/>
<rect id="Rectangle_9" x="17.3184" y="162.535" width="76.0875" height="9.49058" fill="#231F20"/>
<path id="Shape_8" fill-rule="evenodd" clip-rule="evenodd" d="M17.3185 172.358H93.406C93.583 172.358 93.7264 172.215 93.7264 172.038V162.547C93.7264 162.37 93.583 162.227 93.406 162.227H17.3185C17.1415 162.227 16.998 162.37 16.998 162.547V172.038C16.998 172.215 17.1415 172.358 17.3185 172.358ZM93.0856 171.717H17.6389V162.868H93.0856V171.717Z" fill="#231F20"/>
<path id="Path_19" d="M87.5798 158.513C82.6581 150.639 70.1296 145.047 55.4542 145.047C40.7789 145.047 28.244 150.645 23.3223 158.513H87.5798Z" fill="#E7816B"/>
<path id="Shape_9" fill-rule="evenodd" clip-rule="evenodd" d="M23.3237 158.802H87.5812C87.6846 158.801 87.7795 158.745 87.8312 158.655C87.8825 158.563 87.8825 158.452 87.8312 158.36C82.7429 150.216 69.7337 144.746 55.4557 144.746C41.1776 144.746 28.1621 150.216 23.0738 158.36C23.0171 158.45 23.0144 158.563 23.0666 158.656C23.1188 158.748 23.2176 158.805 23.3237 158.802ZM87.0429 158.251H23.862C29.04 150.492 41.6391 145.368 55.4557 145.368C69.2723 145.368 81.8649 150.556 87.0429 158.251Z" fill="#231F20"/>
<path id="Shape_10" fill-rule="evenodd" clip-rule="evenodd" d="M31.9619 158.835H78.9423C79.0641 158.846 79.1821 158.789 79.2499 158.687C79.3011 158.591 79.3011 158.476 79.2499 158.379C75.5137 150.21 65.9651 144.721 55.4745 144.721C44.9839 144.721 35.4289 150.21 31.6927 158.379C31.6415 158.476 31.6415 158.591 31.6927 158.687C31.7532 158.777 31.8536 158.832 31.9619 158.835ZM78.436 158.193H32.4682C36.2748 150.498 45.4132 145.368 55.4553 145.368C65.4973 145.368 74.6614 150.498 78.436 158.193Z" fill="#231F20"/>
<path id="Shape_11" fill-rule="evenodd" clip-rule="evenodd" d="M41.825 158.835H69.0801C69.1805 158.833 69.2747 158.786 69.3364 158.706C69.3949 158.627 69.4138 158.526 69.3877 158.431C67.2153 150.229 61.6207 144.721 55.4557 144.721C49.2908 144.721 43.6898 150.229 41.5174 158.431C41.4912 158.526 41.5101 158.627 41.5686 158.706C41.6304 158.786 41.7246 158.833 41.825 158.835ZM68.6636 158.193H42.2415C44.414 150.498 49.6945 145.368 55.4557 145.368C61.2169 145.368 66.4911 150.498 68.6636 158.193Z" fill="#231F20"/>
<path id="Shape_12" fill-rule="evenodd" clip-rule="evenodd" d="M51.3913 158.835H59.5108C59.6004 158.834 59.6859 158.797 59.7479 158.732C59.8066 158.665 59.8365 158.577 59.8313 158.488C59.2994 151.832 57.9151 144.721 55.4543 144.721C52.9934 144.721 51.5964 151.832 51.0709 158.488C51.0657 158.577 51.0956 158.665 51.1542 158.732C51.2162 158.797 51.3017 158.834 51.3913 158.835ZM59.1648 158.193H51.7374C52.4423 149.767 54.1341 145.368 55.4543 145.368C56.7744 145.368 58.4598 149.767 59.1648 158.193Z" fill="#231F20"/>
<path id="Path_20" d="M86.4777 162.739H24.4246L23.4121 158.385H87.4902L86.4777 162.739V162.739Z" fill="white"/>
<path id="Shape_13" fill-rule="evenodd" clip-rule="evenodd" d="M24.4262 163.06H86.4792C86.6319 163.064 86.766 162.959 86.7996 162.81L87.8121 158.462C87.8355 158.366 87.8143 158.265 87.7545 158.186C87.692 158.109 87.5977 158.064 87.4981 158.064H23.4136C23.3157 158.063 23.2229 158.108 23.1637 158.186C23.1016 158.264 23.0781 158.365 23.0996 158.462L24.1121 162.81C24.1452 162.957 24.2758 163.061 24.4262 163.06ZM86.2036 162.419H24.6825L23.8174 158.706H87.0688L86.2036 162.419Z" fill="#231F20"/>
<rect id="Rectangle_10" x="23.4121" y="162.74" width="64.0845" height="9.28538" fill="#E7816B"/>
<path id="Shape_14" fill-rule="evenodd" clip-rule="evenodd" d="M23.4061 172.321H87.4906C87.5688 172.321 87.6438 172.29 87.6991 172.234C87.7544 172.179 87.7854 172.104 87.7854 172.026V162.74C87.7854 162.577 87.6534 162.445 87.4906 162.445H23.4061C23.2433 162.445 23.1113 162.577 23.1113 162.74V172.026C23.1113 172.189 23.2433 172.321 23.4061 172.321ZM87.2022 171.718H23.7009V163.035H87.2022V171.718Z" fill="#231F20"/>
<path id="Path_21" d="M87.0807 160.887H25.6173C25.4403 160.887 25.2969 160.744 25.2969 160.567C25.2969 160.39 25.4403 160.246 25.6173 160.246H87.0807C87.2577 160.246 87.4012 160.39 87.4012 160.567C87.4012 160.744 87.2577 160.887 87.0807 160.887Z" fill="#D1D3D4"/>
<rect id="Rectangle_11" x="25.9121" y="165.35" width="12.1761" height="6.67547" fill="#231F20"/>
<path id="Shape_15" fill-rule="evenodd" clip-rule="evenodd" d="M25.9181 172.359H38.0941C38.1814 172.359 38.2649 172.323 38.3254 172.26C38.3858 172.198 38.418 172.113 38.4146 172.025V165.35C38.4111 165.174 38.2697 165.033 38.0941 165.029H25.9181C25.7425 165.033 25.6011 165.174 25.5977 165.35V172.038C25.5977 172.215 25.7411 172.359 25.9181 172.359ZM37.7673 171.718H26.2321V165.683H37.7673V171.718Z" fill="#231F20"/>
<path id="Path_22" d="M29.0275 172.359C28.8505 172.359 28.707 172.215 28.707 172.038V165.35C28.707 165.173 28.8505 165.029 29.0275 165.029C29.2044 165.029 29.3479 165.173 29.3479 165.35V172.025C29.3514 172.113 29.3192 172.198 29.2587 172.26C29.1982 172.323 29.1147 172.359 29.0275 172.359V172.359Z" fill="white"/>
<path id="Path_23" d="M32.006 172.359C31.829 172.359 31.6855 172.215 31.6855 172.038V165.35C31.6855 165.173 31.829 165.029 32.006 165.029C32.1815 165.033 32.323 165.174 32.3264 165.35V172.025C32.3299 172.113 32.2977 172.198 32.2372 172.26C32.1767 172.323 32.0932 172.359 32.006 172.359Z" fill="white"/>
<path id="Path_24" d="M34.9923 172.359C34.8153 172.359 34.6719 172.215 34.6719 172.038V165.35C34.6753 165.174 34.8168 165.033 34.9923 165.029C35.1693 165.029 35.3127 165.173 35.3127 165.35V172.025C35.3162 172.113 35.284 172.198 35.2235 172.26C35.1631 172.323 35.0795 172.359 34.9923 172.359Z" fill="white"/>
<rect id="Rectangle_12" x="41.5488" y="165.35" width="12.1761" height="6.67547" fill="#231F20"/>
<path id="Shape_16" fill-rule="evenodd" clip-rule="evenodd" d="M41.5489 172.359H53.725C53.8122 172.359 53.8957 172.323 53.9562 172.26C54.0167 172.198 54.0489 172.113 54.0454 172.025V165.35C54.0454 165.173 53.902 165.029 53.725 165.029H41.5489C41.372 165.029 41.2285 165.173 41.2285 165.35V172.038C41.2285 172.215 41.372 172.359 41.5489 172.359ZM53.4046 171.718H41.8694V165.683H53.4046V171.718Z" fill="#231F20"/>
<path id="Path_25" d="M44.6564 172.359C44.4794 172.359 44.3359 172.215 44.3359 172.038V165.35C44.3393 165.174 44.4808 165.033 44.6564 165.029C44.8333 165.029 44.9768 165.173 44.9768 165.35V172.025C44.9803 172.113 44.9481 172.198 44.8876 172.26C44.8271 172.323 44.7436 172.359 44.6564 172.359Z" fill="white"/>
<path id="Path_26" d="M47.6368 172.359C47.4599 172.359 47.3164 172.215 47.3164 172.038V165.35C47.3164 165.173 47.4599 165.029 47.6368 165.029C47.8138 165.029 47.9573 165.173 47.9573 165.35V172.025C47.9607 172.113 47.9285 172.198 47.8681 172.26C47.8076 172.323 47.7241 172.359 47.6368 172.359V172.359Z" fill="white"/>
<path id="Path_27" d="M50.6173 172.359C50.4403 172.359 50.2969 172.215 50.2969 172.038V165.35C50.2969 165.173 50.4403 165.029 50.6173 165.029C50.7928 165.033 50.9343 165.174 50.9377 165.35V172.025C50.9412 172.113 50.909 172.198 50.8485 172.26C50.7881 172.323 50.7045 172.359 50.6173 172.359Z" fill="white"/>
<rect id="Rectangle_13" x="57.1797" y="165.35" width="12.1761" height="6.67547" fill="#231F20"/>
<path id="Shape_17" fill-rule="evenodd" clip-rule="evenodd" d="M57.1798 172.359H69.3559C69.4431 172.359 69.5266 172.323 69.5871 172.26C69.6476 172.198 69.6798 172.113 69.6763 172.025V165.35C69.6763 165.173 69.5328 165.029 69.3559 165.029H57.1798C57.0028 165.029 56.8594 165.173 56.8594 165.35V172.038C56.8594 172.215 57.0028 172.359 57.1798 172.359ZM69.0354 171.718H57.5002V165.683H69.0354V171.718Z" fill="#231F20"/>
<path id="Path_28" d="M60.2931 172.359C60.1161 172.359 59.9727 172.215 59.9727 172.038V165.35C59.9727 165.173 60.1161 165.029 60.2931 165.029C60.4686 165.033 60.6101 165.174 60.6135 165.35V172.025C60.617 172.113 60.5848 172.198 60.5243 172.26C60.4638 172.323 60.3803 172.359 60.2931 172.359Z" fill="white"/>
<path id="Path_29" d="M63.2677 172.359C63.0907 172.359 62.9473 172.215 62.9473 172.038V165.35C62.9507 165.174 63.0922 165.033 63.2677 165.029C63.4447 165.029 63.5881 165.173 63.5881 165.35V172.025C63.5916 172.113 63.5594 172.198 63.4989 172.26C63.4384 172.323 63.3549 172.359 63.2677 172.359Z" fill="white"/>
<path id="Path_30" d="M66.2462 172.359C66.0692 172.359 65.9258 172.215 65.9258 172.038V165.35C65.9258 165.173 66.0692 165.029 66.2462 165.029C66.4217 165.033 66.5632 165.174 66.5666 165.35V172.025C66.5701 172.113 66.5379 172.198 66.4774 172.26C66.417 172.323 66.3335 172.359 66.2462 172.359Z" fill="white"/>
<rect id="Rectangle_14" x="72.8086" y="165.35" width="12.1761" height="6.67547" fill="#231F20"/>
<path id="Shape_18" fill-rule="evenodd" clip-rule="evenodd" d="M72.8028 172.359H84.9789C85.0662 172.359 85.1497 172.323 85.2101 172.26C85.2706 172.198 85.3028 172.113 85.2993 172.025V165.35C85.2959 165.174 85.1544 165.033 84.9789 165.029H72.8028C72.6273 165.033 72.4858 165.174 72.4824 165.35V172.038C72.4824 172.215 72.6259 172.359 72.8028 172.359ZM84.6521 171.718H73.1169V165.683H84.6521V171.718Z" fill="#231F20"/>
<path id="Path_31" d="M75.9239 172.359C75.747 172.359 75.6035 172.215 75.6035 172.038V165.35C75.6035 165.173 75.747 165.029 75.9239 165.029C76.0995 165.033 76.241 165.174 76.2444 165.35V172.025C76.2479 172.113 76.2156 172.198 76.1552 172.26C76.0947 172.323 76.0112 172.359 75.9239 172.359Z" fill="white"/>
<path id="Path_32" d="M78.8966 172.359C78.7196 172.359 78.5762 172.215 78.5762 172.038V165.35C78.5796 165.174 78.7211 165.033 78.8966 165.029C79.0736 165.029 79.217 165.173 79.217 165.35V172.025C79.2205 172.113 79.1883 172.198 79.1278 172.26C79.0673 172.323 78.9838 172.359 78.8966 172.359V172.359Z" fill="white"/>
<path id="Path_33" d="M81.8771 172.359C81.7001 172.359 81.5566 172.215 81.5566 172.038V165.35C81.5566 165.173 81.7001 165.029 81.8771 165.029C82.054 165.029 82.1975 165.173 82.1975 165.35V172.025C82.201 172.113 82.1688 172.198 82.1083 172.26C82.0478 172.323 81.9643 172.359 81.8771 172.359V172.359Z" fill="white"/>
<path id="Path_34" d="M95.5528 36.8357C95.3759 36.8357 95.2324 36.6921 95.2324 36.515V30.9105C95.2324 30.7334 95.3759 30.5898 95.5528 30.5898C95.7284 30.5933 95.8699 30.7348 95.8733 30.9105V36.515C95.8699 36.6907 95.7284 36.8323 95.5528 36.8357Z" fill="#231F20"/>
<rect id="Rectangle_15" x="92.9453" y="63.916" width="5.21648" height="3.61027" fill="#E7816B"/>
<path id="Shape_19" fill-rule="evenodd" clip-rule="evenodd" d="M92.9452 67.8336H98.1617C98.241 67.8319 98.3163 67.7984 98.3706 67.7404C98.4249 67.6825 98.4535 67.6051 98.45 67.5258V63.9155C98.45 63.7561 98.3209 63.627 98.1617 63.627H92.9452C92.7848 63.6269 92.6539 63.7551 92.6504 63.9155V67.5386C92.6538 67.7001 92.7838 67.8302 92.9452 67.8336ZM97.8669 67.2436H93.24V64.2105H97.8669V67.2436Z" fill="#231F20"/>
<rect id="Rectangle_16" x="91.9199" y="61.5879" width="7.26718" height="2.33417" fill="white"/>
<path id="Shape_20" fill-rule="evenodd" clip-rule="evenodd" d="M91.92 64.2366H99.1872C99.2722 64.2366 99.3537 64.2028 99.4138 64.1427C99.4739 64.0826 99.5076 64.001 99.5076 63.916V61.5882C99.5076 61.4111 99.3642 61.2676 99.1872 61.2676H91.92C91.7431 61.2676 91.5996 61.4111 91.5996 61.5882V63.916C91.5996 64.093 91.7431 64.2366 91.92 64.2366ZM98.8668 63.5953H92.2405V61.9088H98.8668V63.5953Z" fill="#231F20"/>
<path id="Path_35" d="M94.1499 41.4277H96.9568L97.5207 61.5888H93.5859L94.1499 41.4277V41.4277Z" fill="#E7816B"/>
<path id="Shape_21" fill-rule="evenodd" clip-rule="evenodd" d="M93.5859 61.8774H97.5207C97.5928 61.8741 97.6612 61.8445 97.7129 61.7941C97.7651 61.7358 97.7946 61.6607 97.7962 61.5825L97.2515 41.4214C97.248 41.261 97.117 41.1328 96.9567 41.1328H94.1498C93.9895 41.1328 93.8585 41.261 93.855 41.4214L93.2911 61.5825C93.2895 61.6613 93.3195 61.7375 93.3744 61.7941C93.4296 61.851 93.5067 61.8814 93.5859 61.8774ZM97.2195 61.2939H93.8871L94.4318 41.7228H96.6683L97.2195 61.2939Z" fill="#231F20"/>
<path id="Path_36" d="M98.469 49.9876C98.469 50.3723 98.1614 50.725 97.6551 50.9815H93.4447C92.9385 50.725 92.6309 50.3723 92.6309 49.9876C92.681 49.5661 92.9559 49.2052 93.3486 49.0449H97.7961C98.1697 49.2198 98.4249 49.5772 98.469 49.9876V49.9876Z" fill="white"/>
<path id="Shape_22" fill-rule="evenodd" clip-rule="evenodd" d="M93.4448 51.3017H97.6552C97.7035 51.3142 97.7543 51.3142 97.8026 51.3017C98.3487 51.0971 98.7314 50.5998 98.7895 50.0192C98.743 49.4828 98.4093 49.0138 97.9179 48.7944C97.8687 48.7681 97.8135 48.7548 97.7577 48.7559H93.3487C93.2929 48.7548 93.2377 48.7681 93.1885 48.7944C92.6946 49.012 92.3582 49.4813 92.3105 50.0192C92.3698 50.6014 92.7552 51.099 93.3039 51.3017C93.35 51.3142 93.3987 51.3142 93.4448 51.3017ZM97.5783 50.6604H93.5282C93.1629 50.4617 92.9514 50.3142 92.9514 50.0192C92.9514 49.7242 93.227 49.5062 93.432 49.3779H97.6744C97.9756 49.5896 98.1486 49.8204 98.1486 50.0192C98.1486 50.218 97.9436 50.4617 97.5783 50.6604Z" fill="#231F20"/>
<path id="Path_37" d="M94.5665 35.9883H96.5403L96.6557 41.4261H94.4512L94.5665 35.9883V35.9883Z" fill="#231F20"/>
<path id="Shape_23" fill-rule="evenodd" clip-rule="evenodd" d="M94.4514 41.7471H96.6559C96.733 41.7385 96.805 41.7047 96.861 41.6509C96.9183 41.5877 96.9502 41.5055 96.9507 41.4201L96.8353 35.9822C96.8353 35.8978 96.8014 35.8169 96.7411 35.7578C96.6808 35.6987 96.5993 35.6663 96.5149 35.668H94.5667C94.4824 35.6663 94.4008 35.6987 94.3405 35.7578C94.2803 35.8169 94.2463 35.8978 94.2463 35.9822L94.131 41.4201C94.1288 41.506 94.1611 41.5891 94.2207 41.6509C94.2818 41.7123 94.3648 41.7469 94.4514 41.7471ZM96.3291 41.1059H94.7782L94.8808 36.3093H96.2265L96.3291 41.1059Z" fill="#231F20"/>
<path id="Path_38" d="M88.8629 67.3789H102.237C102.843 67.3789 103.333 67.8698 103.333 68.4755V70.2453H87.7734V68.4755C87.7734 67.8723 88.2602 67.3824 88.8629 67.3789V67.3789Z" fill="white"/>
<path id="Shape_24" fill-rule="evenodd" clip-rule="evenodd" d="M87.7735 70.5663H103.333C103.51 70.5663 103.654 70.4227 103.654 70.2456V68.4758C103.654 67.6931 103.02 67.0586 102.237 67.0586H88.863C88.0833 67.0621 87.4531 67.6956 87.4531 68.4758V70.2456C87.4531 70.4227 87.5966 70.5663 87.7735 70.5663ZM103.013 69.925H88.094V68.4758C88.094 68.0497 88.4372 67.7034 88.863 67.6998H102.237C102.443 67.6998 102.64 67.7816 102.786 67.9271C102.931 68.0726 103.013 68.27 103.013 68.4758V69.925Z" fill="#231F20"/>
<rect id="Rectangle_17" x="92.3613" y="81.5176" width="6.38282" height="90.5068" fill="#231F20"/>
<path id="Shape_25" fill-rule="evenodd" clip-rule="evenodd" d="M92.336 172.358H98.7445C98.8317 172.358 98.9153 172.323 98.9757 172.26C99.0362 172.197 99.0684 172.112 99.0649 172.025V81.5179C99.0615 81.3422 98.92 81.2007 98.7445 81.1973H92.336C92.1591 81.1973 92.0156 81.3408 92.0156 81.5179V172.038C92.0156 172.215 92.1591 172.358 92.336 172.358ZM98.4369 171.717H92.6693V81.8385H98.4369V171.717Z" fill="#231F20"/>
<path id="Path_39" d="M97.8848 84.3463H93.213C93.036 84.3463 92.8926 84.2028 92.8926 84.0257C92.896 83.8501 93.0375 83.7085 93.213 83.7051H97.8848C98.0617 83.7051 98.2052 83.8486 98.2052 84.0257C98.2052 84.2028 98.0617 84.3463 97.8848 84.3463Z" fill="white"/>
<path id="Path_40" d="M97.9101 85.7897H93.1935C93.0165 85.7897 92.873 85.6461 92.873 85.4691C92.873 85.292 93.0165 85.1484 93.1935 85.1484H97.9101C98.0871 85.1484 98.2305 85.292 98.2305 85.4691C98.2305 85.6461 98.0871 85.7897 97.9101 85.7897Z" fill="white"/>
<path id="Path_41" d="M97.9296 87.3034H93.1681C92.9925 87.3 92.8511 87.1584 92.8477 86.9827C92.8477 86.8057 92.9911 86.6621 93.1681 86.6621H97.9296C98.1065 86.6621 98.25 86.8057 98.25 86.9827C98.25 87.1598 98.1065 87.3034 97.9296 87.3034V87.3034Z" fill="white"/>
<path id="Path_42" d="M97.9568 88.8229H93.1505C92.9735 88.8229 92.8301 88.6793 92.8301 88.5023C92.8301 88.3252 92.9735 88.1816 93.1505 88.1816H97.9568C98.1338 88.1816 98.2773 88.3252 98.2773 88.5023C98.2773 88.6793 98.1338 88.8229 97.9568 88.8229Z" fill="white"/>
<path id="Path_43" d="M97.9808 90.3737H93.1232C92.9462 90.3737 92.8027 90.2301 92.8027 90.053C92.8027 89.876 92.9462 89.7324 93.1232 89.7324H97.9808C98.1577 89.7324 98.3012 89.876 98.3012 90.053C98.3012 90.2301 98.1577 90.3737 97.9808 90.3737Z" fill="white"/>
<path id="Path_44" d="M98.0066 91.9518H93.0978C92.9208 91.9518 92.7773 91.8083 92.7773 91.6312C92.7773 91.4541 92.9208 91.3105 93.0978 91.3105H98.0066C98.1822 91.314 98.3237 91.4555 98.3271 91.6312C98.3271 91.8083 98.1836 91.9518 98.0066 91.9518V91.9518Z" fill="white"/>
<path id="Path_45" d="M98.0325 93.567H93.0724C92.8954 93.567 92.752 93.4235 92.752 93.2464C92.752 93.0693 92.8954 92.9258 93.0724 92.9258H98.0325C98.2095 92.9258 98.3529 93.0693 98.3529 93.2464C98.3529 93.4235 98.2095 93.567 98.0325 93.567Z" fill="white"/>
<path id="Path_46" d="M98.0584 95.2155H93.047C92.87 95.2155 92.7266 95.0719 92.7266 94.8948C92.7266 94.7178 92.87 94.5742 93.047 94.5742H98.0584C98.2354 94.5742 98.3788 94.7178 98.3788 94.8948C98.3788 95.0719 98.2354 95.2155 98.0584 95.2155Z" fill="white"/>
<path id="Path_47" d="M98.0843 96.8952H93.0216C92.8446 96.8952 92.7012 96.7516 92.7012 96.5745C92.7012 96.3975 92.8446 96.2539 93.0216 96.2539H98.0843C98.2598 96.2573 98.4013 96.3989 98.4047 96.5745C98.4047 96.7516 98.2612 96.8952 98.0843 96.8952Z" fill="white"/>
<path id="Path_48" d="M98.1093 98.6139H92.9825C92.8056 98.6139 92.6621 98.4704 92.6621 98.2933C92.6621 98.1162 92.8056 97.9727 92.9825 97.9727H98.1093C98.2863 97.9727 98.4297 98.1162 98.4297 98.2933C98.4297 98.4704 98.2863 98.6139 98.1093 98.6139Z" fill="white"/>
<path id="Path_49" d="M98.136 100.364H92.9708C92.7938 100.364 92.6504 100.22 92.6504 100.043C92.6504 99.8662 92.7938 99.7227 92.9708 99.7227H98.136C98.313 99.7227 98.4564 99.8662 98.4564 100.043C98.4564 100.22 98.313 100.364 98.136 100.364Z" fill="white"/>
<path id="Path_50" d="M98.1605 102.161H92.9376C92.7621 102.157 92.6206 102.016 92.6172 101.84C92.6172 101.663 92.7606 101.52 92.9376 101.52H98.1605C98.3375 101.52 98.4809 101.663 98.4809 101.84C98.4809 102.017 98.3375 102.161 98.1605 102.161Z" fill="white"/>
<path id="Path_51" d="M98.1928 103.989H92.9122C92.7353 103.989 92.5918 103.845 92.5918 103.668C92.5918 103.491 92.7353 103.348 92.9122 103.348H98.1928C98.3683 103.351 98.5098 103.493 98.5132 103.668C98.5132 103.845 98.3697 103.989 98.1928 103.989Z" fill="white"/>
<path id="Path_52" d="M98.2192 105.86H92.881C92.7054 105.857 92.564 105.715 92.5605 105.539C92.5605 105.362 92.704 105.219 92.881 105.219H98.2192C98.3962 105.219 98.5396 105.362 98.5396 105.539C98.5396 105.716 98.3962 105.86 98.2192 105.86Z" fill="white"/>
<path id="Path_53" d="M98.2515 107.772H92.8556C92.6786 107.772 92.5352 107.629 92.5352 107.451C92.5352 107.274 92.6786 107.131 92.8556 107.131H98.2515C98.4285 107.131 98.5719 107.274 98.5719 107.451C98.5719 107.629 98.4285 107.772 98.2515 107.772Z" fill="white"/>
<path id="Path_54" d="M98.2824 109.727H92.8224C92.6454 109.727 92.502 109.584 92.502 109.407C92.502 109.229 92.6454 109.086 92.8224 109.086H98.2824C98.4593 109.086 98.6028 109.229 98.6028 109.407C98.5994 109.582 98.4579 109.724 98.2824 109.727Z" fill="white"/>
<path id="Path_55" d="M98.3152 111.727H92.7911C92.6142 111.727 92.4707 111.584 92.4707 111.407C92.4707 111.229 92.6142 111.086 92.7911 111.086H98.3152C98.4922 111.086 98.6356 111.229 98.6356 111.407C98.6322 111.582 98.4907 111.724 98.3152 111.727Z" fill="white"/>
<path id="Path_56" d="M98.3397 113.766H92.7579C92.581 113.766 92.4375 113.623 92.4375 113.446C92.4409 113.27 92.5824 113.128 92.7579 113.125H98.3397C98.5166 113.125 98.6601 113.269 98.6601 113.446C98.6601 113.623 98.5166 113.766 98.3397 113.766Z" fill="white"/>
<path id="Path_57" d="M98.3789 115.864H92.7267C92.5497 115.864 92.4062 115.72 92.4062 115.543C92.4062 115.366 92.5497 115.223 92.7267 115.223H98.3789C98.5559 115.223 98.6993 115.366 98.6993 115.543C98.6959 115.719 98.5545 115.861 98.3789 115.864Z" fill="white"/>
<path id="Path_58" d="M98.4357 118.006H92.6681C92.4911 118.006 92.3477 117.863 92.3477 117.686C92.3477 117.509 92.4911 117.365 92.6681 117.365H98.4357C98.6126 117.365 98.7561 117.509 98.7561 117.686C98.7527 117.862 98.6112 118.003 98.4357 118.006Z" fill="white"/>
<path id="Path_59" d="M98.4357 120.2H92.6681C92.4911 120.2 92.3477 120.056 92.3477 119.879C92.3477 119.702 92.4911 119.559 92.6681 119.559H98.4357C98.6126 119.559 98.7561 119.702 98.7561 119.879C98.7561 120.056 98.6126 120.2 98.4357 120.2Z" fill="white"/>
<path id="Path_60" d="M98.4741 122.444H92.6232C92.4476 122.441 92.3061 122.299 92.3027 122.123C92.3027 121.946 92.4462 121.803 92.6232 121.803H98.4741C98.651 121.803 98.7945 121.946 98.7945 122.123C98.7945 122.3 98.651 122.444 98.4741 122.444Z" fill="white"/>
<path id="Path_61" d="M98.5133 124.739H92.5919C92.4149 124.739 92.2715 124.595 92.2715 124.418C92.2715 124.241 92.4149 124.098 92.5919 124.098H98.5133C98.6903 124.098 98.8337 124.241 98.8337 124.418C98.8337 124.595 98.6903 124.739 98.5133 124.739Z" fill="white"/>
<rect id="Rectangle_18" x="92.5527" y="126.457" width="5.99831" height="0.641256" fill="white"/>
<rect id="Rectangle_19" x="92.5156" y="128.875" width="6.07521" height="0.641256" fill="white"/>
<rect id="Rectangle_20" x="92.4766" y="131.35" width="6.1457" height="0.641256" fill="white"/>
<rect id="Rectangle_21" x="92.4375" y="133.891" width="6.22901" height="0.641256" fill="white"/>
<rect id="Rectangle_22" x="92.4004" y="136.494" width="6.30592" height="0.641256" fill="white"/>
<rect id="Rectangle_23" x="92.3555" y="139.168" width="6.38923" height="0.641256" fill="white"/>
<rect id="Rectangle_24" x="92.3164" y="141.918" width="6.47894" height="0.641256" fill="white"/>
<rect id="Rectangle_25" x="92.2715" y="144.732" width="6.56225" height="0.641256" fill="white"/>
<rect id="Rectangle_26" x="92.2266" y="147.631" width="6.65197" height="0.641256" fill="white"/>
<rect id="Rectangle_27" x="92.1816" y="150.607" width="6.7481" height="0.641256" fill="white"/>
<rect id="Rectangle_28" x="92.1309" y="153.672" width="6.83782" height="0.641256" fill="white"/>
<rect id="Rectangle_29" x="92.0801" y="156.82" width="6.94035" height="0.641256" fill="white"/>
<rect id="Rectangle_30" x="92.0352" y="160.059" width="7.03648" height="0.641256" fill="white"/>
<rect id="Rectangle_31" x="91.9824" y="163.395" width="7.13901" height="0.641256" fill="white"/>
<rect id="Rectangle_32" x="91.9258" y="166.83" width="7.24796" height="0.641256" fill="white"/>
<path id="Path_62" d="M92.6681 172.024C95.0136 141.802 95.1418 81.5176 95.1418 81.5176H92.5271C88.8295 151.248 85.2792 168.087 84.0039 172.024H92.6681Z" fill="#E7816B"/>
<path id="Shape_26" fill-rule="evenodd" clip-rule="evenodd" d="M83.9919 172.32H92.6689C92.8126 172.312 92.9291 172.201 92.9445 172.057C95.2643 142.168 95.4246 82.1341 95.4246 81.5313C95.4232 81.4549 95.3935 81.3818 95.3412 81.3261C95.2854 81.2694 95.2093 81.2371 95.1298 81.2363H92.5151C92.3597 81.2396 92.2335 81.363 92.2267 81.5185C88.5547 150.704 85.0493 167.799 83.7163 171.936C83.6867 172.024 83.701 172.122 83.7548 172.198C83.8106 172.274 83.8982 172.319 83.9919 172.32ZM92.3934 171.73H84.402L84.3892 171.717C85.8119 166.953 89.2276 148.902 92.7971 81.8135H94.835C94.8222 86.4305 94.5915 142.861 92.3934 171.73Z" fill="#231F20"/>
<path id="Path_63" d="M107.107 172.024C105.825 168.081 102.281 151.248 98.5834 81.5176H95.9688C95.9688 81.5176 96.1033 141.796 98.4488 172.024H107.107Z" fill="#E7816B"/>
<path id="Shape_27" fill-rule="evenodd" clip-rule="evenodd" d="M98.4364 172.319H107.107C107.199 172.314 107.283 172.264 107.331 172.185C107.387 172.109 107.404 172.012 107.376 171.922C106.037 167.799 102.538 150.703 98.8658 81.5048C98.8589 81.3469 98.7289 81.2225 98.571 81.2227H95.9563C95.8787 81.2237 95.8048 81.2561 95.7513 81.3124C95.699 81.3681 95.6693 81.4413 95.668 81.5176C95.668 82.1204 95.8218 142.155 98.148 172.044C98.1549 172.198 98.282 172.32 98.4364 172.319ZM106.71 171.717H98.7184C96.5139 142.86 96.2768 86.4297 96.264 81.7998H98.3083C101.871 148.888 105.293 166.939 106.71 171.717Z" fill="#231F20"/>
<path id="Path_64" d="M87.772 78.6523H103.332V80.4222C103.332 81.0278 102.841 81.5188 102.236 81.5188H88.8615C88.2563 81.5188 87.7656 81.0278 87.7656 80.4222V78.6523L87.772 78.6523Z" fill="white"/>
<path id="Shape_28" fill-rule="evenodd" clip-rule="evenodd" d="M88.863 81.8397H102.237C103.02 81.8397 103.654 81.2052 103.654 80.4225V78.6527C103.654 78.4756 103.51 78.332 103.333 78.332H87.7735C87.5966 78.332 87.4531 78.4756 87.4531 78.6527V80.4225C87.4531 81.2027 88.0833 81.8362 88.863 81.8397ZM88.094 80.4225V78.9733H103.013V80.4225C103.013 80.8511 102.666 81.1984 102.237 81.1984H88.863C88.4372 81.1949 88.094 80.8486 88.094 80.4225Z" fill="#231F20"/>
<rect id="Rectangle_33" x="85.6699" y="68.8145" width="19.7573" height="10.818" rx="3.18" fill="#E7816B"/>
<path id="Shape_29" fill-rule="evenodd" clip-rule="evenodd" d="M87.7155 79.9211H103.391C104.679 79.9211 105.723 78.876 105.723 77.5869V70.8537C105.723 69.5646 104.679 68.5195 103.391 68.5195H87.7155C86.4272 68.5195 85.3828 69.5646 85.3828 70.8537V77.5869C85.3828 78.876 86.4272 79.9211 87.7155 79.9211ZM86.4788 69.6245C86.8071 69.2972 87.2521 69.1142 87.7155 69.1159H103.391C104.352 69.1159 105.133 69.8919 105.14 70.8537V77.5933C105.14 78.5601 104.357 79.3439 103.391 79.3439H87.7155C86.7493 79.3439 85.966 78.5601 85.966 77.5933V70.8601C85.966 70.3964 86.1505 69.9518 86.4788 69.6245Z" fill="#231F20"/>
<path id="Path_65" d="M106.018 71.8737H85.088C84.911 71.8737 84.7676 71.7301 84.7676 71.553C84.7676 71.376 84.911 71.2324 85.088 71.2324H106.018C106.195 71.2324 106.338 71.376 106.338 71.553C106.338 71.7301 106.195 71.8737 106.018 71.8737V71.8737Z" fill="#231F20"/>
<path id="Path_66" d="M106.018 74.5416H85.088C84.911 74.5416 84.7676 74.3981 84.7676 74.221C84.7676 74.0439 84.911 73.9004 85.088 73.9004H106.018C106.194 73.9038 106.335 74.0454 106.338 74.221C106.338 74.3981 106.195 74.5416 106.018 74.5416Z" fill="#231F20"/>
<path id="Path_67" d="M106.018 77.2096H85.088C84.911 77.2096 84.7676 77.0661 84.7676 76.889C84.7676 76.7119 84.911 76.5684 85.088 76.5684H106.018C106.194 76.5718 106.335 76.7133 106.338 76.889C106.338 77.0661 106.195 77.2096 106.018 77.2096Z" fill="#231F20"/>
<path id="Path_68" d="M134.496 122.559C134.319 122.559 134.176 122.416 134.176 122.239V111.19C134.176 111.013 134.319 110.869 134.496 110.869C134.673 110.869 134.817 111.013 134.817 111.19V122.239C134.817 122.416 134.673 122.559 134.496 122.559Z" fill="#231F20"/>
<rect id="Rectangle_34" x="131.209" y="123.758" width="13.1565" height="48.2673" fill="white"/>
<path id="Shape_30" fill-rule="evenodd" clip-rule="evenodd" d="M131.209 172.359H144.366C144.453 172.359 144.536 172.323 144.597 172.26C144.657 172.198 144.69 172.113 144.686 172.025V123.758C144.686 123.581 144.543 123.438 144.366 123.438H131.209C131.032 123.438 130.889 123.581 130.889 123.758V172.038C130.889 172.215 131.032 172.359 131.209 172.359ZM144.064 171.718H131.549L131.53 124.079H144.064V171.718Z" fill="#231F20"/>
<rect id="Rectangle_35" x="131.209" y="121.258" width="6.57507" height="2.5009" fill="#231F20"/>
<path id="Shape_31" fill-rule="evenodd" clip-rule="evenodd" d="M131.209 124.078H137.784C137.961 124.078 138.105 123.934 138.105 123.757V121.256C138.105 121.079 137.961 120.936 137.784 120.936H131.209C131.032 120.936 130.889 121.079 130.889 121.256V123.757C130.889 123.934 131.032 124.078 131.209 124.078ZM137.464 123.436H131.53V121.577H137.464V123.436Z" fill="#231F20"/>
<rect id="Rectangle_36" x="143.393" y="78.1719" width="39.4632" height="93.8542" fill="white"/>
<path id="Shape_32" fill-rule="evenodd" clip-rule="evenodd" d="M143.391 77.5293H182.854C183.208 77.5293 183.495 77.8164 183.495 78.1706V172.025C183.495 172.379 183.208 172.666 182.854 172.666H143.391C143.037 172.666 142.75 172.379 142.75 172.025V78.1706C142.75 77.8164 143.037 77.5293 143.391 77.5293ZM182.854 172.025V78.1706H143.391V172.025H182.854Z" fill="#231F20"/>
<rect id="Rectangle_37" x="143.393" y="85.168" width="39.4632" height="0.641256" fill="#D1D3D4"/>
<rect id="Rectangle_38" x="143.393" y="92.7207" width="39.4632" height="0.641256" fill="#D1D3D4"/>
<rect id="Rectangle_39" x="143.393" y="100.281" width="39.4632" height="0.641256" fill="#D1D3D4"/>
<rect id="Rectangle_40" x="143.393" y="107.836" width="39.4632" height="0.641256" fill="#D1D3D4"/>
<rect id="Rectangle_41" x="143.393" y="115.396" width="39.4632" height="0.641256" fill="#D1D3D4"/>
<rect id="Rectangle_42" x="143.393" y="122.949" width="39.4632" height="0.641256" fill="#D1D3D4"/>
<rect id="Rectangle_43" x="143.393" y="130.51" width="39.4632" height="0.641256" fill="#D1D3D4"/>
<rect id="Rectangle_44" x="143.393" y="138.064" width="39.4632" height="0.641256" fill="#D1D3D4"/>
<rect id="Rectangle_45" x="143.393" y="145.619" width="39.4632" height="0.641256" fill="#D1D3D4"/>
<rect id="Rectangle_46" x="143.393" y="153.178" width="39.4632" height="0.641256" fill="#D1D3D4"/>
<rect id="Rectangle_47" x="143.393" y="160.732" width="39.4632" height="0.641256" fill="#D1D3D4"/>
<rect id="Rectangle_48" x="153.805" y="71.1035" width="18.6358" height="100.921" fill="white"/>
<path id="Shape_33" fill-rule="evenodd" clip-rule="evenodd" d="M153.805 172.358H172.441C172.528 172.358 172.611 172.323 172.672 172.26C172.732 172.197 172.764 172.112 172.761 172.025V71.1038C172.761 70.9268 172.618 70.7832 172.441 70.7832H153.805C153.628 70.7832 153.484 70.9268 153.484 71.1038V172.037C153.484 172.215 153.628 172.358 153.805 172.358ZM172.133 171.717H154.125V71.4245H172.133V171.717Z" fill="#231F20"/>
<path id="Path_69" d="M172.441 81.942H153.805C153.628 81.942 153.484 81.7985 153.484 81.6214C153.484 81.4443 153.628 81.3008 153.805 81.3008H172.441C172.618 81.3008 172.761 81.4443 172.761 81.6214C172.761 81.7985 172.618 81.942 172.441 81.942Z" fill="#231F20"/>
<path id="Path_70" d="M172.441 89.4694H153.805C153.628 89.4694 153.484 89.3258 153.484 89.1488C153.484 88.9717 153.628 88.8281 153.805 88.8281H172.441C172.618 88.8281 172.761 88.9717 172.761 89.1488C172.761 89.3258 172.618 89.4694 172.441 89.4694Z" fill="#231F20"/>
<path id="Path_71" d="M172.441 97.0241H153.805C153.628 97.0241 153.484 96.8805 153.484 96.7034C153.484 96.5264 153.628 96.3828 153.805 96.3828H172.441C172.618 96.3828 172.761 96.5264 172.761 96.7034C172.761 96.8805 172.618 97.0241 172.441 97.0241Z" fill="#231F20"/>
<path id="Path_72" d="M172.441 104.585H153.805C153.628 104.585 153.484 104.441 153.484 104.264C153.484 104.087 153.628 103.943 153.805 103.943H172.441C172.618 103.943 172.761 104.087 172.761 104.264C172.761 104.441 172.618 104.585 172.441 104.585Z" fill="#231F20"/>
<path id="Path_73" d="M172.441 112.137H153.805C153.628 112.137 153.484 111.994 153.484 111.817C153.484 111.64 153.628 111.496 153.805 111.496H172.441C172.618 111.496 172.761 111.64 172.761 111.817C172.761 111.994 172.618 112.137 172.441 112.137V112.137Z" fill="#231F20"/>
<path id="Path_74" d="M172.441 119.698H153.805C153.628 119.698 153.484 119.554 153.484 119.377C153.484 119.2 153.628 119.057 153.805 119.057H172.441C172.618 119.057 172.761 119.2 172.761 119.377C172.761 119.554 172.618 119.698 172.441 119.698Z" fill="#231F20"/>
<path id="Path_75" d="M172.441 127.253H153.805C153.628 127.253 153.484 127.109 153.484 126.932C153.484 126.755 153.628 126.611 153.805 126.611H172.441C172.618 126.611 172.761 126.755 172.761 126.932C172.761 127.109 172.618 127.253 172.441 127.253V127.253Z" fill="#231F20"/>
<path id="Path_76" d="M172.441 134.807H153.805C153.628 134.807 153.484 134.664 153.484 134.487C153.484 134.31 153.628 134.166 153.805 134.166H172.441C172.618 134.166 172.761 134.31 172.761 134.487C172.761 134.664 172.618 134.807 172.441 134.807Z" fill="#231F20"/>
<path id="Path_77" d="M172.441 142.368H153.805C153.628 142.368 153.484 142.224 153.484 142.047C153.484 141.87 153.628 141.727 153.805 141.727H172.441C172.618 141.727 172.761 141.87 172.761 142.047C172.761 142.224 172.618 142.368 172.441 142.368Z" fill="#231F20"/>
<path id="Path_78" d="M172.441 149.915H153.805C153.628 149.915 153.484 149.771 153.484 149.594C153.484 149.417 153.628 149.273 153.805 149.273H172.441C172.618 149.273 172.761 149.417 172.761 149.594C172.761 149.771 172.618 149.915 172.441 149.915Z" fill="#231F20"/>
<path id="Path_79" d="M172.441 157.481H153.805C153.628 157.481 153.484 157.338 153.484 157.16C153.484 156.983 153.628 156.84 153.805 156.84H172.441C172.618 156.84 172.761 156.983 172.761 157.16C172.761 157.338 172.618 157.481 172.441 157.481Z" fill="#231F20"/>
<rect id="Rectangle_49" x="156.541" y="68.1094" width="13.1565" height="3.02673" fill="#231F20"/>
<path id="Shape_34" fill-rule="evenodd" clip-rule="evenodd" d="M156.541 71.4635H169.698C169.875 71.4635 170.018 71.3199 170.018 71.1428V68.1097C170.018 67.9326 169.875 67.7891 169.698 67.7891H156.541C156.366 67.7925 156.224 67.934 156.221 68.1097V71.1428C156.224 71.3185 156.366 71.46 156.541 71.4635ZM169.377 70.8222H156.881L156.862 68.4303H169.377V70.8222Z" fill="#231F20"/>
<rect id="Rectangle_50" x="134.605" y="130.805" width="2.42239" height="0.641256" fill="#D1D3D4"/>
<rect id="Rectangle_51" x="137.938" y="138.076" width="2.42239" height="0.641256" fill="#D1D3D4"/>
<rect id="Rectangle_52" x="134.305" y="145.35" width="2.42239" height="0.641256" fill="#D1D3D4"/>
<rect id="Rectangle_53" x="135.516" y="156.256" width="2.42239" height="0.641256" fill="#D1D3D4"/>
<rect id="Rectangle_54" x="113.111" y="164.959" width="72.4604" height="7.06664" fill="#E7816B"/>
<path id="Shape_35" fill-rule="evenodd" clip-rule="evenodd" d="M113.111 172.321H185.591C185.754 172.321 185.886 172.189 185.886 172.026V164.972C185.886 164.895 185.854 164.82 185.799 164.766C185.743 164.712 185.668 164.682 185.591 164.684H113.111C112.951 164.684 112.82 164.812 112.816 164.972V172.026C112.82 172.188 112.95 172.318 113.111 172.321ZM185.283 171.718H113.406V165.242H185.283V171.718Z" fill="#231F20"/>
<path id="Path_80" d="M132.574 160.72C132.574 160.72 136.829 156.129 149.345 156.129C161.861 156.129 166.11 160.72 166.11 160.72H132.574Z" fill="#E7816B"/>
<path id="Shape_36" fill-rule="evenodd" clip-rule="evenodd" d="M132.574 161.015H166.11C166.226 161.015 166.331 160.947 166.379 160.842C166.424 160.734 166.404 160.609 166.328 160.521C166.148 160.329 161.842 155.84 149.345 155.84C136.849 155.84 132.536 160.329 132.363 160.521C132.281 160.607 132.258 160.733 132.305 160.842C132.356 160.945 132.459 161.012 132.574 161.015ZM165.322 160.431H133.363C134.888 159.264 139.605 156.423 149.345 156.423C159.086 156.423 163.796 159.264 165.322 160.431Z" fill="#231F20"/>
<path id="Shape_37" fill-rule="evenodd" clip-rule="evenodd" d="M135.977 165.306H162.707C162.81 165.307 162.907 165.259 162.97 165.177L166.052 160.939C166.121 160.84 166.129 160.711 166.074 160.604C166.019 160.496 165.91 160.428 165.79 160.426H132.895C132.775 160.428 132.665 160.496 132.61 160.604C132.555 160.711 132.564 160.84 132.632 160.939L135.721 165.177C135.78 165.26 135.876 165.308 135.977 165.306ZM162.521 164.664H136.144L133.523 161.067H165.136L162.521 164.664Z" fill="#231F20"/>
<path id="Path_81" d="M141.936 165.163L138.732 161.245L135.88 165.15L135.361 164.772L138.457 160.533C138.514 160.452 138.607 160.402 138.707 160.398C138.805 160.402 138.898 160.446 138.963 160.52L142.449 164.759L141.936 165.163Z" fill="#231F20"/>
<path id="Path_82" d="M148.903 165.163L145.699 161.245L142.847 165.15L142.328 164.772L145.423 160.533C145.481 160.452 145.574 160.402 145.673 160.398C145.772 160.401 145.865 160.446 145.93 160.52L149.416 164.759L148.903 165.163Z" fill="#231F20"/>
<path id="Path_83" d="M155.87 165.163L152.666 161.245L149.814 165.15L149.295 164.772L152.39 160.533C152.448 160.452 152.54 160.402 152.64 160.398C152.739 160.4 152.833 160.444 152.896 160.52L156.383 164.759L155.87 165.163Z" fill="#231F20"/>
<path id="Path_84" d="M162.835 165.163L159.63 161.245L156.753 165.15L156.24 164.772L159.329 160.533C159.388 160.452 159.48 160.403 159.579 160.398C159.678 160.401 159.771 160.446 159.835 160.52L163.322 164.759L162.835 165.163Z" fill="#231F20"/>
<path id="Path_85" d="M121.084 172.039H120.443C120.583 169.741 120.6 167.438 120.495 165.139C120.542 165.241 120.645 165.306 120.757 165.305V164.664L121.007 164.773C121.116 164.856 121.36 165.113 121.084 172.039Z" fill="#231F20"/>
<path id="Path_86" d="M130.594 172.039H129.953C130.096 169.741 130.113 167.438 130.004 165.139C130.054 165.242 130.159 165.307 130.274 165.305V164.664L130.517 164.773C130.62 164.856 130.87 165.113 130.594 172.039Z" fill="#231F20"/>
<path id="Path_87" d="M140.092 172.039H139.451C139.594 169.741 139.611 167.438 139.502 165.139C139.552 165.242 139.657 165.307 139.772 165.305V164.664L140.015 164.773C140.13 164.856 140.374 165.113 140.092 172.039Z" fill="#231F20"/>
<path id="Path_88" d="M149.602 172.039H148.961C149.104 169.741 149.121 167.438 149.012 165.139C149.062 165.242 149.167 165.307 149.281 165.305V164.664L149.525 164.773C149.634 164.856 149.877 165.113 149.602 172.039Z" fill="#231F20"/>
<path id="Path_89" d="M159.106 172.039H158.465C158.605 169.741 158.624 167.438 158.523 165.139C158.567 165.243 158.672 165.309 158.785 165.305V164.664L159.035 164.773C159.138 164.856 159.381 165.113 159.106 172.039Z" fill="#231F20"/>
<path id="Path_90" d="M168.61 172.039H167.969C168.112 169.741 168.131 167.438 168.026 165.139C168.071 165.243 168.176 165.309 168.289 165.305V164.664L168.539 164.773C168.642 164.856 168.885 165.113 168.61 172.039Z" fill="#231F20"/>
<path id="Path_91" d="M178.114 172.039H177.473C177.616 169.741 177.635 167.438 177.53 165.139C177.578 165.241 177.68 165.306 177.793 165.305V164.664L178.043 164.773C178.146 164.856 178.389 165.113 178.114 172.039Z" fill="#231F20"/>
<rect id="Rectangle_55" x="113.111" y="166.76" width="72.4604" height="0.641256" fill="#231F20"/>
<path id="Path_92" d="M191.359 172.628H10.6407C10.4638 172.628 10.3203 172.484 10.3203 172.307C10.3203 172.13 10.4638 171.986 10.6407 171.986H191.359C191.536 171.986 191.679 172.13 191.679 172.307C191.679 172.484 191.536 172.628 191.359 172.628Z" fill="#231F20"/>
</g>
</g>
</g>
<defs>
<linearGradient id="paint0_linear_7517_944" x1="0" y1="202" x2="202" y2="202" gradientUnits="userSpaceOnUse">
<stop stop-color="#5D0202" stop-opacity="0.01"/>
<stop offset="1" stop-color="#5D0202" stop-opacity="0.497569"/>
</linearGradient>
</defs>
</svg>
