<svg width="202" height="202" viewBox="0 0 202 202" fill="none" xmlns="http://www.w3.org/2000/svg">
<g id="Group 17">
<circle id="Oval Copy 3" opacity="0.202683" cx="101" cy="101" r="101" transform="matrix(0 1 1 0 0 0)" fill="url(#paint0_linear_7517_1212)"/>
<g id="london_flatline 2">
<g id="london_flatline">
<path id="Path" d="M64.2012 90.9322L68.9013 86.1016Z" fill="white"/>
<path id="Path_2" d="M64.2009 91.2032C64.131 91.2038 64.0638 91.1763 64.0141 91.1269C63.9094 91.0215 63.9094 90.8508 64.0141 90.7454L68.685 85.9147C68.7894 85.8144 68.954 85.815 69.0576 85.916C69.1613 86.0171 69.1669 86.1824 69.0704 86.2904L64.3702 91.121C64.3252 91.1676 64.2652 91.1967 64.2009 91.2032V91.2032Z" fill="#231F20"/>
<path id="Path_3" d="M68.9013 90.9322L64.2012 86.1016Z" fill="white"/>
<path id="Path_4" d="M68.9006 91.2033C68.8281 91.2026 68.7589 91.1731 68.708 91.1212L64.037 86.2905C63.9871 86.2409 63.959 86.1733 63.959 86.1027C63.959 86.0321 63.9871 85.9645 64.037 85.9149C64.1418 85.8096 64.3117 85.8096 64.4165 85.9149L69.1167 90.7455C69.2183 90.8522 69.2183 91.0204 69.1167 91.127C69.0601 91.1843 68.9805 91.2124 68.9006 91.2033V91.2033Z" fill="#231F20"/>
<path id="Path_5" d="M68.9004 90.9322L73.6006 86.1016Z" fill="white"/>
<path id="Path_6" d="M68.9017 91.2028C68.8317 91.2041 68.7642 91.1765 68.7149 91.1265C68.6133 91.0199 68.6133 90.8517 68.7149 90.745L73.3858 85.9144C73.4352 85.8642 73.5025 85.8359 73.5727 85.8359C73.6429 85.8359 73.7101 85.8642 73.7595 85.9144C73.8109 85.9632 73.8401 86.0311 73.8401 86.1022C73.8401 86.1733 73.8109 86.2412 73.7595 86.29L69.0885 91.1207C69.0391 91.1712 68.9722 91.2006 68.9017 91.2028V91.2028Z" fill="#231F20"/>
<path id="Path_7" d="M73.6006 90.9322L68.9004 86.1016Z" fill="white"/>
<path id="Path_8" d="M73.6005 91.2032C73.528 91.2025 73.4587 91.1729 73.4078 91.121L68.7368 86.2904C68.6403 86.1824 68.6459 86.0171 68.7496 85.916C68.8532 85.815 69.0178 85.8144 69.1222 85.9147L73.7932 90.7454C73.8449 90.7952 73.8742 90.8641 73.8742 90.9361C73.8742 91.0082 73.8449 91.0771 73.7932 91.1269C73.7433 91.1797 73.6728 91.2076 73.6005 91.2032Z" fill="#231F20"/>
<path id="Path_9" d="M73.6016 90.9322L78.2959 86.1016Z" fill="white"/>
<path id="Path_10" d="M73.6013 91.2031C73.531 91.2057 73.463 91.178 73.4144 91.1268C73.3098 91.0214 73.3098 90.8506 73.4144 90.7452L78.1146 85.9146C78.2209 85.8312 78.3722 85.8399 78.4683 85.935C78.5644 86.0301 78.5754 86.1821 78.4941 86.2902L73.794 91.1209C73.7431 91.1728 73.6738 91.2023 73.6013 91.2031V91.2031Z" fill="#231F20"/>
<path id="Path_11" d="M78.2959 90.9322L73.6016 86.1016Z" fill="white"/>
<path id="Path_12" d="M78.3124 91.2031C78.2414 91.2035 78.1735 91.1736 78.1256 91.1209L73.4254 86.2902C73.3441 86.1821 73.3552 86.0301 73.4512 85.935C73.5473 85.8399 73.6987 85.8312 73.8049 85.9146L78.5051 90.7452C78.6098 90.8506 78.6098 91.0214 78.5051 91.1268C78.4544 91.1782 78.3845 91.2059 78.3124 91.2031Z" fill="#231F20"/>
<path id="Path_13" d="M78.2949 90.9322L82.9951 86.1016Z" fill="white"/>
<path id="Path_14" d="M78.3122 91.2032C78.2423 91.2038 78.1751 91.1763 78.1254 91.1269C78.0207 91.0215 78.0207 90.8508 78.1254 90.7454L82.7964 85.9147C82.9007 85.8144 83.0653 85.815 83.169 85.916C83.2726 86.0171 83.2783 86.1824 83.1817 86.2904L78.5107 91.121C78.4584 91.1744 78.3867 91.204 78.3122 91.2032Z" fill="#231F20"/>
<path id="Path_15" d="M82.9951 90.9322L78.2949 86.1016Z" fill="white"/>
<path id="Path_16" d="M82.9846 91.2033C82.9121 91.2026 82.8429 91.1731 82.7919 91.1212L78.121 86.2905C78.0711 86.2409 78.043 86.1733 78.043 86.1027C78.043 86.0321 78.0711 85.9645 78.121 85.9149C78.2258 85.8096 78.3956 85.8096 78.5005 85.9149L83.1715 90.7455C83.273 90.8522 83.273 91.0204 83.1715 91.127C83.1218 91.1764 83.0545 91.2039 82.9846 91.2033Z" fill="#231F20"/>
<path id="Path_17" d="M82.9961 90.9322L87.6963 86.1016Z" fill="white"/>
<path id="Path_18" d="M82.9837 91.2033C82.9137 91.2046 82.8462 91.177 82.7969 91.127C82.6953 91.0204 82.6953 90.8522 82.7969 90.7455L87.497 85.9149C87.6019 85.8096 87.7717 85.8096 87.8766 85.9149C87.9265 85.9645 87.9546 86.0321 87.9546 86.1027C87.9546 86.1733 87.9265 86.2409 87.8766 86.2905L83.2056 91.1212C83.1478 91.1808 83.0662 91.211 82.9837 91.2033V91.2033Z" fill="#231F20"/>
<path id="Path_19" d="M87.6963 90.9322L82.9961 86.1016Z" fill="white"/>
<path id="Path_20" d="M87.6961 91.2032C87.6236 91.2025 87.5543 91.1729 87.5034 91.121L82.8032 86.2904C82.7067 86.1824 82.7123 86.0171 82.816 85.916C82.9196 85.815 83.0842 85.8144 83.1886 85.9147L87.8596 90.7454C87.9642 90.8508 87.9642 91.0215 87.8596 91.1269C87.8157 91.1709 87.7578 91.1979 87.6961 91.2032Z" fill="#231F20"/>
<path id="Path_21" d="M87.6953 90.9322L92.3896 86.1016Z" fill="white"/>
<path id="Path_22" d="M87.695 91.2031C87.625 91.2043 87.5575 91.1767 87.5082 91.1268C87.4035 91.0214 87.4035 90.8506 87.5082 90.7452L92.1792 85.9146C92.2855 85.8312 92.4368 85.8399 92.5329 85.935C92.6289 86.0301 92.64 86.1821 92.5587 86.2902L87.8585 91.1209C87.815 91.1663 87.7573 91.1953 87.695 91.2031V91.2031Z" fill="#231F20"/>
<path id="Path_23" d="M92.3896 90.9322L87.6953 86.1016Z" fill="white"/>
<path id="Path_24" d="M92.3907 91.2031C92.3199 91.2021 92.2525 91.1725 92.2038 91.1209L87.5328 86.2902C87.4515 86.1821 87.4626 86.0301 87.5587 85.935C87.6547 85.8399 87.8061 85.8312 87.9124 85.9146L92.6125 90.7452C92.7172 90.8506 92.7172 91.0214 92.6125 91.1268C92.5551 91.1866 92.4725 91.215 92.3907 91.2031V91.2031Z" fill="#231F20"/>
<path id="Path_25" d="M92.3906 90.9322L97.0908 86.1016Z" fill="white"/>
<path id="Path_26" d="M92.3903 91.2032C92.3205 91.2038 92.2532 91.1763 92.2035 91.1269C92.0988 91.0215 92.0988 90.8508 92.2035 90.7454L96.8745 85.9147C96.9788 85.8144 97.1434 85.815 97.2471 85.916C97.3507 86.0171 97.3564 86.1824 97.2598 86.2904L92.5597 91.121C92.5146 91.1676 92.4547 91.1967 92.3903 91.2032V91.2032Z" fill="#231F20"/>
<path id="Path_27" d="M97.0908 90.9322L92.3906 86.1016Z" fill="white"/>
<path id="Path_28" d="M97.0901 91.2033C97.0176 91.2026 96.9483 91.1731 96.8974 91.1212L92.2265 86.2905C92.1765 86.2409 92.1484 86.1733 92.1484 86.1027C92.1484 86.0321 92.1765 85.9645 92.2265 85.9149C92.3313 85.8096 92.5011 85.8096 92.606 85.9149L97.3061 90.7455C97.4077 90.8522 97.4077 91.0204 97.3061 91.127C97.2495 91.1843 97.1699 91.2124 97.0901 91.2033V91.2033Z" fill="#231F20"/>
<path id="Path_29" d="M103.811 90.9322L108.511 86.1016Z" fill="white"/>
<path id="Path_30" d="M103.81 91.2032C103.74 91.2038 103.673 91.1763 103.623 91.1269C103.519 91.0215 103.519 90.8508 103.623 90.7454L108.294 85.9147C108.399 85.8144 108.563 85.815 108.667 85.916C108.771 86.0171 108.776 86.1824 108.68 86.2904L104.003 91.121C103.952 91.1729 103.883 91.2025 103.81 91.2032Z" fill="#231F20"/>
<path id="Path_31" d="M108.511 90.9322L103.811 86.1016Z" fill="white"/>
<path id="Path_32" d="M108.51 91.2033C108.438 91.2026 108.368 91.1731 108.317 91.1212L103.646 86.2905C103.596 86.2409 103.568 86.1733 103.568 86.1027C103.568 86.0321 103.596 85.9645 103.646 85.9149C103.751 85.8096 103.921 85.8096 104.026 85.9149L108.726 90.7455C108.828 90.8522 108.828 91.0204 108.726 91.127C108.67 91.1851 108.59 91.2134 108.51 91.2033Z" fill="#231F20"/>
<path id="Path_33" d="M108.512 90.9322L113.212 86.1016Z" fill="white"/>
<path id="Path_34" d="M108.511 91.2033C108.441 91.2039 108.374 91.1764 108.324 91.127C108.223 91.0204 108.223 90.8522 108.324 90.7455L113.024 85.9149C113.129 85.8096 113.299 85.8096 113.404 85.9149C113.454 85.9645 113.482 86.0321 113.482 86.1027C113.482 86.1733 113.454 86.2409 113.404 86.2905L108.733 91.1212C108.675 91.1808 108.594 91.211 108.511 91.2033V91.2033Z" fill="#231F20"/>
<path id="Path_35" d="M113.212 90.9322L108.512 86.1016Z" fill="white"/>
<path id="Path_36" d="M113.212 91.2032C113.139 91.2025 113.07 91.1729 113.019 91.121L108.319 86.2904C108.222 86.1824 108.228 86.0171 108.332 85.916C108.435 85.815 108.6 85.8144 108.704 85.9147L113.375 90.7454C113.48 90.8508 113.48 91.0215 113.375 91.1269C113.331 91.1709 113.273 91.1979 113.212 91.2032Z" fill="#231F20"/>
<path id="Path_37" d="M113.211 90.9322L117.905 86.1016Z" fill="white"/>
<path id="Path_38" d="M113.21 91.2031C113.14 91.2043 113.073 91.1767 113.023 91.1268C112.922 91.0201 112.922 90.8519 113.023 90.7452L117.724 85.9146C117.83 85.8312 117.981 85.8399 118.077 85.935C118.173 86.0301 118.184 86.1821 118.103 86.2902L113.432 91.1209C113.376 91.1838 113.293 91.2146 113.21 91.2031V91.2031Z" fill="#231F20"/>
<path id="Path_39" d="M117.905 90.9322L113.211 86.1016Z" fill="white"/>
<path id="Path_40" d="M117.906 91.2028C117.836 91.2006 117.769 91.1712 117.719 91.1207L113.019 86.29C112.918 86.1853 112.918 86.0191 113.019 85.9144C113.068 85.8642 113.136 85.8359 113.206 85.8359C113.276 85.8359 113.343 85.8642 113.393 85.9144L118.064 90.745C118.168 90.8504 118.168 91.0211 118.064 91.1265C118.022 91.1706 117.966 91.1978 117.906 91.2028V91.2028Z" fill="#231F20"/>
<path id="Path_41" d="M117.906 90.9322L122.606 86.1016Z" fill="white"/>
<path id="Path_42" d="M117.905 91.2028C117.836 91.2038 117.771 91.1762 117.724 91.1265C117.672 91.0767 117.643 91.0078 117.643 90.9358C117.643 90.8637 117.672 90.7948 117.724 90.745L122.395 85.9144C122.444 85.8642 122.511 85.8359 122.581 85.8359C122.652 85.8359 122.719 85.8642 122.768 85.9144C122.869 86.0191 122.869 86.1853 122.768 86.29L118.068 91.1207C118.025 91.166 117.967 91.195 117.905 91.2028V91.2028Z" fill="#231F20"/>
<path id="Path_43" d="M122.606 90.9322L117.906 86.1016Z" fill="white"/>
<path id="Path_44" d="M122.606 91.2028C122.535 91.2033 122.467 91.1734 122.42 91.1207L117.749 86.29C117.697 86.2412 117.668 86.1733 117.668 86.1022C117.668 86.0311 117.697 85.9632 117.749 85.9144C117.798 85.8642 117.865 85.8359 117.935 85.8359C118.006 85.8359 118.073 85.8642 118.122 85.9144L122.822 90.745C122.924 90.8517 122.924 91.0199 122.822 91.1265C122.766 91.1846 122.686 91.2129 122.606 91.2028Z" fill="#231F20"/>
<path id="Path_45" d="M122.605 90.9322L127.306 86.1016Z" fill="white"/>
<path id="Path_46" d="M122.605 91.2032C122.535 91.2038 122.468 91.1763 122.418 91.1269C122.314 91.0215 122.314 90.8508 122.418 90.7454L127.089 85.9147C127.194 85.8144 127.358 85.815 127.462 85.916C127.566 86.0171 127.571 86.1824 127.475 86.2904L122.775 91.121C122.729 91.1676 122.669 91.1967 122.605 91.2032V91.2032Z" fill="#231F20"/>
<path id="Path_47" d="M127.306 90.9322L122.605 86.1016Z" fill="white"/>
<path id="Path_48" d="M127.305 91.2033C127.232 91.2026 127.163 91.1731 127.112 91.1212L122.441 86.2905C122.391 86.2409 122.363 86.1733 122.363 86.1027C122.363 86.0321 122.391 85.9645 122.441 85.9149C122.546 85.8096 122.716 85.8096 122.821 85.9149L127.521 90.7455C127.623 90.8522 127.623 91.0204 127.521 91.127C127.464 91.1843 127.385 91.2124 127.305 91.2033V91.2033Z" fill="#231F20"/>
<path id="Path_49" d="M127.305 90.9322L132.005 86.1016Z" fill="white"/>
<path id="Path_50" d="M127.306 91.2028C127.236 91.2041 127.168 91.1765 127.119 91.1265C127.018 91.0199 127.018 90.8517 127.119 90.745L131.79 85.9144C131.839 85.8642 131.907 85.8359 131.977 85.8359C132.047 85.8359 132.114 85.8642 132.164 85.9144C132.215 85.9632 132.244 86.0311 132.244 86.1022C132.244 86.1733 132.215 86.2412 132.164 86.29L127.493 91.1207C127.443 91.1712 127.376 91.2006 127.306 91.2028V91.2028Z" fill="#231F20"/>
<path id="Path_51" d="M132.005 90.9322L127.305 86.1016Z" fill="white"/>
<path id="Path_52" d="M132.028 91.2032C131.956 91.2025 131.886 91.1729 131.836 91.121L127.165 86.2904C127.068 86.1824 127.074 86.0171 127.177 85.916C127.281 85.815 127.446 85.8144 127.55 85.9147L132.221 90.7454C132.273 90.7952 132.302 90.8641 132.302 90.9361C132.302 91.0082 132.273 91.0771 132.221 91.1269C132.171 91.1797 132.1 91.2076 132.028 91.2032V91.2032Z" fill="#231F20"/>
<path id="Path_53" d="M132.006 90.9322L136.7 86.1016Z" fill="white"/>
<path id="Path_54" d="M132.029 91.2028C131.959 91.2041 131.892 91.1765 131.842 91.1265C131.738 91.0211 131.738 90.8504 131.842 90.745L136.542 85.9144C136.592 85.8642 136.659 85.8359 136.729 85.8359C136.799 85.8359 136.867 85.8642 136.916 85.9144C137.017 86.0191 137.017 86.1853 136.916 86.29L132.245 91.1207C132.189 91.1787 132.11 91.2087 132.029 91.2028V91.2028Z" fill="#231F20"/>
<path id="Path_55" d="M136.7 90.9322L132.006 86.1016Z" fill="white"/>
<path id="Path_56" d="M136.699 91.2031C136.628 91.2035 136.56 91.1736 136.512 91.1209L131.812 86.2902C131.731 86.1821 131.742 86.0301 131.838 85.935C131.934 85.8399 132.085 85.8312 132.192 85.9146L136.863 90.7452C136.964 90.8519 136.964 91.0201 136.863 91.1268C136.819 91.1712 136.761 91.1983 136.699 91.2031Z" fill="#231F20"/>
<path id="Path_57" d="M142.113 86.1836H58.8877C58.817 86.1851 58.7487 86.158 58.6981 86.1083C58.6476 86.0586 58.6191 85.9905 58.6191 85.9194C58.6191 85.7703 58.7394 85.6494 58.8877 85.6494H142.113C142.261 85.6494 142.381 85.7703 142.381 85.9194C142.381 85.9905 142.353 86.0586 142.302 86.1083C142.252 86.158 142.183 86.1851 142.113 86.1836V86.1836Z" fill="#231F20"/>
<rect id="Rectangle" x="62.2734" y="132.119" width="76.4462" height="2.67065" fill="white"/>
<path id="Shape" fill-rule="evenodd" clip-rule="evenodd" d="M62.2745 135.043H138.727C138.869 135.043 138.986 134.928 138.989 134.784V132.108C138.989 131.962 138.872 131.844 138.727 131.844H62.2745C62.1294 131.844 62.0117 131.962 62.0117 132.108V134.779C62.0117 134.924 62.1294 135.043 62.2745 135.043ZM138.452 134.526H62.5489V132.39H138.452V134.526Z" fill="#231F20"/>
<path id="Path_58" d="M138.726 134.797V150.645H129.57C129.57 150.645 123.317 136.44 100.499 136.44C77.6818 136.44 71.4285 150.645 71.4285 150.645H62.2734V134.797H138.726Z" fill="white"/>
<path id="Shape_2" fill-rule="evenodd" clip-rule="evenodd" d="M129.571 150.89H138.727C138.875 150.89 138.995 150.769 138.995 150.62V134.772C138.995 134.7 138.967 134.632 138.916 134.581C138.866 134.53 138.798 134.502 138.727 134.502H62.2744C62.2032 134.502 62.1349 134.53 62.0845 134.581C62.0342 134.632 62.0059 134.7 62.0059 134.772V150.62C62.0059 150.691 62.0342 150.76 62.0845 150.811C62.1349 150.861 62.2032 150.89 62.2744 150.89H71.4295C71.5343 150.887 71.6289 150.826 71.6748 150.731C71.7331 150.59 78.1382 136.68 100.5 136.68C122.863 136.68 129.268 150.59 129.326 150.731C129.372 150.826 129.467 150.887 129.571 150.89ZM138.452 150.356H129.741V150.379C128.947 148.8 121.923 136.151 100.506 136.151C79.0899 136.151 72.0601 148.783 71.2661 150.362H62.5489V135.042H138.452V150.356Z" fill="#231F20"/>
<rect id="Rectangle_2" x="59.3496" y="90.9336" width="82.3025" height="2.44761" fill="#231F20"/>
<path id="Shape_3" fill-rule="evenodd" clip-rule="evenodd" d="M59.3251 93.6732H141.651C141.73 93.6733 141.807 93.6408 141.862 93.5832C141.917 93.5256 141.946 93.4479 141.943 93.368V90.9322C141.943 90.7701 141.812 90.6387 141.651 90.6387H59.3251C59.1639 90.6387 59.0332 90.7701 59.0332 90.9322V93.3798C59.0332 93.5418 59.1639 93.6732 59.3251 93.6732ZM141.371 93.0863H59.6404L59.6288 91.2256H141.371V93.0863Z" fill="#231F20"/>
<path id="Path_59" d="M97.1895 84.9337L100.5 82.6387L103.811 84.9337V90.9324H97.1895V84.9337V84.9337Z" fill="#E7816B"/>
<path id="Shape_4" fill-rule="evenodd" clip-rule="evenodd" d="M96.9219 90.9336C96.9219 91.0827 97.0421 91.2036 97.1905 91.2036H103.812C103.96 91.2036 104.08 91.0827 104.08 90.9336V84.9349C104.08 84.8457 104.037 84.7623 103.963 84.7119L100.653 82.4169C100.56 82.3584 100.442 82.3584 100.349 82.4169L97.0386 84.7119C96.9655 84.7623 96.9218 84.8457 96.9219 84.9349V90.9336ZM103.549 85.0758V90.6695H97.4532V85.0758L100.501 82.9627L103.549 85.0758Z" fill="#231F20"/>
<path id="Path_60" d="M97.1894 89.6292C97.1187 89.6308 97.0504 89.6037 96.9998 89.554C96.9493 89.5043 96.9208 89.4362 96.9208 89.3651V83.3312C96.9053 83.2263 96.9523 83.122 97.0409 83.0646C97.1295 83.0071 97.2434 83.0071 97.332 83.0646C97.4207 83.122 97.4676 83.2263 97.4521 83.3312V89.3651C97.4521 89.511 97.3345 89.6292 97.1894 89.6292Z" fill="#231F20"/>
<path id="Path_61" d="M103.811 89.6292C103.665 89.6292 103.548 89.511 103.548 89.3651V83.3312C103.532 83.2263 103.579 83.122 103.668 83.0646C103.756 83.0071 103.87 83.0071 103.959 83.0646C104.048 83.122 104.095 83.2263 104.079 83.3312V89.3651C104.079 89.4362 104.051 89.5043 104 89.554C103.95 89.6037 103.881 89.6308 103.811 89.6292Z" fill="#231F20"/>
<path id="Path_62" d="M100.501 82.9101C100.354 82.907 100.235 82.7879 100.232 82.6401V80.9731C100.232 80.824 100.353 80.7031 100.501 80.7031C100.649 80.7031 100.77 80.824 100.77 80.9731V82.6401C100.766 82.7879 100.648 82.907 100.501 82.9101V82.9101Z" fill="#231F20"/>
<path id="Path_63" d="M10.3203 132.108V116.43C29.0041 113.301 47.688 90.3926 47.688 90.3926L46.6604 94.9063C46.6604 94.9063 27.632 116.524 10.3086 118.537" fill="#231F20"/>
<path id="Shape_5" fill-rule="evenodd" clip-rule="evenodd" d="M10.0293 132.12C10.0293 132.282 10.16 132.414 10.3212 132.414C10.4007 132.414 10.4768 132.381 10.5319 132.324C10.587 132.266 10.6163 132.188 10.6132 132.109V118.802C27.7848 116.619 46.7022 95.324 46.8891 95.1068C46.9247 95.0717 46.9491 95.0268 46.9591 94.9777L47.9809 90.464C48.0075 90.3328 47.9459 90.1996 47.8291 90.1353C47.7057 90.0777 47.559 90.1115 47.4729 90.2175C47.4711 90.2197 47.4676 90.224 47.4623 90.2303C46.923 90.8793 28.4585 113.103 10.2745 116.143C10.133 116.169 10.0299 116.292 10.0293 116.437V118.538V132.12ZM10.6132 118.204V116.677C26.9791 113.79 43.4326 95.776 47.1518 91.4912L46.4045 94.7664C45.3243 95.9755 27.1192 116.055 10.6132 118.204Z" fill="#231F20"/>
<path id="Path_64" d="M15.9723 132.389C15.9016 132.389 15.8339 132.361 15.7845 132.31C15.735 132.259 15.708 132.19 15.7096 132.119V117.246C15.7292 117.114 15.8422 117.016 15.9753 117.016C16.1083 117.016 16.2214 117.114 16.2409 117.246V132.108C16.2459 132.182 16.2196 132.254 16.1685 132.308C16.1174 132.362 16.0462 132.391 15.9723 132.389V132.389Z" fill="#231F20"/>
<path id="Path_65" d="M22.0153 132.39C21.9436 132.392 21.8743 132.364 21.8236 132.313C21.7729 132.262 21.7451 132.192 21.7467 132.12V114.681C21.7663 114.549 21.8793 114.451 22.0124 114.451C22.1455 114.451 22.2585 114.549 22.278 114.681V132.108C22.2829 132.181 22.2574 132.253 22.2076 132.306C22.1578 132.36 22.0881 132.39 22.0153 132.39V132.39Z" fill="#231F20"/>
<path id="Path_66" d="M28.327 132.389C28.2557 132.389 28.1874 132.361 28.137 132.31C28.0867 132.259 28.0584 132.191 28.0584 132.119V110.977C28.0584 110.828 28.1786 110.707 28.327 110.707C28.4753 110.707 28.5955 110.828 28.5955 110.977V132.107C28.5987 132.181 28.5718 132.253 28.5211 132.306C28.4704 132.359 28.4003 132.389 28.327 132.389V132.389Z" fill="#231F20"/>
<path id="Path_67" d="M34.6403 132.389C34.5696 132.389 34.5019 132.36 34.4524 132.309C34.403 132.259 34.376 132.19 34.3776 132.119V106.281C34.3971 106.149 34.5102 106.051 34.6432 106.051C34.7763 106.051 34.8893 106.149 34.9089 106.281V132.107C34.9138 132.181 34.8875 132.254 34.8364 132.308C34.7853 132.361 34.7142 132.391 34.6403 132.389V132.389Z" fill="#231F20"/>
<path id="Path_68" d="M54.7763 53.2856C54.6302 53.2856 54.5109 53.1683 54.5077 53.0214V47.6919C54.5077 47.5428 54.628 47.4219 54.7763 47.4219C54.9246 47.4219 55.0449 47.5428 55.0449 47.6919V53.0214C55.0417 53.1683 54.9224 53.2856 54.7763 53.2856Z" fill="#231F20"/>
<path id="Path_69" d="M54.0298 54.4297H55.5245L62.0055 81.2184H47.5488L54.0298 54.4297V54.4297Z" fill="#231F20"/>
<path id="Shape_6" fill-rule="evenodd" clip-rule="evenodd" d="M47.5542 81.5065H62.0051C62.0978 81.5088 62.1863 81.4676 62.2444 81.395C62.2988 81.3253 62.3181 81.2344 62.297 81.1485L55.8219 54.3656C55.7942 54.2322 55.6772 54.1366 55.5416 54.1367H54.0294C53.8931 54.1382 53.7753 54.2325 53.7433 54.3656L47.2681 81.1485C47.247 81.2344 47.2664 81.3253 47.3207 81.395C47.3776 81.466 47.4636 81.507 47.5542 81.5065ZM61.6314 80.9195H47.9221L54.2571 54.7237H55.2964L61.6314 80.9195Z" fill="#231F20"/>
<rect id="Rectangle_3" x="54.0352" y="52.4219" width="1.48887" height="2.00739" fill="#231F20"/>
<path id="Shape_7" fill-rule="evenodd" clip-rule="evenodd" d="M54.0595 54.7233H55.5425C55.7038 54.7233 55.8345 54.5919 55.8345 54.4298V52.4224C55.8345 52.2603 55.7038 52.1289 55.5425 52.1289H54.0595C53.8983 52.1289 53.7676 52.2603 53.7676 52.4224V54.4298C53.7676 54.5919 53.8983 54.7233 54.0595 54.7233ZM55.274 54.1363H54.3748V52.7159H55.274V54.1363Z" fill="#231F20"/>
<path id="Path_70" d="M57.9356 80.3386V73.9936L54.7769 68.6523L51.6182 73.9936V80.3386H48.582V131.116H60.9718V80.3386H57.9356V80.3386Z" fill="#E7816B"/>
<path id="Shape_8" fill-rule="evenodd" clip-rule="evenodd" d="M48.5889 131.385H60.9728C61.1166 131.382 61.2324 131.266 61.2355 131.121V80.3436C61.2355 80.1977 61.1179 80.0795 60.9728 80.0795H58.1994V73.9986C58.1997 73.9513 58.1876 73.9047 58.1644 73.8636L55.0056 68.5223C54.9547 68.4461 54.8693 68.4004 54.7779 68.4004C54.6866 68.4004 54.6012 68.4461 54.5502 68.5223L51.3915 73.8636C51.3682 73.9047 51.3562 73.9513 51.3564 73.9986V80.0736H48.5889C48.5182 80.072 48.4499 80.0992 48.3993 80.1489C48.3488 80.1986 48.3203 80.2667 48.3203 80.3377V131.115C48.3203 131.264 48.4406 131.385 48.5889 131.385ZM60.7042 130.845H48.8516L48.7932 80.6077H51.5608C51.7091 80.6077 51.8294 80.4869 51.8294 80.3377V74.0632L54.7487 69.1738L57.6681 74.0632V80.3377C57.6712 80.4855 57.7896 80.6046 57.9367 80.6077H60.7042V130.845Z" fill="#231F20"/>
<path id="Path_71" d="M60.9713 85.2578H48.5874C48.4831 85.2734 48.3793 85.2262 48.3222 85.1371C48.265 85.048 48.265 84.9335 48.3222 84.8444C48.3793 84.7553 48.4831 84.7081 48.5874 84.7237H60.9713C61.1029 84.7434 61.2004 84.857 61.2004 84.9907C61.2004 85.1245 61.1029 85.2381 60.9713 85.2578V85.2578Z" fill="#231F20"/>
<path id="Path_72" d="M52.5868 94.9354H50.6309V88.5728C50.6309 88.0269 51.6118 87.1465 51.6118 87.1465C51.6118 87.1465 52.5868 88.0269 52.5868 88.5728V94.9354Z" fill="#231F20"/>
<path id="Path_73" d="M55.7587 94.9354H53.791V88.5728C53.791 88.0269 54.7719 87.1465 54.7719 87.1465C54.7719 87.1465 55.7528 88.0269 55.7528 88.5728L55.7587 94.9354Z" fill="#231F20"/>
<path id="Path_74" d="M58.9228 94.9354H56.9668V88.5728C56.9668 88.0269 57.9419 87.1465 57.9419 87.1465C57.9419 87.1465 58.9228 88.0269 58.9228 88.5728V94.9354Z" fill="#231F20"/>
<path id="Path_75" d="M52.5868 106.869H50.6309V100.477C50.6309 99.9371 51.6118 99.0508 51.6118 99.0508C51.6118 99.0508 52.5868 99.9371 52.5868 100.477V106.869Z" fill="#231F20"/>
<path id="Path_76" d="M55.7587 106.869H53.791V100.477C53.791 99.9371 54.7719 99.0508 54.7719 99.0508C54.7719 99.0508 55.7528 99.9371 55.7528 100.477L55.7587 106.869Z" fill="#231F20"/>
<path id="Path_77" d="M58.9228 106.869H56.9668V100.477C56.9668 99.9371 57.9419 99.0508 57.9419 99.0508C57.9419 99.0508 58.9228 99.9371 58.9228 100.477V106.869Z" fill="#231F20"/>
<path id="Path_78" d="M52.5868 118.754H50.6309V112.385C50.6309 111.839 51.6118 110.959 51.6118 110.959C51.6118 110.959 52.5868 111.839 52.5868 112.385V118.754Z" fill="#231F20"/>
<path id="Path_79" d="M55.7587 118.754H53.791V112.385C53.791 111.839 54.7719 110.959 54.7719 110.959C54.7719 110.959 55.7528 111.839 55.7528 112.385L55.7587 118.754Z" fill="#231F20"/>
<path id="Path_80" d="M58.9228 118.754H56.9668V112.385C56.9668 111.839 57.9419 110.959 57.9419 110.959C57.9419 110.959 58.9228 111.839 58.9228 112.385V118.754Z" fill="#231F20"/>
<path id="Path_81" d="M60.5287 122.271H49.0264C48.8803 122.272 48.761 122.154 48.7578 122.007C48.7609 121.86 48.8794 121.74 49.0264 121.737H60.5287C60.6757 121.74 60.7941 121.86 60.7972 122.007C60.7941 122.154 60.6747 122.272 60.5287 122.271V122.271Z" fill="#231F20"/>
<path id="Path_82" d="M46.5267 60.6113L49.481 71.922H43.5723L46.5267 60.6113V60.6113Z" fill="#231F20"/>
<path id="Shape_9" fill-rule="evenodd" clip-rule="evenodd" d="M43.572 72.2378H49.4808C49.5664 72.2325 49.6455 72.1895 49.6968 72.1204C49.7538 72.0497 49.7734 71.9557 49.7493 71.868L46.795 60.5573C46.7577 60.4263 46.6386 60.3359 46.503 60.3359C46.3675 60.3359 46.2483 60.4263 46.2111 60.5573L43.2917 71.868C43.2679 71.9549 43.2852 72.0479 43.3384 72.1204C43.3947 72.1929 43.4805 72.236 43.572 72.2378ZM49.1188 71.6508H43.9515L46.5439 61.7841L49.1188 71.6508Z" fill="#231F20"/>
<path id="Path_83" d="M44.6348 71.9219L44.7574 90.7749L45.8842 93.7919V131.116H49.5101V93.4104L48.6284 91.4323V71.9219H44.6348V71.9219Z" fill="#E7816B"/>
<path id="Shape_10" fill-rule="evenodd" clip-rule="evenodd" d="M45.8853 131.387H49.5112C49.6559 131.381 49.7709 131.263 49.7739 131.117V93.4108C49.7799 93.3759 49.7799 93.3401 49.7739 93.3052L48.9156 91.3741V71.9223C48.9156 71.7732 48.7954 71.6523 48.647 71.6523H44.6533C44.5836 71.6524 44.5166 71.6798 44.4665 71.7286C44.4149 71.7798 44.3855 71.8495 44.3848 71.9223L44.5132 90.7754C44.5076 90.8064 44.5076 90.8382 44.5132 90.8693L45.6167 93.8393V131.117C45.6198 131.265 45.7383 131.384 45.8853 131.387ZM49.2426 130.847H46.1539L46.1597 93.7865C46.1647 93.7554 46.1647 93.7237 46.1597 93.6926L45.0504 90.7226L44.9278 72.1865H48.3843V91.4328C48.3788 91.4698 48.3788 91.5073 48.3843 91.5443L49.2426 93.4695V130.847Z" fill="#231F20"/>
<path id="Path_84" d="M48.6282 84.4414H44.7163C44.612 84.457 44.5082 84.4098 44.4511 84.3207C44.3939 84.2316 44.3939 84.1171 44.4511 84.028C44.5082 83.9389 44.612 83.8917 44.7163 83.9073H48.6282C48.7325 83.8917 48.8363 83.9389 48.8934 84.028C48.9506 84.1171 48.9506 84.2316 48.8934 84.3207C48.8363 84.4098 48.7325 84.457 48.6282 84.4414V84.4414Z" fill="#231F20"/>
<path id="Path_85" d="M49.5101 94.0547H45.8842C45.7799 94.0703 45.6762 94.023 45.619 93.934C45.5619 93.8449 45.5619 93.7304 45.619 93.6413C45.6762 93.5522 45.7799 93.505 45.8842 93.5206H49.5101C49.6144 93.505 49.7181 93.5522 49.7753 93.6413C49.8324 93.7304 49.8324 93.8449 49.7753 93.934C49.7181 94.023 49.6144 94.0703 49.5101 94.0547V94.0547Z" fill="#231F20"/>
<path id="Path_86" d="M63.0267 60.6113L60.0723 71.922H65.981L63.0267 60.6113V60.6113Z" fill="#231F20"/>
<path id="Shape_11" fill-rule="evenodd" clip-rule="evenodd" d="M59.8458 72.1204C59.8997 72.1926 59.9837 72.2359 60.0735 72.2378H65.9823C66.0799 72.2415 66.1733 72.1978 66.2334 72.1204C66.2879 72.0485 66.3072 71.9558 66.2859 71.868L63.3315 60.5573C63.2943 60.4263 63.1752 60.3359 63.0396 60.3359C62.904 60.3359 62.7849 60.4263 62.7477 60.5573L59.7933 71.868C59.7692 71.9557 59.7888 72.0497 59.8458 72.1204ZM63.0279 61.7841L65.6028 71.6508H60.4531L63.0279 61.7841Z" fill="#231F20"/>
<path id="Path_87" d="M64.9183 71.9219L64.7957 90.7749L63.6688 93.7919V131.116H60.043V93.4104L60.9246 91.4323V71.9219H64.9183V71.9219Z" fill="#E7816B"/>
<path id="Shape_12" fill-rule="evenodd" clip-rule="evenodd" d="M60.0446 131.385H63.6704C63.8129 131.376 63.9246 131.259 63.9273 131.115V93.8376L65.0367 90.8676C65.0395 90.8364 65.0395 90.805 65.0367 90.7737L65.1651 71.9207C65.1685 71.8481 65.1413 71.7774 65.0901 71.726C65.039 71.6746 64.9687 71.6473 64.8965 71.6507H60.9028C60.7545 71.6507 60.6343 71.7716 60.6343 71.9207V91.3724L59.776 93.3035C59.77 93.3385 59.77 93.3742 59.776 93.4091V131.115C59.7791 131.263 59.8975 131.382 60.0446 131.385ZM63.4018 130.845H60.3131L60.319 93.4678L61.1773 91.5426C61.1855 91.5059 61.1855 91.4678 61.1773 91.4311V72.1848H64.6338L64.5112 90.7209L63.4018 93.6909C63.3968 93.722 63.3968 93.7537 63.4018 93.7848V130.845Z" fill="#231F20"/>
<path id="Path_88" d="M64.8372 84.4414H60.9253C60.8209 84.457 60.7172 84.4098 60.6601 84.3207C60.6029 84.2316 60.6029 84.1171 60.6601 84.028C60.7172 83.9389 60.8209 83.8917 60.9253 83.9073H64.8372C64.9415 83.8917 65.0452 83.9389 65.1024 84.028C65.1596 84.1171 65.1596 84.2316 65.1024 84.3207C65.0452 84.4098 64.9415 84.457 64.8372 84.4414V84.4414Z" fill="#231F20"/>
<path id="Path_89" d="M63.6702 94.0547H60.0444C59.9401 94.0703 59.8364 94.023 59.7792 93.934C59.722 93.8449 59.722 93.7304 59.7792 93.6413C59.8364 93.5522 59.9401 93.505 60.0444 93.5206H63.6702C63.7746 93.505 63.8783 93.5522 63.9354 93.6413C63.9926 93.7304 63.9926 93.8449 63.9354 93.934C63.8783 94.023 63.7746 94.0703 63.6702 94.0547Z" fill="#231F20"/>
<path id="Path_90" d="M46.5263 61.3454C46.378 61.3454 46.2577 61.2245 46.2577 61.0754V58.4399C46.2577 58.2908 46.378 58.1699 46.5263 58.1699C46.6746 58.1699 46.7949 58.2908 46.7949 58.4399V61.0871C46.7886 61.2316 46.6702 61.3455 46.5263 61.3454Z" fill="#231F20"/>
<path id="Path_91" d="M63.0273 61.344C62.9566 61.3441 62.8889 61.3154 62.8394 61.2646C62.79 61.2138 62.763 61.1451 62.7646 61.074V58.4386C62.749 58.3337 62.796 58.2295 62.8847 58.172C62.9733 58.1145 63.0872 58.1145 63.1758 58.172C63.2644 58.2295 63.3114 58.3337 63.2959 58.4386V61.0858C63.2943 61.1558 63.2652 61.2224 63.2148 61.2708C63.1644 61.3193 63.097 61.3456 63.0273 61.344Z" fill="#231F20"/>
<rect id="Rectangle_4" x="41.8262" y="131.115" width="25.8772" height="19.5339" fill="#E7816B"/>
<path id="Shape_13" fill-rule="evenodd" clip-rule="evenodd" d="M41.8272 150.89H67.7102C67.8478 150.891 67.9638 150.787 67.9788 150.65V131.116C67.9757 130.968 67.8572 130.849 67.7102 130.846H41.8272C41.6811 130.849 41.5644 130.969 41.5645 131.116V150.626C41.5645 150.772 41.6821 150.89 41.8272 150.89ZM67.4591 150.38H42.1133V131.386H67.4591V150.38Z" fill="#231F20"/>
<path id="Path_92" d="M55.7587 81.2127H53.791V74.8501C53.791 74.3043 54.7719 73.4238 54.7719 73.4238C54.7719 73.4238 55.7528 74.3043 55.7528 74.8501L55.7587 81.2127Z" fill="#231F20"/>
<path id="Shape_14" fill-rule="evenodd" clip-rule="evenodd" d="M53.79 81.5074H55.7576C55.9166 81.5042 56.0438 81.3737 56.0437 81.2139V74.8513C56.0437 74.2056 55.1446 73.3663 54.9636 73.2078C54.8544 73.1078 54.6874 73.1078 54.5782 73.2078C54.3972 73.3663 53.498 74.2056 53.498 74.8513V81.2139C53.498 81.376 53.6288 81.5074 53.79 81.5074ZM55.4657 80.9204H54.0878V74.8513C54.2206 74.4541 54.4588 74.101 54.7767 73.83C55.0946 74.101 55.3328 74.4541 55.4657 74.8513V80.9204Z" fill="#231F20"/>
<rect id="Rectangle_5" x="10.3203" y="132.119" width="31.5057" height="2.67065" fill="white"/>
<path id="Shape_15" fill-rule="evenodd" clip-rule="evenodd" d="M10.2979 135.043H41.8269C41.8966 135.044 41.9641 135.018 42.0144 134.97C42.0648 134.921 42.094 134.855 42.0955 134.784V132.108C42.0955 132.037 42.067 131.969 42.0165 131.919C41.966 131.869 41.8976 131.842 41.8269 131.844H10.2979C10.2282 131.844 10.1614 131.872 10.1121 131.921C10.0628 131.971 10.0352 132.038 10.0352 132.108V134.779C10.0352 134.924 10.1528 135.043 10.2979 135.043ZM41.5642 134.526H10.584V132.39H41.5642V134.526Z" fill="#231F20"/>
<rect id="Rectangle_6" x="10.3203" y="134.797" width="31.5057" height="15.8537" fill="white"/>
<path id="Shape_16" fill-rule="evenodd" clip-rule="evenodd" d="M10.298 150.89H41.827C41.8977 150.891 41.966 150.864 42.0166 150.815C42.0671 150.765 42.0956 150.697 42.0956 150.626V134.778C42.0972 134.706 42.0694 134.636 42.0187 134.585C41.968 134.534 41.8987 134.506 41.827 134.508H10.298C10.2273 134.508 10.1595 134.536 10.1101 134.587C10.0606 134.638 10.0336 134.707 10.0352 134.778V150.626C10.0352 150.772 10.1529 150.89 10.298 150.89ZM41.5643 150.379H10.5841V135.042H41.5643V150.379Z" fill="#231F20"/>
<path id="Path_93" d="M40.9452 132.39C40.8735 132.392 40.8043 132.364 40.7536 132.313C40.7028 132.262 40.6751 132.192 40.6767 132.12V100.724C40.6612 100.619 40.7081 100.515 40.7968 100.457C40.8854 100.4 40.9993 100.4 41.0879 100.457C41.1765 100.515 41.2235 100.619 41.208 100.724V132.108C41.2128 132.181 41.1873 132.253 41.1375 132.307C41.0877 132.36 41.0181 132.39 40.9452 132.39V132.39Z" fill="#231F20"/>
<path id="Path_94" d="M190.678 132.108V116.43C171.994 113.301 153.311 90.3926 153.311 90.3926L154.338 94.9063C154.338 94.9063 173.367 116.524 190.69 118.537" fill="#231F20"/>
<path id="Shape_17" fill-rule="evenodd" clip-rule="evenodd" d="M190.388 132.12C190.388 132.282 190.518 132.414 190.68 132.414C190.764 132.422 190.848 132.394 190.91 132.335C190.971 132.277 191.005 132.194 191.001 132.109V118.509V116.408C191 116.263 190.897 116.14 190.755 116.114C172.571 113.074 154.107 90.8499 153.568 90.201C153.562 90.1947 153.559 90.1904 153.557 90.1882C153.471 90.0822 153.324 90.0484 153.201 90.106C153.084 90.1703 153.023 90.3035 153.049 90.4347L154.042 94.9719C154.052 95.021 154.076 95.0659 154.112 95.101C154.299 95.3182 173.216 116.613 190.388 118.796V132.12ZM190.388 118.204C173.864 116.055 155.677 95.9756 154.596 94.7665L153.849 91.4912C157.568 95.776 174.039 113.79 190.388 116.678V118.204Z" fill="#231F20"/>
<path id="Path_95" d="M185.027 132.389C184.955 132.391 184.886 132.363 184.835 132.312C184.785 132.261 184.757 132.191 184.758 132.119V117.246C184.778 117.114 184.891 117.016 185.024 117.016C185.157 117.016 185.27 117.114 185.29 117.246V132.108C185.295 132.181 185.269 132.253 185.219 132.306C185.169 132.359 185.1 132.39 185.027 132.389V132.389Z" fill="#231F20"/>
<path id="Path_96" d="M178.984 132.39C178.915 132.385 178.85 132.353 178.804 132.3C178.758 132.247 178.734 132.178 178.739 132.108V114.681C178.759 114.549 178.872 114.451 179.005 114.451C179.138 114.451 179.251 114.549 179.27 114.681V132.108C179.276 132.186 179.247 132.261 179.192 132.316C179.137 132.37 179.061 132.397 178.984 132.39V132.39Z" fill="#231F20"/>
<path id="Path_97" d="M172.673 132.389C172.601 132.389 172.533 132.361 172.483 132.31C172.432 132.259 172.404 132.191 172.404 132.119V110.977C172.404 110.828 172.524 110.707 172.673 110.707C172.821 110.707 172.941 110.828 172.941 110.977V132.107C172.944 132.181 172.918 132.253 172.867 132.306C172.816 132.359 172.746 132.389 172.673 132.389V132.389Z" fill="#231F20"/>
<path id="Path_98" d="M166.361 132.389C166.289 132.391 166.22 132.363 166.169 132.312C166.119 132.261 166.091 132.191 166.092 132.119V106.281C166.112 106.149 166.225 106.051 166.358 106.051C166.491 106.051 166.604 106.149 166.624 106.281V132.107C166.629 132.18 166.603 132.252 166.553 132.305C166.503 132.359 166.434 132.389 166.361 132.389V132.389Z" fill="#231F20"/>
<path id="Path_99" d="M146.224 53.2856C146.077 53.2856 145.958 53.1683 145.955 53.0214V47.6919C145.955 47.5428 146.075 47.4219 146.224 47.4219C146.372 47.4219 146.492 47.5428 146.492 47.6919V53.0214C146.489 53.1683 146.37 53.2856 146.224 53.2856Z" fill="#231F20"/>
<path id="Path_100" d="M146.97 54.4297H145.469L138.994 81.2184H153.451L146.97 54.4297V54.4297Z" fill="#231F20"/>
<path id="Shape_18" fill-rule="evenodd" clip-rule="evenodd" d="M138.996 81.5065H153.446C153.537 81.507 153.623 81.466 153.68 81.395C153.734 81.3253 153.754 81.2344 153.733 81.1485L147.257 54.3656C147.225 54.2325 147.108 54.1382 146.971 54.1367H145.471C145.335 54.1366 145.218 54.2322 145.191 54.3656L138.715 81.1485C138.694 81.2344 138.714 81.3253 138.768 81.395C138.824 81.4644 138.907 81.5053 138.996 81.5065ZM153.079 80.9195H139.369L145.704 54.7237H146.744L153.079 80.9195Z" fill="#231F20"/>
<rect id="Rectangle_7" x="146.965" y="54.4355" width="1.48887" height="2.00739" transform="rotate(-180 146.965 54.4355)" fill="#231F20"/>
<path id="Shape_19" fill-rule="evenodd" clip-rule="evenodd" d="M145.458 54.7233H146.964C147.116 54.711 147.233 54.5831 147.233 54.4298V52.4224C147.233 52.2603 147.102 52.1289 146.941 52.1289H145.458C145.297 52.1289 145.166 52.2603 145.166 52.4224V54.4298C145.166 54.5919 145.297 54.7233 145.458 54.7233ZM146.696 54.1363H145.797V52.7159H146.696V54.1363Z" fill="#231F20"/>
<path id="Path_101" d="M143.063 80.3386V73.9936L146.222 68.6523L149.381 73.9936V80.3386H152.417V131.116H140.027V80.3386H143.063V80.3386Z" fill="#E7816B"/>
<path id="Shape_20" fill-rule="evenodd" clip-rule="evenodd" d="M140.028 131.385H152.412C152.558 131.385 152.678 131.268 152.681 131.121V80.3436C152.681 80.2725 152.652 80.2044 152.602 80.1547C152.551 80.105 152.483 80.0779 152.412 80.0795H149.645V73.9986C149.645 73.9513 149.633 73.9047 149.61 73.8636L146.451 68.5223C146.4 68.4461 146.315 68.4004 146.223 68.4004C146.132 68.4004 146.047 68.4461 145.996 68.5223L142.837 73.8636C142.814 73.9047 142.801 73.9513 142.802 73.9986V80.0736H140.028C139.883 80.0736 139.766 80.1919 139.766 80.3377V131.115C139.766 131.262 139.882 131.382 140.028 131.385ZM152.15 130.845H140.297V80.6077H143.064C143.212 80.6046 143.33 80.4855 143.333 80.3377V74.0632L146.223 69.1738L149.113 74.0632V80.3377C149.113 80.4869 149.234 80.6077 149.382 80.6077H152.15V130.845Z" fill="#231F20"/>
<path id="Path_102" d="M152.412 85.2578H140.028C139.896 85.2381 139.799 85.1245 139.799 84.9907C139.799 84.857 139.896 84.7434 140.028 84.7237H152.412C152.516 84.7081 152.62 84.7553 152.677 84.8444C152.734 84.9335 152.734 85.048 152.677 85.1371C152.62 85.2262 152.516 85.2734 152.412 85.2578V85.2578Z" fill="#231F20"/>
<path id="Path_103" d="M148.412 94.9354H150.368V88.5728C150.368 88.0269 149.387 87.1465 149.387 87.1465C149.387 87.1465 148.412 88.0269 148.412 88.5728V94.9354Z" fill="#231F20"/>
<path id="Path_104" d="M145.242 94.9354H147.21V88.5728C147.21 88.0269 146.229 87.1465 146.229 87.1465C146.229 87.1465 145.248 88.0269 145.248 88.5728L145.242 94.9354Z" fill="#231F20"/>
<path id="Path_105" d="M142.078 94.9354H144.034V88.5728C144.034 88.0269 143.059 87.1465 143.059 87.1465C143.059 87.1465 142.078 88.0269 142.078 88.5728V94.9354Z" fill="#231F20"/>
<path id="Path_106" d="M148.412 106.869H150.368V100.477C150.368 99.9371 149.387 99.0508 149.387 99.0508C149.387 99.0508 148.412 99.9371 148.412 100.477V106.869Z" fill="#231F20"/>
<path id="Path_107" d="M145.242 106.869H147.21V100.477C147.21 99.9371 146.229 99.0508 146.229 99.0508C146.229 99.0508 145.248 99.9371 145.248 100.477L145.242 106.869Z" fill="#231F20"/>
<path id="Path_108" d="M142.078 106.869H144.034V100.477C144.034 99.9371 143.059 99.0508 143.059 99.0508C143.059 99.0508 142.078 99.9371 142.078 100.477V106.869Z" fill="#231F20"/>
<path id="Path_109" d="M148.412 118.754H150.368V112.385C150.368 111.839 149.387 110.959 149.387 110.959C149.387 110.959 148.412 111.839 148.412 112.385V118.754Z" fill="#231F20"/>
<path id="Path_110" d="M145.242 118.754H147.21V112.385C147.21 111.839 146.229 110.959 146.229 110.959C146.229 110.959 145.248 111.839 145.248 112.385L145.242 118.754Z" fill="#231F20"/>
<path id="Path_111" d="M142.078 118.754H144.034V112.385C144.034 111.839 143.059 110.959 143.059 110.959C143.059 110.959 142.078 111.839 142.078 112.385V118.754Z" fill="#231F20"/>
<path id="Path_112" d="M151.489 97.4766H140.98C140.832 97.4734 140.714 97.3544 140.711 97.2066C140.714 97.0597 140.833 96.9424 140.98 96.9424H151.489C151.635 96.9424 151.755 97.0597 151.758 97.2066C151.755 97.3544 151.636 97.4734 151.489 97.4766V97.4766Z" fill="#231F20"/>
<path id="Path_113" d="M151.49 109.609H140.98C140.876 109.625 140.772 109.578 140.715 109.489C140.658 109.4 140.658 109.285 140.715 109.196C140.772 109.107 140.876 109.06 140.98 109.075H151.49C151.594 109.06 151.698 109.107 151.755 109.196C151.812 109.285 151.812 109.4 151.755 109.489C151.698 109.578 151.594 109.625 151.49 109.609Z" fill="#231F20"/>
<path id="Path_114" d="M151.974 122.271H140.472C140.326 122.272 140.206 122.154 140.203 122.007C140.206 121.86 140.325 121.74 140.472 121.737H151.974C152.121 121.74 152.239 121.86 152.243 122.007C152.239 122.154 152.12 122.272 151.974 122.271V122.271Z" fill="#231F20"/>
<path id="Path_115" d="M154.474 60.6113L151.52 71.922H157.428L154.474 60.6113V60.6113Z" fill="#231F20"/>
<path id="Shape_21" fill-rule="evenodd" clip-rule="evenodd" d="M151.519 72.2378H157.428C157.527 72.2342 157.619 72.1816 157.673 72.0969C157.726 72.0245 157.743 71.9314 157.72 71.8445L154.8 60.5339C154.763 60.4028 154.644 60.3125 154.508 60.3125C154.373 60.3125 154.254 60.4028 154.216 60.5339L151.239 71.868C151.215 71.9557 151.234 72.0497 151.291 72.1204C151.345 72.1927 151.429 72.236 151.519 72.2378ZM157.031 71.6508H151.881L154.456 61.7841L157.031 71.6508Z" fill="#231F20"/>
<path id="Path_116" d="M156.366 71.9219L156.243 90.7749L155.116 93.7919V131.116H151.49V93.4104L152.372 91.4323V71.9219H156.366V71.9219Z" fill="#E7816B"/>
<path id="Shape_22" fill-rule="evenodd" clip-rule="evenodd" d="M151.49 131.387H155.116C155.263 131.384 155.381 131.265 155.384 131.117V93.8393L156.482 90.8693C156.488 90.8382 156.488 90.8064 156.482 90.7754L156.61 71.9223C156.61 71.8495 156.58 71.7798 156.529 71.7286C156.479 71.6798 156.412 71.6524 156.342 71.6523H152.348C152.2 71.6523 152.08 71.7732 152.08 71.9223V91.3741L151.221 93.3052C151.215 93.3401 151.215 93.3759 151.221 93.4108V131.117C151.224 131.265 151.343 131.384 151.49 131.387ZM154.847 130.847H151.758L151.782 93.4695L152.64 91.5443C152.646 91.5073 152.646 91.4698 152.64 91.4328V72.1865H156.079L155.956 90.7226L154.847 93.6926C154.842 93.7237 154.842 93.7554 154.847 93.7865V130.847Z" fill="#231F20"/>
<path id="Path_117" d="M156.283 84.4414H152.371C152.266 84.457 152.163 84.4098 152.105 84.3207C152.048 84.2316 152.048 84.1171 152.105 84.028C152.163 83.9389 152.266 83.8917 152.371 83.9073H156.283C156.387 83.8917 156.491 83.9389 156.548 84.028C156.605 84.1171 156.605 84.2316 156.548 84.3207C156.491 84.4098 156.387 84.457 156.283 84.4414V84.4414Z" fill="#231F20"/>
<path id="Path_118" d="M155.116 94.0547H151.49C151.385 94.0703 151.282 94.023 151.225 93.934C151.167 93.8449 151.167 93.7304 151.225 93.6413C151.282 93.5522 151.385 93.505 151.49 93.5206H155.116C155.22 93.505 155.324 93.5522 155.381 93.6413C155.438 93.7304 155.438 93.8449 155.381 93.934C155.324 94.023 155.22 94.0703 155.116 94.0547Z" fill="#231F20"/>
<path id="Path_119" d="M137.974 60.6113L140.928 71.922H135.02L137.974 60.6113V60.6113Z" fill="#231F20"/>
<path id="Shape_23" fill-rule="evenodd" clip-rule="evenodd" d="M134.786 72.1204C134.842 72.1929 134.928 72.236 135.019 72.2378H140.928C141.024 72.2416 141.116 72.1977 141.173 72.1204C141.23 72.0497 141.25 71.9557 141.226 71.868L138.271 60.5573C138.234 60.4263 138.115 60.3359 137.979 60.3359C137.844 60.3359 137.725 60.4263 137.687 60.5573L134.733 71.868C134.712 71.9558 134.731 72.0485 134.786 72.1204ZM137.974 61.7841L140.548 71.6508H135.399L137.974 61.7841Z" fill="#231F20"/>
<path id="Path_120" d="M136.082 71.9219L136.205 90.7749L137.332 93.7919V131.116H140.957V93.4104L140.076 91.4323V71.9219H136.082V71.9219Z" fill="#E7816B"/>
<path id="Shape_24" fill-rule="evenodd" clip-rule="evenodd" d="M137.331 131.385H140.957C141.099 131.376 141.211 131.259 141.214 131.115V93.4091C141.22 93.3742 141.22 93.3385 141.214 93.3035L140.355 91.3724V71.9207C140.355 71.7716 140.235 71.6507 140.087 71.6507H136.093C136.021 71.6473 135.951 71.6746 135.899 71.726C135.848 71.7774 135.821 71.8481 135.824 71.9207L135.953 90.7737C135.95 90.805 135.95 90.8364 135.953 90.8676L137.062 93.8376V131.115C137.065 131.263 137.184 131.382 137.331 131.385ZM140.688 130.845H137.599L137.582 93.7848C137.587 93.7537 137.587 93.722 137.582 93.6909L136.473 90.7209L136.35 72.1848H139.83V91.4311C139.822 91.4678 139.822 91.5059 139.83 91.5426L140.688 93.4678V130.845Z" fill="#231F20"/>
<path id="Path_121" d="M140.075 84.4414H136.164C136.059 84.457 135.955 84.4098 135.898 84.3207C135.841 84.2316 135.841 84.1171 135.898 84.028C135.955 83.9389 136.059 83.8917 136.164 83.9073H140.075C140.18 83.8917 140.284 83.9389 140.341 84.028C140.398 84.1171 140.398 84.2316 140.341 84.3207C140.284 84.4098 140.18 84.457 140.075 84.4414V84.4414Z" fill="#231F20"/>
<path id="Path_122" d="M140.957 94.0547H137.332C137.227 94.0703 137.123 94.023 137.066 93.934C137.009 93.8449 137.009 93.7304 137.066 93.6413C137.123 93.5522 137.227 93.505 137.332 93.5206H140.957C141.062 93.505 141.165 93.5522 141.223 93.6413C141.28 93.7304 141.28 93.8449 141.223 93.934C141.165 94.023 141.062 94.0703 140.957 94.0547Z" fill="#231F20"/>
<path id="Path_123" d="M154.474 61.3454C154.334 61.3394 154.223 61.2272 154.217 61.0871V58.4399C154.217 58.2908 154.337 58.1699 154.485 58.1699C154.634 58.1699 154.754 58.2908 154.754 58.4399V61.0871C154.751 61.1587 154.72 61.2262 154.667 61.2747C154.614 61.3231 154.545 61.3485 154.474 61.3454Z" fill="#231F20"/>
<path id="Path_124" d="M137.973 61.344C137.901 61.3457 137.832 61.3177 137.781 61.2667C137.73 61.2158 137.702 61.1461 137.704 61.074V58.4386C137.689 58.3337 137.735 58.2295 137.824 58.172C137.913 58.1145 138.027 58.1145 138.115 58.172C138.204 58.2295 138.251 58.3337 138.235 58.4386V61.0858C138.232 61.2294 138.115 61.3441 137.973 61.344Z" fill="#231F20"/>
<rect id="Rectangle_8" x="133.291" y="131.115" width="25.8772" height="19.5339" fill="#E7816B"/>
<path id="Shape_25" fill-rule="evenodd" clip-rule="evenodd" d="M133.29 150.89H159.173C159.31 150.891 159.424 150.786 159.436 150.65V131.116C159.436 130.969 159.319 130.849 159.173 130.846H133.29C133.143 130.849 133.025 130.968 133.021 131.116V150.626C133.025 150.773 133.144 150.89 133.29 150.89ZM158.887 150.356H133.559V131.386H158.887V150.356Z" fill="#231F20"/>
<path id="Path_125" d="M145.242 81.2127H147.21V74.8501C147.21 74.3043 146.229 73.4238 146.229 73.4238C146.229 73.4238 145.248 74.3043 145.248 74.8501L145.242 81.2127Z" fill="#231F20"/>
<rect id="Rectangle_9" x="190.674" y="134.797" width="31.5057" height="2.67065" transform="rotate(-180 190.674 134.797)" fill="white"/>
<path id="Shape_26" fill-rule="evenodd" clip-rule="evenodd" d="M159.149 135.043H190.678C190.821 135.043 190.938 134.928 190.941 134.784V132.108C190.941 131.962 190.824 131.844 190.678 131.844H159.149C159.079 131.842 159.01 131.869 158.96 131.919C158.909 131.969 158.881 132.037 158.881 132.108V134.779C158.881 134.85 158.909 134.918 158.96 134.967C159.01 135.017 159.079 135.044 159.149 135.043ZM190.416 134.509H159.436V132.372H190.416V134.509Z" fill="#231F20"/>
<rect id="Rectangle_10" x="190.674" y="150.645" width="31.5057" height="15.8537" transform="rotate(-180 190.674 150.645)" fill="white"/>
<path id="Shape_27" fill-rule="evenodd" clip-rule="evenodd" d="M159.15 150.89H190.679C190.824 150.89 190.941 150.772 190.941 150.626V134.778C190.943 134.707 190.916 134.638 190.866 134.587C190.817 134.536 190.749 134.508 190.679 134.508H159.15C159.078 134.506 159.009 134.534 158.958 134.585C158.907 134.636 158.879 134.706 158.881 134.778V150.626C158.881 150.697 158.909 150.765 158.96 150.815C159.01 150.864 159.079 150.891 159.15 150.89ZM190.416 150.356H159.436V135.042H190.416V150.356Z" fill="#231F20"/>
<path id="Path_126" d="M160.055 132.39C159.984 132.39 159.916 132.361 159.867 132.311C159.817 132.26 159.79 132.191 159.792 132.12V100.724C159.776 100.619 159.823 100.515 159.912 100.457C160.001 100.4 160.114 100.4 160.203 100.457C160.292 100.515 160.339 100.619 160.323 100.724V132.108C160.328 132.182 160.302 132.255 160.251 132.309C160.2 132.362 160.128 132.392 160.055 132.39Z" fill="#231F20"/>
<path id="Path_127" d="M74.2842 151.477C74.1264 151.474 73.9984 151.348 73.9922 151.189C73.9907 151.111 74.02 151.036 74.0736 150.98C74.1273 150.924 74.2009 150.891 74.2783 150.89C77.3508 150.79 80.2298 149.358 82.1723 146.963C82.2244 146.899 82.3002 146.859 82.3825 146.852C82.4648 146.846 82.5456 146.876 82.6043 146.934C84.079 148.466 86.0058 149.478 88.0986 149.822C90.1844 150.136 92.2863 149.364 93.6804 147.773C93.7779 147.653 93.952 147.63 94.0774 147.72C97.4755 149.971 102.025 149.202 104.505 145.959C104.563 145.888 104.65 145.846 104.742 145.846C104.834 145.846 104.921 145.888 104.978 145.959C107.413 149.399 112.761 150.326 116.2 147.908C116.322 147.819 116.492 147.842 116.586 147.961C117.487 148.983 118.777 149.572 120.136 149.581C121.492 149.657 122.816 149.142 123.767 148.166C123.833 148.1 123.926 148.067 124.018 148.078C124.109 148.091 124.189 148.145 124.234 148.225C124.616 148.824 125.22 149.243 125.912 149.388C126.604 149.534 127.325 149.394 127.913 149C128.043 148.906 128.223 148.932 128.321 149.059C128.367 149.122 128.386 149.2 128.374 149.277C128.362 149.355 128.32 149.424 128.257 149.469C127.544 149.981 126.647 150.16 125.793 149.963C125.059 149.817 124.401 149.414 123.937 148.824C121.71 150.706 118.426 150.582 116.346 148.536C112.767 150.884 107.425 149.974 104.774 146.617C102.093 149.79 97.5096 150.521 93.984 148.337C92.454 149.943 90.2471 150.708 88.0577 150.391C85.9422 150.057 83.9829 149.068 82.4525 147.562C80.402 149.962 77.4413 151.383 74.2959 151.477H74.2842Z" fill="#D1D3D4"/>
<path id="Path_128" d="M115.751 154.065C114.617 154.102 113.517 153.679 112.697 152.891C110.216 154.685 106.779 154.253 104.815 151.899C102.613 153.378 99.9461 153.99 97.3237 153.619C97.2194 153.603 97.1314 153.533 97.0928 153.434C97.0542 153.336 97.0708 153.224 97.1365 153.141C97.2022 153.058 97.307 153.016 97.4113 153.032C99.9786 153.406 102.591 152.775 104.71 151.271C104.774 151.225 104.854 151.206 104.932 151.218C105.008 151.235 105.077 151.279 105.124 151.342C105.98 152.461 107.245 153.189 108.638 153.364C110.031 153.54 111.436 153.147 112.539 152.275C112.599 152.222 112.677 152.197 112.755 152.204C112.833 152.212 112.904 152.25 112.954 152.31C113.783 153.208 114.993 153.645 116.2 153.484C117.448 153.289 118.657 152.893 119.779 152.31C119.851 152.279 119.931 152.277 120.004 152.306C120.076 152.334 120.134 152.391 120.165 152.463C120.23 152.61 120.165 152.783 120.019 152.85C118.836 153.445 117.563 153.842 116.253 154.024C116.086 154.047 115.919 154.06 115.751 154.065Z" fill="#D1D3D4"/>
<path id="Path_129" d="M81.5778 154.6C81.4335 154.599 81.3119 154.491 81.2917 154.348C81.2706 154.188 81.3789 154.04 81.5369 154.013C82.738 153.828 83.8402 153.236 84.6606 152.335C84.7143 152.278 84.7874 152.244 84.865 152.241C84.9435 152.236 85.0201 152.266 85.0752 152.323C85.6738 152.95 86.4746 153.343 87.3348 153.432C88.17 153.516 88.9872 153.15 89.4834 152.47C89.5365 152.389 89.6265 152.34 89.7228 152.34C89.8176 152.347 89.9059 152.391 89.968 152.464C90.5435 153.251 91.573 153.552 92.4787 153.197C92.5755 153.152 92.6895 153.163 92.7757 153.226C92.8619 153.29 92.9066 153.396 92.8922 153.503C92.8777 153.609 92.8064 153.699 92.7064 153.737C91.6775 154.139 90.5096 153.888 89.7345 153.098C89.0974 153.754 88.2032 154.092 87.2939 154.019C86.3974 153.933 85.5531 153.556 84.8883 152.945C84.0005 153.827 82.8582 154.404 81.6245 154.594L81.5778 154.6Z" fill="#D1D3D4"/>
</g>
</g>
</g>
<defs>
<linearGradient id="paint0_linear_7517_1212" x1="0" y1="202" x2="202" y2="202" gradientUnits="userSpaceOnUse">
<stop stop-color="#5D0202" stop-opacity="0.01"/>
<stop offset="1" stop-color="#5D0202" stop-opacity="0.497569"/>
</linearGradient>
</defs>
</svg>
