<svg width="202" height="202" viewBox="0 0 202 202" fill="none" xmlns="http://www.w3.org/2000/svg">
<g id="Group 22">
<circle id="Oval Copy 2" opacity="0.202683" cx="101" cy="101" r="101" transform="matrix(0 1 1 0 0 0)" fill="url(#paint0_linear_7497_240)"/>
<g id="designer_(2) 2">
<g id="designer_(2)">
<path id="Path" d="M192.03 166.453H9.96908C9.77366 166.453 9.61523 166.294 9.61523 166.097C9.61523 165.901 9.77366 165.742 9.96908 165.742H192.03C192.225 165.742 192.384 165.901 192.384 166.097C192.384 166.294 192.225 166.453 192.03 166.453Z" fill="#D1D3D4"/>
<rect id="Rectangle" x="136.143" y="104.141" width="40.6428" height="70.0579" fill="white"/>
<path id="Shape" fill-rule="evenodd" clip-rule="evenodd" d="M136.143 174.554H176.786C176.882 174.554 176.974 174.514 177.041 174.445C177.108 174.375 177.143 174.281 177.14 174.184V104.14C177.14 103.944 176.981 103.785 176.786 103.785H136.143C135.947 103.785 135.789 103.944 135.789 104.14V174.198C135.789 174.395 135.947 174.554 136.143 174.554ZM176.432 173.843H136.497V104.496H176.432V173.843Z" fill="#231F20"/>
<rect id="Rectangle_2" x="24.1719" y="104.141" width="40.6428" height="70.0579" fill="white"/>
<path id="Shape_2" fill-rule="evenodd" clip-rule="evenodd" d="M24.1722 174.554H64.815C64.9113 174.554 65.0035 174.514 65.0703 174.445C65.1371 174.375 65.1727 174.281 65.1688 174.184V104.14C65.1688 103.944 65.0104 103.785 64.815 103.785H24.1722C23.9768 103.785 23.8184 103.944 23.8184 104.14V174.198C23.8184 174.395 23.9768 174.554 24.1722 174.554ZM64.4611 173.843H24.5261V104.496H64.4611V173.843Z" fill="#231F20"/>
<path id="Path_2" d="M143.709 83.8281L151.756 100.049H129.994L143.709 83.8281V83.8281Z" fill="#231F20"/>
<path id="Shape_3" fill-rule="evenodd" clip-rule="evenodd" d="M130.015 100.405H151.755C151.89 100.418 152.02 100.352 152.088 100.235C152.149 100.129 152.149 99.9994 152.088 99.8938L144.049 83.6725C143.995 83.566 143.891 83.494 143.773 83.4807C143.655 83.4619 143.536 83.508 143.461 83.6015L129.746 99.8228C129.655 99.9259 129.632 100.074 129.69 100.199C129.75 100.325 129.876 100.405 130.015 100.405ZM151.182 99.6949H130.758L143.631 84.4754L151.182 99.6949Z" fill="#231F20"/>
<path id="Path_3" d="M81.9062 100.048H133.716L152.513 72.3945H103.604L81.9062 100.048V100.048Z" fill="#231F20"/>
<path id="Shape_4" fill-rule="evenodd" clip-rule="evenodd" d="M81.8913 100.403H133.716C133.835 100.406 133.947 100.347 134.013 100.247L152.809 72.6004C152.88 72.4874 152.88 72.3439 152.809 72.2309C152.747 72.1161 152.628 72.0431 152.498 72.0391H103.589C103.481 72.0385 103.379 72.0884 103.313 72.1741L81.6153 99.8278C81.5314 99.9344 81.5154 100.08 81.5741 100.202C81.6328 100.325 81.7559 100.403 81.8913 100.403ZM133.553 99.6928H82.6344L103.773 72.7496H151.868L133.553 99.6928Z" fill="#231F20"/>
<path id="Path_4" d="M105.16 75.082L89.6758 95.2255H128.125L142.675 75.082H105.16V75.082Z" fill="white"/>
<path id="Shape_5" fill-rule="evenodd" clip-rule="evenodd" d="M89.6773 95.5806H128.126C128.234 95.5756 128.334 95.5204 128.395 95.4314L142.945 75.2879C143.016 75.1749 143.016 75.0315 142.945 74.9185C142.888 74.7991 142.766 74.7243 142.634 74.7266H105.126C105.018 74.726 104.916 74.7759 104.85 74.8616L89.3588 95.005C89.2918 95.1215 89.2918 95.2651 89.3588 95.3816C89.4184 95.5036 89.542 95.5808 89.6773 95.5806ZM127.907 94.87H90.3992L105.339 75.4229H141.983L127.907 94.87Z" fill="#231F20"/>
<path id="Path_5" d="M116.173 91.5589C116.022 91.5578 115.888 91.4608 115.84 91.3174C113.979 85.8108 111.389 79.7713 110.447 79.6292V79.6292C109.322 79.6292 102.104 85.6189 95.6919 91.4737C95.5984 91.56 95.4661 91.5896 95.3449 91.5514C95.2236 91.5133 95.1319 91.413 95.1042 91.2885C95.0766 91.1641 95.1172 91.0342 95.2107 90.9479C97.4329 88.9229 108.48 78.9258 110.511 78.9258H110.589C112.401 79.2029 115.606 88.3047 116.548 91.09C116.579 91.1795 116.572 91.2778 116.529 91.3622C116.487 91.4467 116.411 91.51 116.321 91.5376C116.274 91.5577 116.223 91.565 116.173 91.5589V91.5589Z" fill="#D1D3D4"/>
<path id="Path_6" d="M127.723 92.2984C127.564 92.2975 127.425 92.1899 127.383 92.0355C126.138 87.5947 124.361 82.8555 123.526 82.6068C122.691 82.3581 118.813 85.8752 115.657 89.2573C115.522 89.4006 115.297 89.4069 115.154 89.2716C115.012 89.1362 115.005 88.9103 115.14 88.7671C116.754 87.0405 122.132 81.4487 123.731 81.9318C125.331 82.415 127.624 90.2734 128.063 91.8792C128.117 92.0675 128.01 92.2648 127.822 92.3197L127.723 92.2984Z" fill="#D1D3D4"/>
<path id="Shape_6" fill-rule="evenodd" clip-rule="evenodd" d="M137.537 85.1286C137.537 85.6615 138.224 86.0807 139.094 86.0807C139.964 86.0807 140.651 85.6615 140.651 85.1286C140.651 84.5957 139.943 84.1836 139.094 84.1836C138.245 84.1836 137.537 84.5957 137.537 85.1286ZM137.679 85.1286C137.679 84.7094 138.344 84.3612 139.094 84.3612V84.3825C139.844 84.3825 140.474 84.7094 140.474 85.1286C140.474 85.5478 139.88 85.9031 139.094 85.9031C138.308 85.9031 137.679 85.5478 137.679 85.1286Z" fill="#A7A9AC"/>
<path id="Path_7" d="M145.28 78.0222H142.138C142.092 78.0188 142.056 77.9826 142.053 77.9369C142.053 77.8886 142.09 77.8483 142.138 77.8446H145.28C145.304 77.8445 145.326 77.8544 145.343 77.872C145.359 77.8896 145.367 77.9131 145.365 77.9369C145.365 77.984 145.327 78.0222 145.28 78.0222Z" fill="#A7A9AC"/>
<path id="Path_8" d="M133.717 100.402C133.641 100.403 133.567 100.38 133.505 100.338C133.35 100.22 133.315 100.001 133.427 99.8407L143.462 86.0139C143.517 85.9374 143.601 85.8862 143.693 85.8715C143.786 85.8568 143.881 85.8799 143.957 85.9357C144.113 86.0534 144.147 86.2733 144.035 86.4331L134 100.288C133.927 100.366 133.823 100.408 133.717 100.402Z" fill="white"/>
<path id="Shape_7" fill-rule="evenodd" clip-rule="evenodd" d="M114.615 78.6491C114.615 79.5124 115.312 80.2123 116.172 80.2123C117.032 80.2123 117.729 79.5124 117.729 78.6491C117.729 77.7858 117.032 77.0859 116.172 77.0859C115.312 77.0859 114.615 77.7858 114.615 78.6491ZM115.323 78.6491C115.323 78.1782 115.703 77.7965 116.172 77.7965C116.398 77.7946 116.615 77.8838 116.775 78.0441C116.934 78.2044 117.023 78.4224 117.021 78.6491C117.021 79.12 116.641 79.5017 116.172 79.5017C115.703 79.5017 115.323 79.12 115.323 78.6491Z" fill="#D1D3D4"/>
<rect id="Rectangle_3" x="18.7734" y="100.652" width="159.74" height="6.79974" fill="white"/>
<path id="Shape_8" fill-rule="evenodd" clip-rule="evenodd" d="M18.7718 107.807H178.519C178.715 107.807 178.873 107.648 178.873 107.452V100.652C178.869 100.458 178.713 100.301 178.519 100.297H18.7718C18.578 100.301 18.4217 100.458 18.418 100.652V107.452C18.418 107.648 18.5764 107.807 18.7718 107.807ZM178.137 107.097H19.1257V101H178.137V107.097Z" fill="#231F20"/>
<path id="Path_9" d="M78.8559 137.438C79.0046 137.942 70.0664 170.157 70.0664 170.157L82.5572 172.175L97.3196 127.668L78.8559 137.438Z" fill="white"/>
<path id="Shape_9" fill-rule="evenodd" clip-rule="evenodd" d="M82.4998 172.528H82.5564C82.7061 172.53 82.8402 172.435 82.889 172.293L97.6586 127.786C97.6989 127.648 97.6578 127.499 97.5524 127.402C97.4401 127.311 97.2851 127.295 97.1561 127.36L78.6924 137.129C78.5665 137.194 78.4913 137.329 78.5013 137.47C78.4023 138.536 73.2078 157.514 69.7189 170.062C69.6968 170.161 69.7119 170.265 69.7613 170.354C69.8182 170.438 69.9082 170.495 70.009 170.51L82.4998 172.528ZM82.33 171.775L70.5256 169.863H70.5115C75.8758 150.523 78.7844 139.716 79.1736 137.676L96.7244 128.397L82.33 171.775Z" fill="#231F20"/>
<path id="Path_10" d="M69.3099 168.764L67.4062 174.775L97.3204 177.098C95.9156 174.258 93.4866 172.06 90.5266 170.952C87.4198 169.858 84.0724 168.551 84.0724 168.551L82.5579 172.174L69.3099 168.764Z" fill="#231F20"/>
<path id="Shape_10" fill-rule="evenodd" clip-rule="evenodd" d="M67.4061 175.131L97.3203 177.455C97.4621 177.49 97.6103 177.43 97.6883 177.306C97.7488 177.198 97.7488 177.066 97.6883 176.958C96.2481 174.024 93.7435 171.756 90.6892 170.62C88.4578 169.835 86.0845 168.927 84.9396 168.488C84.5087 168.323 84.2518 168.225 84.2421 168.225C84.1567 168.19 84.0609 168.191 83.9759 168.227C83.8909 168.263 83.8237 168.331 83.7892 168.417L82.3738 171.756L69.423 168.424C69.242 168.377 69.0561 168.48 68.9984 168.659L67.0947 174.67C67.0619 174.773 67.0782 174.886 67.1389 174.976C67.1997 175.066 67.2981 175.124 67.4061 175.131ZM96.7116 176.702L67.8732 174.456L69.5433 169.213L82.4658 172.524C82.6382 172.565 82.8152 172.475 82.8833 172.311L84.2633 169.014C84.3011 169.028 84.342 169.044 84.3858 169.061C85.4003 169.448 87.9913 170.436 90.4132 171.288C93.0806 172.294 95.3103 174.211 96.7116 176.702Z" fill="#231F20"/>
<path id="Path_11" d="M48.3122 137.863L46.1891 171.798C46.1891 171.798 39.0131 172.047 37.2156 173.311C35.418 174.576 33.9531 180.303 33.9531 180.303H36.1894C36.1894 180.303 37.4916 176.04 38.9211 175.528C40.3507 175.017 48.475 174.818 48.475 174.818C48.475 174.818 52.3956 176.338 53.0254 178.946C53.5208 180.999 53.3793 181.475 53.3793 181.475H55.8562C55.8502 180.307 55.6835 179.145 55.3608 178.022C54.8654 176.601 53.0042 174.903 53.0042 174.903C53.0042 174.903 57.1017 174.988 58.4676 174.988C59.8334 174.988 61.2559 177.603 61.2559 177.603H63.9239C63.9239 177.603 61.1356 172.885 59.331 172.551C57.5264 172.217 52.898 171.407 52.898 171.407L51.6384 139.789L48.3122 137.863Z" fill="#231F20"/>
<path id="Shape_11" fill-rule="evenodd" clip-rule="evenodd" d="M53.4069 181.836H55.8838C56.0737 181.833 56.2268 181.679 56.2306 181.488C56.2274 180.285 56.0535 179.089 55.714 177.936C55.2867 176.951 54.6712 176.06 53.9023 175.314C54.1015 175.317 54.3258 175.321 54.5663 175.325C55.88 175.347 57.6745 175.378 58.4881 175.378C59.3232 175.378 60.4555 176.87 60.965 177.808C61.0284 177.921 61.1472 177.991 61.2764 177.993H63.9444C64.0737 177.991 64.1924 177.921 64.2558 177.808C64.319 177.698 64.319 177.562 64.2558 177.453C63.9657 176.955 61.326 172.593 59.4293 172.237C57.9007 171.946 54.3057 171.321 53.2724 171.143L52.0198 139.809C52.0155 139.687 51.9485 139.577 51.8429 139.518L48.4884 137.578C48.3823 137.521 48.2549 137.521 48.1487 137.578C48.0432 137.638 47.9744 137.747 47.9647 137.869L45.8841 171.491C44.4404 171.555 38.701 171.889 37.038 173.054C35.1555 174.376 33.6977 180.01 33.641 180.245C33.6154 180.351 33.6388 180.463 33.7047 180.55C33.7706 180.637 33.872 180.689 33.9807 180.693H36.2383C36.3948 180.69 36.5319 180.587 36.578 180.437C37.0592 178.866 38.1703 176.238 39.0903 175.896C40.2013 175.449 46.1601 175.236 48.4601 175.186C48.9272 175.385 52.1755 176.813 52.7063 179.037C52.9486 179.792 53.0704 180.581 53.0672 181.375C53.0339 181.483 53.0521 181.601 53.1167 181.694C53.1878 181.782 53.294 181.834 53.4069 181.836ZM55.5087 181.126H53.7749C53.7124 180.356 53.5749 179.595 53.3644 178.852C52.6992 176.095 48.7644 174.546 48.5946 174.483H48.4601C48.1275 174.483 40.1306 174.703 38.786 175.193C37.4413 175.683 36.2807 178.945 35.9552 179.946H34.4407C34.9432 178.142 36.1746 174.497 37.4484 173.601C38.8497 172.642 44.2635 172.251 46.2309 172.18C46.4128 172.173 46.5598 172.029 46.5706 171.846L48.63 138.452L51.3192 140.008L52.5577 171.427C52.5623 171.598 52.6871 171.741 52.8549 171.768C52.9115 171.775 57.5044 172.571 59.2807 172.905C60.4697 173.125 62.3521 175.754 63.3004 177.254H61.4746C61.0924 176.593 59.8327 174.639 58.481 174.639C57.3328 174.639 54.2289 174.577 53.2943 174.559C53.1286 174.556 53.0311 174.554 53.0247 174.554C52.8773 174.557 52.7451 174.646 52.685 174.781C52.6344 174.918 52.6707 175.072 52.777 175.172C52.7779 175.173 52.7816 175.176 52.7879 175.182C52.9394 175.323 54.6001 176.866 55.0417 178.142C55.3282 179.111 55.4853 180.115 55.5087 181.126Z" fill="#231F20"/>
<path id="Path_12" d="M89.2315 116.219C89.2315 116.219 117.497 117.732 119.28 121.775C121.064 125.818 107.957 170.276 107.957 170.276C107.957 170.276 121.792 175.079 119.528 176.088C117.263 177.097 94.6171 175.079 94.6171 175.079L105.353 133.868L77.3848 131.978L89.2315 116.219Z" fill="white"/>
<path id="Shape_12" fill-rule="evenodd" clip-rule="evenodd" d="M94.6098 175.436C96.4286 175.6 109.33 176.729 115.968 176.729C117.224 176.807 118.485 176.702 119.712 176.417C119.989 176.329 120.176 176.069 120.172 175.777C120.115 174.321 112.189 171.372 108.431 170.058C109.719 165.688 121.375 125.607 119.627 121.635C119.33 120.96 118.431 118.921 103.647 117.13C96.4286 116.249 89.3375 115.866 89.2668 115.866C89.1485 115.851 89.0323 115.906 88.9695 116.008L77.1157 131.796C77.0346 131.899 77.0182 132.039 77.0732 132.158C77.1317 132.272 77.2433 132.35 77.3705 132.364L104.914 134.226L94.2985 174.989C94.2708 175.091 94.2889 175.2 94.348 175.287C94.4095 175.373 94.5051 175.427 94.6098 175.436ZM119.407 175.763C117.659 176.545 101.651 175.344 95.084 174.761L105.714 133.998C105.734 133.895 105.714 133.788 105.657 133.7C105.592 133.615 105.494 133.563 105.388 133.558L78.0711 131.703L89.3942 116.59C97.3345 117.024 117.532 118.708 118.947 121.927C120.363 125.145 111.248 157.858 107.624 170.185C107.568 170.368 107.665 170.562 107.844 170.626C113.123 172.452 118.94 174.903 119.407 175.763Z" fill="#231F20"/>
<path id="Path_13" d="M79.6406 90.9537C79.6406 90.9537 94.1625 109.143 100.369 108.639C106.575 108.134 124.353 85.71 124.353 85.71C127.566 81.859 131.161 76.9706 128.861 71.6629C128.634 71.1513 128.238 70.6042 127.686 70.6469C127.454 70.6827 127.233 70.7727 127.042 70.9098L125.06 72.1319C125.124 71.5848 124.43 71.194 123.9 71.3432C123.383 71.546 122.953 71.9228 122.682 72.409C120.623 75.3506 119.293 78.15 119.406 81.7737L98.628 92.4316L90.3834 83.2729" fill="white"/>
<path id="Path_14" d="M100.122 109C93.6754 109 79.9532 91.9475 79.3658 91.173C79.2641 91.0193 79.2965 90.813 79.4403 90.6982C79.5842 90.5834 79.7917 90.5983 79.9178 90.7325C80.0594 90.9101 94.0151 108.297 100.101 108.297H100.342C106.329 107.814 123.887 85.7233 124.057 85.4959C127.376 81.5312 130.723 76.8843 128.522 71.8183C128.437 71.6193 128.14 70.987 127.701 71.0154C127.524 71.0477 127.357 71.1207 127.213 71.2285L125.217 72.4435C125.102 72.515 124.957 72.5143 124.842 72.4418C124.728 72.3692 124.665 72.2375 124.679 72.1025C124.688 71.998 124.64 71.8969 124.552 71.8396C124.389 71.7086 124.177 71.6565 123.972 71.6975C123.536 71.8841 123.175 72.2117 122.946 72.6283C121.205 75.1151 119.612 77.943 119.733 81.7798C119.737 81.9167 119.663 82.0438 119.542 82.1067L98.7637 92.7646C98.6209 92.8383 98.4465 92.8062 98.3391 92.6864L90.1015 83.5135C90.0345 83.4468 89.9968 83.356 89.9968 83.2613C89.9968 83.1666 90.0345 83.0758 90.1015 83.0091C90.2415 82.8728 90.464 82.8728 90.604 83.0091L98.6575 91.9475L119.004 81.5383C118.94 77.6091 120.568 74.7172 122.344 72.1806C122.663 71.6259 123.163 71.1991 123.759 70.9727C124.195 70.8676 124.654 70.9757 124.998 71.2641C125.093 71.3474 125.174 71.4458 125.238 71.5554L126.824 70.582C127.063 70.4136 127.34 70.3063 127.63 70.2693C128.246 70.2196 128.791 70.6743 129.145 71.4985C131.707 77.3959 127.078 82.938 124.587 85.9151C123.88 86.8246 106.669 108.46 100.377 108.972L100.122 109Z" fill="#231F20"/>
<path id="Path_15" d="M32.1063 87.8504C32.1063 87.8504 24.626 104.868 27.4002 106.686C30.1743 108.505 47.0599 106.686 47.0599 106.686L45.595 84.6602" fill="white"/>
<path id="Path_16" d="M33.8191 107.806C30.7972 107.806 28.1575 107.592 27.1951 106.953C26.7138 106.64 25.2418 105.681 28.3769 96.4655C29.8843 92.0247 31.7597 87.7474 31.7809 87.7047C31.8216 87.5748 31.9328 87.4797 32.067 87.4599C32.2012 87.4401 32.3349 87.4991 32.4112 87.6118C32.4874 87.7244 32.4927 87.871 32.4249 87.9889C29.5941 94.4618 25.7585 105.169 27.5843 106.356C29.7074 107.777 41.7381 106.839 46.692 106.356L45.2766 84.6779C45.2629 84.4817 45.4103 84.3115 45.6057 84.2978C45.8011 84.284 45.9706 84.4319 45.9843 84.6282L47.4492 106.654C47.4616 106.846 47.3207 107.012 47.1308 107.031C46.6354 107.059 39.5018 107.806 33.8191 107.806Z" fill="#231F20"/>
<path id="Path_17" d="M38.1997 116.687C38.1997 116.687 34.5409 124.844 38.4403 129.988C42.3397 135.132 96.4711 135.751 96.4711 135.751L100.356 116.218L77.7101 113.12L76.3938 106.363L38.1997 116.687Z" fill="white"/>
<path id="Shape_13" fill-rule="evenodd" clip-rule="evenodd" d="M68.885 135.156C82.7841 135.944 96.3506 136.108 96.485 136.108C96.6554 136.107 96.8011 135.985 96.8318 135.816L100.675 116.263C100.695 116.169 100.675 116.07 100.618 115.993C100.563 115.91 100.475 115.856 100.377 115.844L78.0072 112.788L76.7404 106.273C76.7219 106.179 76.6656 106.096 76.5847 106.045C76.5016 105.989 76.3976 105.973 76.3016 106.003L38.0863 116.327C37.9819 116.353 37.8956 116.427 37.8527 116.526C37.697 116.867 34.1586 124.938 38.1358 130.182C39.8201 132.42 50.1666 134.09 68.885 135.156ZM38.7232 129.777C35.2838 125.244 37.9943 118.117 38.4543 116.988L76.1672 106.806L77.4056 113.2C77.4343 113.349 77.5536 113.463 77.7029 113.485L99.9527 116.526L96.1949 135.404C77.4481 135.177 41.7096 133.713 38.7232 129.777Z" fill="#231F20"/>
<path id="Path_18" d="M60.378 47.9745C59.8256 47.6417 59.3445 47.2021 58.9626 46.6813C58.4325 45.9184 58.0485 45.063 57.8303 44.159C55.9124 37.1958 55.8983 28.2787 62.0764 23.5111C65.774 20.6742 70.6121 19.8134 75.0555 21.2019C78.0561 22.1824 80.6038 26.3247 81.9413 29.0176C83.0383 31.199 83.7813 33.5721 85.0835 35.6326C86.3856 37.6932 88.4592 39.4979 90.8937 39.6187C88.9402 40.7161 86.5945 40.8574 84.5244 40.0024C85.4973 41.3135 87.1436 41.933 88.7352 41.5869C87.3198 42.7166 85.2958 42.674 83.5124 42.2974C81.729 41.9208 79.974 41.3524 78.141 41.5869C75.3103 41.9066 73.4703 43.9955 71.2552 45.509C68.4456 47.3563 63.5909 49.8432 60.378 47.9745Z" fill="white"/>
<path id="Shape_14" fill-rule="evenodd" clip-rule="evenodd" d="M60.2146 48.2866C61.078 48.7731 62.0555 49.0185 63.0453 48.9971C66.2582 48.9971 69.7967 46.8727 71.4456 45.7216C72.0189 45.3237 72.5709 44.8974 73.1087 44.4782C73.1786 44.425 73.2484 44.3718 73.318 44.3187C74.8196 43.1735 76.2617 42.0736 78.1758 41.8563C79.5199 41.782 80.8669 41.9357 82.1601 42.3111L82.1601 42.3111C82.5847 42.4106 83.0093 42.51 83.4339 42.5882C85.8259 43.05 87.6801 42.78 88.9469 41.7782C89.0798 41.6751 89.1222 41.4925 89.0485 41.341C88.9748 41.1896 88.8052 41.111 88.6426 41.1529C87.6923 41.3639 86.6975 41.1957 85.8684 40.684C87.636 41.0165 89.4637 40.7174 91.0346 39.8384C91.1753 39.7641 91.2459 39.6018 91.2044 39.4477C91.1693 39.2941 91.0357 39.1833 90.8789 39.1777C87.9844 39.0356 86.0595 36.4634 85.3518 35.3621C84.5966 34.085 83.9435 32.7498 83.3986 31.369C83.0376 30.5092 82.6555 29.6211 82.2309 28.7684C80.9782 26.2461 78.3669 21.855 75.1539 20.8106C70.5976 19.3773 65.6316 20.26 61.8422 23.1766C54.093 29.1734 56.5558 40.7834 57.4899 44.194C57.7174 45.1509 58.1206 46.0569 58.6789 46.8656C59.0871 47.441 59.6101 47.925 60.2146 48.2866ZM62.2598 23.7663C64.71 21.8844 67.7096 20.8656 70.7946 20.8674C72.2041 20.8606 73.6059 21.0764 74.9487 21.5069C78.0342 22.5087 80.6456 27.1556 81.6222 29.1095C81.9811 29.7786 82.2758 30.48 82.5653 31.1691C82.6355 31.3361 82.7054 31.5024 82.7758 31.6674C83.3338 33.0842 84.006 34.4529 84.7856 35.76C85.8635 37.6484 87.609 39.061 89.6758 39.7177C88.0536 40.298 86.2757 40.26 84.6795 39.6111C84.5347 39.546 84.3643 39.5902 84.269 39.7177C84.1747 39.844 84.1747 40.0177 84.269 40.144C84.976 41.0953 86.0245 41.7325 87.1918 41.9203C86.0139 42.1958 84.7887 42.1958 83.6109 41.9203C83.2977 41.8617 82.9846 41.7911 82.6715 41.7205C82.5671 41.6969 82.4627 41.6734 82.3582 41.6503C80.9802 41.2501 79.5438 41.0914 78.1121 41.1813C75.9112 41.43 74.2693 42.709 72.6841 43.9453C72.1604 44.3574 71.6155 44.7837 71.0635 45.1603C69.4641 46.2474 63.9795 49.6579 60.5684 47.6684C60.0504 47.3629 59.6 46.9543 59.245 46.4677C58.7365 45.7325 58.3692 44.9083 58.1622 44.0377C57.2493 40.7266 54.8644 29.5003 62.2598 23.7663Z" fill="#231F20"/>
<path id="Path_19" d="M79.5571 42.9141C79.5571 42.9141 81.4891 48.982 80.4771 49.8417C79.4651 50.7014 77.3633 49.3514 77.3633 49.3514" fill="white"/>
<path id="Path_20" d="M79.6196 50.4882C78.754 50.4138 77.9202 50.1258 77.1922 49.6498C77.0785 49.5847 77.0099 49.4619 77.0138 49.3305C77.0178 49.1992 77.0936 49.0807 77.211 49.0226C77.3284 48.9644 77.4681 48.9761 77.5743 49.0529C78.0697 49.3656 79.6196 50.14 80.2636 49.5716C80.7519 49.1524 80.122 45.8485 79.2162 43.0277C79.1605 42.8396 79.264 42.6412 79.4497 42.58C79.6354 42.5194 79.8349 42.6211 79.8956 42.8074C80.3627 44.2853 81.8134 49.2022 80.7236 50.1116C80.4152 50.3709 80.0215 50.5052 79.6196 50.4882Z" fill="#231F20"/>
<path id="Path_21" d="M80.7319 35.9605C82.3808 38.3194 80.7319 41.8578 80.0242 44.2665C79.0476 47.6581 77.9931 51.0236 76.8608 54.3631C76.1531 56.4947 70.5765 54.9528 69.7839 54.0362L68.2694 62.7828L56.543 58.7115L60.315 48.1034C60.315 48.1034 64.087 49.1976 67.4839 45.4247C70.8808 41.6518 73.2445 32.0312 73.2445 32.0312C73.2445 32.0312 79.1254 33.6512 80.7319 35.9605Z" fill="white"/>
<path id="Shape_15" fill-rule="evenodd" clip-rule="evenodd" d="M68.1482 63.1382H68.2614C68.3143 63.1343 68.3654 63.1172 68.4101 63.0885C68.501 63.0389 68.5638 62.9496 68.5799 62.8469L69.9953 54.6617C71.6944 55.55 73.6183 55.9111 75.5224 55.699C76.2417 55.636 76.8676 55.1796 77.1501 54.5124C78.2824 51.1801 79.3439 47.7767 80.3205 44.4017C80.4408 43.9967 80.5824 43.5632 80.731 43.1085L80.745 43.066C81.5137 40.7295 82.4418 37.9088 80.9787 35.7901C79.3436 33.4499 73.7272 31.8514 73.3032 31.7308C73.296 31.7287 73.2902 31.7271 73.2861 31.7259C73.1999 31.6903 73.1033 31.6903 73.0171 31.7259C72.9346 31.7732 72.8755 31.8531 72.8544 31.9461C72.8544 32.0456 70.3916 41.6306 67.1928 45.1832C64.0498 48.674 60.6471 47.8293 60.3885 47.7651C60.3839 47.764 60.3803 47.7631 60.3777 47.7624C60.2004 47.7106 60.0136 47.8074 59.9531 47.9827L56.2094 58.6264C56.1776 58.716 56.1776 58.8139 56.2094 58.9035C56.2504 58.9887 56.3247 59.0531 56.4147 59.0811L68.1482 63.1382ZM67.9854 62.314L56.9879 58.4914L60.5051 48.5014C61.5313 48.7003 64.7442 48.949 67.7094 45.6593C70.795 42.2346 72.9888 34.2909 73.463 32.479C74.751 32.8627 79.1387 34.3406 80.4125 36.1596C81.6704 37.9557 80.8029 40.6108 80.0996 42.7637L80.0728 42.8456C80.0246 42.9978 79.9764 43.147 79.9291 43.2932C79.8307 43.5975 79.7365 43.8888 79.6553 44.1672C78.6857 47.5351 77.6171 50.9243 76.4919 54.2424C76.3645 54.6261 75.9965 54.8819 75.3879 55.0027C73.5904 55.358 70.5261 54.3917 70.0165 53.8019C69.9272 53.6985 69.7866 53.6558 69.6551 53.6922C69.5236 53.7286 69.4247 53.8376 69.4008 53.9724L67.9854 62.314Z" fill="#231F20"/>
<path id="Path_22" d="M77.4896 51.8046C77.4896 51.8046 74.4111 52.6856 73.7812 49.5664Z" fill="white"/>
<path id="Path_23" d="M76.5495 52.2735C75.9423 52.2891 75.3424 52.1367 74.8157 51.833C74.0524 51.3385 73.537 50.5391 73.4003 49.6375C73.3655 49.4432 73.492 49.2567 73.6847 49.218C73.8775 49.1793 74.0656 49.3026 74.108 49.4954C74.203 50.1956 74.5886 50.8228 75.1695 51.2219C75.8502 51.566 76.6318 51.6518 77.3704 51.4635C77.4968 51.4292 77.6319 51.4653 77.7246 51.5581C77.8174 51.6509 77.8538 51.7863 77.8202 51.9133C77.7865 52.0404 77.6879 52.1398 77.5615 52.174C77.2295 52.2485 76.8896 52.2819 76.5495 52.2735V52.2735Z" fill="#231F20"/>
<path id="Path_24" d="M72.4583 43.263C72.6021 42.3859 72.5016 41.4859 72.1682 40.6625C71.9956 39.9975 71.7287 39.361 71.3755 38.7725C71.0037 38.1849 70.3925 37.7923 69.7054 37.6996C69.088 37.6885 68.4963 37.9479 68.0848 38.4101C67.6716 38.8552 67.3664 39.3902 67.1931 39.9732C66.3601 42.5331 66.945 45.3445 68.7288 47.3556L68.5943 47.0998" fill="white"/>
<path id="Path_25" d="M68.7285 47.7115C68.6296 47.7105 68.5352 47.6696 68.4667 47.5979C66.5944 45.48 65.9803 42.5246 66.8531 39.8318C67.0428 39.1972 67.3772 38.6158 67.8298 38.1336C68.3229 37.6097 69.0158 37.3227 69.7334 37.345C70.5311 37.4357 71.2432 37.8888 71.6654 38.5742C72.0413 39.19 72.3251 39.8579 72.5076 40.5565C72.8623 41.4417 72.9652 42.4084 72.8048 43.3489C72.753 43.5404 72.5574 43.6544 72.3661 43.6047C72.1792 43.5528 72.0687 43.3595 72.1184 43.1713C72.2369 42.3591 72.1368 41.5299 71.8282 40.7697C71.6695 40.1383 71.4166 39.5346 71.0781 38.9792C70.7708 38.4712 70.2498 38.1312 69.6627 38.0555C69.1532 38.0456 68.6638 38.2551 68.3181 38.631C67.9416 39.0356 67.6631 39.5219 67.5042 40.0521C66.7604 42.3372 67.1924 44.8439 68.6578 46.7452C68.7572 46.7726 68.8415 46.8393 68.8913 46.93L69.0187 47.1857C69.1034 47.344 69.0544 47.5409 68.9054 47.6405C68.8546 47.681 68.7931 47.7057 68.7285 47.7115V47.7115Z" fill="#231F20"/>
<ellipse id="Oval" cx="79.2956" cy="39.9876" rx="1.25739" ry="0.5" transform="rotate(-77.39 79.2956 39.9876)" fill="#231F20"/>
<path id="Path_26" d="M69.7762 54.0358C68.2386 53.0341 66.766 51.9353 65.3673 50.7461C65.3673 50.7461 64.6596 56.8993 68.8562 58.3132L69.7762 54.0358Z" fill="#231F20"/>
<path id="Shape_16" fill-rule="evenodd" clip-rule="evenodd" d="M68.7429 58.6654C68.7803 58.6722 68.8187 58.6722 68.8561 58.6654C68.9176 58.6655 68.9783 58.6509 69.033 58.6228C69.1197 58.5718 69.1812 58.4868 69.2029 58.3883L70.1229 54.1252C70.1498 53.9818 70.0885 53.8362 69.9672 53.7557C68.4433 52.7583 66.9826 51.6667 65.5937 50.4873C65.4919 50.4055 65.3546 50.3839 65.2327 50.4304C65.1127 50.4807 65.0288 50.592 65.0134 50.7218C64.985 50.9847 64.341 57.1804 68.7429 58.6654ZM68.6014 57.827C65.8838 56.6191 65.6857 52.9883 65.6857 51.4678C66.8689 52.4413 68.1019 53.352 69.3798 54.1962L68.6014 57.827Z" fill="#231F20"/>
<path id="Path_27" d="M36.0059 119.381C36.0059 119.381 36.6428 75.8963 43.1394 65.885C49.636 55.8737 66.4932 53.6142 74.5326 59.5826C82.572 65.5511 78.7009 111.167 78.7009 111.167C78.7009 111.167 53.0683 119.381 36.0059 119.381Z" fill="#E7816B"/>
<path id="Path_28" d="M68.9206 57.0273C73.1968 58.7714 77.1935 61.1393 80.7815 64.0544C86.3439 68.6942 98.0846 88.6458 98.0846 88.6458L82.6002 98.0602L68.7012 80.8513L68.9206 57.0273Z" fill="#E7816B"/>
<path id="Path_29" d="M49.8333 59.7344C49.8333 59.7344 41.7302 60.651 37.4416 69.5823C35.1204 74.4281 29.1758 90.0738 29.1758 90.0738L47.0521 92.1415L49.8333 59.7344Z" fill="#E7816B"/>
<path id="Path_30" d="M81.4383 96.97C81.3253 96.9695 81.2197 96.9138 81.1552 96.8208L67.3481 77.9421C67.2918 77.8667 67.2676 77.772 67.2809 77.6787C67.2942 77.5854 67.3438 77.5013 67.4189 77.4447C67.578 77.3325 67.7971 77.3671 67.9143 77.5229L81.7213 96.4016C81.8018 96.5092 81.8147 96.6532 81.7548 96.7736C81.6948 96.894 81.5723 96.97 81.4383 96.97V96.97Z" fill="#231F20"/>
<path id="Path_31" d="M122.654 75.6356L126.108 64.8711L127.184 65.1837L125.011 75.799C125.011 75.799 123.482 77.2769 122.654 75.6356Z" fill="#231F20"/>
<path id="Shape_17" fill-rule="evenodd" clip-rule="evenodd" d="M123.476 76.7627H123.717C124.294 76.7236 124.839 76.485 125.26 76.0877C125.31 76.0399 125.345 75.978 125.359 75.91L127.532 65.2521C127.568 65.071 127.461 64.8918 127.284 64.84L126.208 64.5274C126.023 64.4796 125.833 64.5814 125.769 64.7619L122.337 75.5405C122.302 75.627 122.302 75.7241 122.337 75.8105C122.537 76.2976 122.963 76.6541 123.476 76.7627ZM123.568 76.045C123.324 75.985 123.119 75.8182 123.009 75.5903L126.314 65.309L126.746 65.4298L124.658 75.6116C124.365 75.8931 123.974 76.0486 123.568 76.045Z" fill="#231F20"/>
<path id="Path_32" d="M57.3497 51.2655C50.9805 49.8445 43.9036 50.8392 38.7586 54.8182C36.5782 56.416 34.9402 58.6485 34.0666 61.2129C33.2265 63.8282 33.7184 66.691 35.3829 68.8724C40.266 74.7626 50.9876 74.7342 57.6186 72.8087C62.1408 71.5013 75.5303 65.1208 71.8432 58.8539C69.1894 54.3705 62.1266 52.2958 57.3497 51.2655Z" fill="#E7816B"/>
<path id="Path_33" d="M49.2391 73.3386C45.0189 73.2157 40.8979 72.0256 37.2578 69.8783C37.1764 69.8299 37.1182 69.7501 37.0969 69.6575C37.0755 69.5649 37.0927 69.4676 37.1446 69.3881C37.2503 69.2235 37.4687 69.1758 37.6329 69.2815C37.7178 69.3383 46.472 74.8023 54.7591 71.6475C58.7363 70.1341 61.1283 67.4483 63.4141 64.8549C65.9406 62.0128 68.3255 59.327 72.4443 58.9504C72.5382 58.9426 72.6313 58.9727 72.7031 59.034C72.7748 59.0954 72.8192 59.1829 72.8264 59.2773C72.8363 59.3709 72.808 59.4644 72.748 59.5367C72.688 59.609 72.6014 59.6538 72.508 59.661C68.6723 60.0091 66.4784 62.5031 63.9449 65.3452C61.6944 67.8818 59.1467 70.7523 55.0067 72.3297C53.1607 73.0132 51.2066 73.355 49.2391 73.3386Z" fill="#231F20"/>
<path id="Path_34" d="M36.6427 103.842V103.842C36.5488 103.838 36.4603 103.797 36.3966 103.728C36.3329 103.659 36.2992 103.567 36.303 103.473C36.8196 92.225 39.1338 76.0393 39.1338 75.8758C39.1664 75.6836 39.3446 75.5517 39.5372 75.5774C39.7276 75.6067 39.8598 75.7836 39.8344 75.9753C39.8344 76.1387 37.492 92.3174 37.0036 103.501C36.996 103.695 36.8355 103.846 36.6427 103.842Z" fill="#231F20"/>
<path id="Path_35" d="M90.9151 174.32H105.954C105.954 174.32 107.588 170.661 111.113 170.156C111.113 170.156 124.828 175.975 122.811 177.169C120.794 178.363 89.8535 178.235 89.8535 178.235L90.9151 174.32Z" fill="#231F20"/>
<path id="Shape_18" fill-rule="evenodd" clip-rule="evenodd" d="M89.8461 178.596H93.0095C101.212 178.596 121.275 178.489 122.994 177.452C123.234 177.324 123.38 177.07 123.369 176.798C123.277 175.036 114.077 171 111.247 169.806C111.187 169.789 111.123 169.789 111.063 169.806C107.857 170.268 106.151 173.153 105.734 173.97H90.9147C90.7528 173.968 90.61 174.076 90.5679 174.233L89.5064 178.148C89.4772 178.256 89.5008 178.372 89.5701 178.461C89.6362 178.546 89.7382 178.596 89.8461 178.596ZM122.633 176.862C121.232 177.693 102.719 177.921 90.3132 177.885L91.1836 174.673H105.953C106.093 174.675 106.22 174.594 106.279 174.467C106.293 174.432 107.85 171.043 111.063 170.517C116.639 172.89 122.633 175.981 122.633 176.862Z" fill="#231F20"/>
<path id="Path_36" d="M79.5503 139.369C89.1254 137.344 95.5441 132.846 91.7792 126.778C88.0143 120.711 60.9734 124.647 55.6869 120.149C50.4005 115.652 52.29 91.7992 46.4869 87.7137C40.6838 83.6282 15.8085 79.5 13.0272 84.6584C10.246 89.8168 13.0272 127.354 21.1303 135.688C29.2334 144.023 70.2088 141.302 79.5503 139.369Z" fill="#231F20"/>
<path id="Shape_19" fill-rule="evenodd" clip-rule="evenodd" d="M49.8616 141.751H51.4609C62.8477 141.751 74.7652 140.706 79.6412 139.626C86.7394 138.127 91.396 135.491 92.8114 132.208C93.5757 130.432 93.3351 128.514 92.1037 126.524C89.9735 123.099 81.0779 122.737 72.4794 122.389L72.4532 122.388C65.4764 122.104 58.2731 121.811 55.9265 119.81C53.4569 117.7 52.5722 110.873 51.716 104.265L51.7157 104.263L51.7117 104.232C50.7717 97.0089 49.8005 89.5452 46.684 87.3528C41.7302 83.8854 23.9459 80.546 16.2532 82.3791C14.4132 82.8481 13.2314 83.5515 12.7148 84.5107C9.70709 90.1168 12.8351 127.668 20.8462 135.967C25.34 140.571 39.1046 141.658 49.8616 141.751ZM16.3948 83.1039C18.117 82.7466 19.8734 82.5821 21.6317 82.6136C30.1169 82.6136 42.4308 85.2923 46.2523 87.9994C49.1256 90.0102 50.0809 97.3712 50.9939 104.42C51.9068 111.468 52.7702 118.126 55.4452 120.414C57.9788 122.581 64.9991 122.865 72.4299 123.163L72.4541 123.164C80.8822 123.505 89.5508 123.856 91.4809 126.965C92.5849 128.748 92.8043 130.446 92.1391 132.009C90.8582 135.036 86.244 137.594 79.4714 139.015C70.0803 140.969 29.3172 143.641 21.384 135.463C13.5852 127.419 10.5917 89.9462 13.3376 84.8518C13.748 84.0773 14.7812 83.4875 16.3948 83.1039Z" fill="#231F20"/>
<path id="Path_37" d="M97.3199 119.739H97.2633L74.4473 115.731C74.2518 115.698 74.1203 115.512 74.1536 115.316C74.1868 115.119 74.3721 114.987 74.5676 115.021L97.3836 119.028C97.579 119.046 97.7232 119.219 97.7056 119.415C97.688 119.612 97.5153 119.756 97.3199 119.739V119.739Z" fill="#D1D3D4"/>
<path id="Path_38" d="M163.099 166.37L162.391 166.292C162.391 166.086 164.62 145.516 157.529 136.379L158.088 135.945C161.146 139.882 162.922 146.205 163.354 154.739C163.55 158.617 163.464 162.504 163.099 166.37V166.37Z" fill="#231F20"/>
<path id="Path_39" d="M160.659 168.992C160.648 168.753 160.672 168.514 160.73 168.282C162.421 157.517 159.555 152.501 156.852 150.185L157.312 149.645C160.142 152.075 163.171 157.304 161.43 168.395C161.388 168.665 161.36 168.843 161.36 168.914L160.659 168.992Z" fill="#231F20"/>
<path id="Path_40" d="M156.986 145.614C156.413 145.277 155.767 145.087 155.104 145.06C153.914 144.889 152.707 145.22 151.77 145.976C151.537 146.204 151.332 146.587 151.544 146.836C151.67 146.951 151.828 147.026 151.997 147.049C152.938 147.319 153.674 148.058 153.943 149.003C153.455 148.641 153.037 148.179 152.528 147.817C152.056 147.42 151.45 147.221 150.836 147.262C150.171 147.42 149.586 147.814 149.187 148.371C148.73 148.862 148.351 149.42 148.062 150.026C147.761 150.635 147.671 151.328 147.807 151.994C148.453 151.808 149.131 151.762 149.796 151.859C150.269 151.902 150.718 152.088 151.084 152.392C151.194 152.478 151.274 152.598 151.31 152.733C151.334 153.019 151.143 153.278 150.864 153.337C150.595 153.401 150.314 153.401 150.044 153.337C149.466 153.219 148.883 153.136 148.296 153.089C148.075 153.06 147.852 153.075 147.637 153.131C147.119 153.422 146.837 154.006 146.93 154.595C146.919 154.836 147.009 155.07 147.177 155.242C147.468 155.469 147.885 155.305 148.225 155.163C148.817 154.915 149.451 154.78 150.093 154.765C150.166 154.759 150.239 154.771 150.305 154.801C150.378 154.852 150.426 154.931 150.436 155.019C150.447 155.107 150.42 155.196 150.362 155.263C150.243 155.397 150.084 155.489 149.909 155.526C149.423 155.68 148.927 155.797 148.423 155.874C148.133 155.917 147.793 155.98 147.652 156.243C147.597 156.359 147.57 156.485 147.574 156.613C147.545 157.577 147.823 158.525 148.366 159.32C148.455 159.464 148.57 159.59 148.706 159.689C148.901 159.793 149.116 159.851 149.336 159.86C151.02 160.035 152.722 159.791 154.29 159.149C154.371 159.121 154.443 159.069 154.495 159C154.587 158.837 154.431 158.645 154.311 158.503C153.787 157.856 153.908 156.925 154.056 156.108C154.068 155.95 154.133 155.799 154.24 155.682C154.446 155.543 154.723 155.586 154.877 155.782C155.02 155.976 155.101 156.208 155.111 156.449C155.215 157.29 155.148 158.144 154.912 158.958C155.727 158.767 156.522 158.496 157.283 158.148C157.899 157.908 158.48 157.585 159.01 157.188C159.542 156.785 159.916 156.207 160.064 155.554C160.096 155.433 160.083 155.305 160.029 155.192C159.974 155.114 159.901 155.051 159.817 155.007C159.079 154.528 158.498 153.841 158.147 153.032C158.076 152.861 158.04 152.627 158.196 152.542C158.263 152.52 158.335 152.52 158.401 152.542C159.293 152.691 159.746 153.693 160.482 154.225C160.54 154.274 160.612 154.304 160.687 154.311C160.779 154.311 160.866 154.272 160.928 154.204C161.224 153.928 161.424 153.565 161.501 153.167C161.715 152.385 161.67 151.555 161.374 150.801C161.065 150.045 160.429 149.472 159.647 149.245C159.285 149.161 158.911 149.144 158.543 149.195C158.416 149.195 157.736 149.437 157.644 149.351C157.552 149.266 157.913 148.754 157.998 148.584C158.458 147.532 157.842 146.182 156.986 145.614Z" fill="#231F20"/>
<path id="Path_41" d="M167.677 139.183C166.55 139.173 165.49 139.724 164.847 140.654C164.418 141.397 164.244 142.261 164.351 143.112C164.462 143.954 164.666 144.781 164.96 145.578C165.515 144.577 166.527 143.915 167.663 143.809C168.817 143.709 167.472 144.825 167.274 145.059C166.623 145.827 166 146.615 165.384 147.411C165.204 147.61 165.084 147.857 165.038 148.122C165.036 148.407 165.119 148.687 165.278 148.924C165.757 149.99 166.486 150.923 167.401 151.646C167.654 151.868 168.012 151.926 168.321 151.795C168.464 151.675 168.572 151.517 168.633 151.34C168.971 150.626 169.413 149.965 169.942 149.379C170.069 149.23 170.275 149.081 170.437 149.187C170.6 149.294 170.572 149.457 170.558 149.614L170.409 151.198C170.31 151.769 170.344 152.355 170.508 152.911C170.883 153.919 172.016 154.424 173.07 154.623C173.357 154.701 173.66 154.701 173.948 154.623C174.514 154.424 174.747 153.749 174.846 153.152C174.958 152.371 175.278 151.634 175.773 151.021C175.902 152.053 176.232 153.05 176.743 153.955C176.999 154.442 177.353 154.87 177.783 155.213C178.241 155.539 178.766 155.757 179.319 155.852C180.253 156.021 181.203 156.073 182.15 156.008C182.804 156.016 183.457 155.932 184.089 155.76C184.725 155.581 185.271 155.167 185.617 154.602C186.176 153.593 185.745 152.292 185.023 151.397C184.301 150.502 183.324 149.834 182.574 148.96C183.511 149.218 184.381 149.674 185.129 150.296C185.307 150.501 185.565 150.62 185.837 150.623C185.961 150.596 186.075 150.531 186.162 150.438C187.28 149.315 185.992 147.418 185.398 146.409C185.082 145.691 184.519 145.111 183.813 144.775C183.395 144.669 182.957 144.669 182.539 144.775C181.902 144.882 178.746 146.324 180.09 144.427C180.823 143.576 181.9 143.103 183.02 143.141C183.565 143.191 184.393 143.631 184.379 142.608C184.341 142.241 184.198 141.893 183.968 141.606C183.531 140.949 183.058 140.315 182.553 139.709C182.427 139.523 182.239 139.389 182.022 139.332C181.834 139.326 181.649 139.378 181.492 139.482C180.201 140.266 178.775 140.802 177.288 141.059C176.948 141.059 176.474 140.952 176.531 140.618C176.564 140.497 176.643 140.393 176.75 140.327C177.649 139.617 178.993 139.922 179.913 139.268C180.19 139.091 180.375 138.8 180.416 138.473C180.416 137.997 180.027 137.62 179.644 137.329C178.689 136.496 177.519 135.952 176.269 135.758C174.408 135.609 172.73 136.838 171.478 138.238C171.06 138.714 170.77 139.951 170.126 139.872C169.72 139.728 169.323 139.56 168.937 139.368C168.529 139.24 168.104 139.178 167.677 139.183V139.183Z" fill="#231F20"/>
<path id="Path_42" d="M158.662 129.351C158.583 128.632 158.255 127.963 157.735 127.461C156.787 126.594 155.364 126.551 154.098 126.75C153.148 126.954 152.216 127.232 151.309 127.582C150.396 127.845 150.127 128.051 150.941 128.797C151.515 129.315 153.064 131.17 152.357 132.058C151.649 132.946 150.46 130.68 150 130.303C149.4 129.715 148.602 129.373 147.764 129.344C147.03 129.47 146.355 129.828 145.839 130.367C145.287 130.857 144.763 131.376 144.268 131.923C144.187 132.001 144.125 132.096 144.084 132.2C143.971 132.612 144.53 132.854 144.947 132.911C146.143 133.131 147.481 133.756 147.721 134.95C146.49 135.255 145.329 134.005 144.07 134.14C143.141 134.364 142.385 135.038 142.053 135.938C141.713 136.737 141.607 137.617 141.748 138.474C142.812 138.104 143.95 138.006 145.06 138.19C145.199 138.198 145.329 138.256 145.428 138.353C145.534 138.552 145.461 138.798 145.266 138.908C145.073 139.004 144.856 139.041 144.643 139.014H142.591C142.39 138.993 142.188 139.04 142.017 139.149C141.879 139.293 141.798 139.482 141.791 139.682C141.658 140.624 141.646 141.579 141.755 142.524C141.772 143.111 142.001 143.672 142.399 144.101C142.719 144.344 143.093 144.505 143.489 144.57C144.526 144.82 145.587 144.954 146.653 144.968C146.179 144.302 146.06 143.445 146.334 142.673C146.759 141.679 147.481 142.254 147.516 143.156C147.516 143.583 147.438 144.002 147.424 144.428C147.417 144.509 147.432 144.59 147.467 144.663C147.509 144.718 147.565 144.762 147.629 144.791C148.192 145.096 148.847 145.182 149.469 145.032C149.647 144.997 149.814 144.922 149.958 144.812C150.287 144.418 150.398 143.885 150.255 143.391L149.965 140.826C149.932 140.705 149.959 140.576 150.035 140.478C150.163 140.35 150.389 140.478 150.524 140.577C151.052 141.049 151.334 141.738 151.288 142.446C151.288 142.851 151.118 143.242 151.09 143.64C151.031 144.048 151.193 144.456 151.515 144.713C151.856 144.877 152.248 144.897 152.604 144.769C153.078 144.7 153.514 144.472 153.843 144.123C154.125 143.675 154.209 143.129 154.076 142.616C153.935 142.112 153.836 141.596 153.779 141.075C153.779 140.023 154.855 138.517 155.032 140.364C155.039 140.967 155.003 141.571 154.926 142.169C154.908 142.246 154.908 142.326 154.926 142.403C155.021 142.53 155.171 142.601 155.329 142.595C156.161 142.668 156.997 142.506 157.742 142.126C158.256 141.876 158.706 141.511 159.059 141.06C159.32 140.69 159.541 140.292 159.717 139.874C160.573 138.048 161.939 136.62 160.347 134.666C159.802 133.998 158.79 133.82 158.28 133.138C157.679 132.328 158.606 131.042 158.641 130.026C158.666 129.802 158.673 129.576 158.662 129.351Z" fill="#231F20"/>
<path id="Path_43" d="M153.561 164.238H171.607L170.191 177.838C169.981 179.907 168.243 181.479 166.172 181.476H158.96C156.891 181.475 155.158 179.904 154.948 177.838L153.561 164.238Z" fill="white"/>
<path id="Shape_20" fill-rule="evenodd" clip-rule="evenodd" d="M158.959 181.852H166.199C168.439 181.83 170.302 180.118 170.523 177.88L171.938 164.281C171.951 164.179 171.917 164.077 171.846 164.004C171.779 163.925 171.68 163.881 171.577 163.883H153.531C153.426 163.882 153.326 163.926 153.255 164.004C153.189 164.08 153.156 164.18 153.163 164.281L154.578 177.88C154.804 180.138 156.699 181.856 158.959 181.852ZM155.307 177.809L153.963 164.615H171.202L169.85 177.809C169.661 179.691 168.082 181.122 166.199 181.12H158.959C157.075 181.122 155.496 179.691 155.307 177.809Z" fill="#231F20"/>
<path id="Path_44" d="M165.089 164.488C165.089 164.36 163.674 151.343 170.043 140.855L170.652 141.225C164.417 151.499 165.804 164.274 165.818 164.402L165.089 164.488Z" fill="#231F20"/>
<path id="Path_45" d="M148.699 139.793C148.609 139.792 148.523 139.756 148.458 139.694C148.391 139.627 148.354 139.537 148.354 139.442C148.354 139.347 148.391 139.256 148.458 139.19C152.152 135.282 157.97 132.901 158.217 132.795C158.399 132.722 158.605 132.811 158.677 132.994C158.75 133.176 158.661 133.383 158.479 133.456C158.422 133.456 152.556 135.871 148.968 139.673C148.9 139.75 148.802 139.794 148.699 139.793Z" fill="white"/>
<path id="Path_46" d="M151.189 157.898C151.066 157.897 150.952 157.832 150.889 157.726C150.825 157.62 150.821 157.489 150.878 157.379C152.22 154.848 153.922 152.526 155.93 150.487C155.996 150.42 156.085 150.383 156.178 150.383C156.271 150.383 156.361 150.42 156.426 150.487C156.561 150.625 156.561 150.847 156.426 150.985C154.476 152.974 152.822 155.236 151.514 157.699C151.453 157.822 151.326 157.899 151.189 157.898Z" fill="white"/>
<path id="Path_47" d="M181.28 152.87C181.162 152.869 181.051 152.811 180.983 152.714C180.813 152.451 176.737 146.319 171.903 142.695C171.747 142.578 171.715 142.355 171.833 142.198C171.952 142.045 172.171 142.013 172.328 142.127C177.154 145.786 181.132 151.662 181.57 152.316C181.677 152.479 181.633 152.698 181.471 152.806C181.416 152.847 181.349 152.87 181.28 152.87V152.87Z" fill="white"/>
<rect id="Rectangle_4" x="136.441" y="29.4492" width="42.964" height="30.2826" fill="white"/>
<path id="Shape_21" fill-rule="evenodd" clip-rule="evenodd" d="M136.442 60.0869H179.399C179.594 60.0869 179.753 59.9279 179.753 59.7316V29.449C179.753 29.2528 179.594 29.0938 179.399 29.0938H136.442C136.246 29.0938 136.088 29.2528 136.088 29.449V59.7316C136.088 59.9279 136.246 60.0869 136.442 60.0869ZM179.045 59.3764H136.796V29.8043H179.045V59.3764Z" fill="#D1D3D4"/>
<path id="Path_48" d="M164.168 88.4823C163.993 88.4816 163.844 88.356 163.814 88.1839L162.073 76.8439L159.03 78.1939C158.943 78.2319 158.846 78.2337 158.758 78.1991C158.67 78.1644 158.6 78.096 158.563 78.0091C158.525 77.9235 158.523 77.8263 158.558 77.7394C158.593 77.6525 158.661 77.5833 158.747 77.5473L162.221 76.041C162.319 75.9916 162.435 75.9916 162.533 76.041C162.63 76.0935 162.698 76.1878 162.717 76.2968L164.529 88.056C164.545 88.1496 164.522 88.2457 164.466 88.3222C164.41 88.3987 164.325 88.4488 164.231 88.461L164.168 88.4823Z" fill="#231F20"/>
<path id="Path_49" d="M170.17 100.653H161.309L160.828 81.5039H170.651L170.17 100.653V100.653Z" fill="white"/>
<path id="Shape_22" fill-rule="evenodd" clip-rule="evenodd" d="M161.309 101.001H170.169C170.334 100.989 170.469 100.866 170.495 100.702L170.976 81.5179C170.972 81.3207 170.818 81.1596 170.622 81.1484H160.799C160.703 81.1513 160.611 81.1921 160.544 81.2621C160.479 81.331 160.444 81.4229 160.445 81.5179L160.955 100.659C160.963 100.85 161.119 101.001 161.309 101.001ZM169.844 100.29H161.677L161.188 81.8519H170.304L169.844 100.29Z" fill="#231F20"/>
<rect id="Rectangle_5" x="159.93" y="79.5625" width="11.6203" height="1.93974" fill="white"/>
<path id="Shape_23" fill-rule="evenodd" clip-rule="evenodd" d="M159.93 81.8573H171.55C171.746 81.8573 171.904 81.6982 171.904 81.502V79.5623C171.904 79.3661 171.746 79.207 171.55 79.207H159.93C159.735 79.207 159.576 79.3661 159.576 79.5623V81.502C159.576 81.6982 159.735 81.8573 159.93 81.8573ZM171.196 81.1468H160.284V79.9176H171.196V81.1468Z" fill="#231F20"/>
<path id="Shape_24" fill-rule="evenodd" clip-rule="evenodd" d="M161.759 91.8219C162.531 93.3973 164.187 94.3361 165.929 94.1868C168.173 94.0832 169.911 92.1767 169.815 89.9237C169.808 88.1677 168.73 86.5953 167.099 85.9625C165.467 85.3296 163.616 85.7658 162.436 87.0612C161.255 88.3567 160.986 90.2465 161.759 91.8219ZM162.415 88.3298C163.078 87.0211 164.475 86.2568 165.929 86.4066C167.782 86.5098 169.203 88.0984 169.107 89.9592C169.099 91.4275 168.193 92.7398 166.826 93.2615C165.459 93.7832 163.913 93.4068 162.936 92.3143C161.959 91.2219 161.752 89.6384 162.415 88.3298Z" fill="#D1D3D4"/>
<path id="Shape_25" fill-rule="evenodd" clip-rule="evenodd" d="M146.504 53.2944C147.324 53.5806 148.185 53.7295 149.052 53.7349C151.027 53.6416 152.93 52.9642 154.523 51.7881C156.263 50.6584 157.028 49.5428 156.858 48.3776C156.685 47.6776 156.328 47.0371 155.825 46.5231C155.391 46.106 155.084 45.5737 154.94 44.9884C154.964 44.3248 155.18 43.6826 155.563 43.141C156.662 41.3452 156.771 39.1105 155.853 37.2152C154.82 35.2186 152.654 33.8899 149.908 33.5773C147.93 33.3809 145.977 34.1437 144.65 35.6307C143.44 37.0587 142.944 38.9635 143.306 40.8034C143.362 41.0876 143.433 41.3789 143.511 41.6773L143.519 41.7097C143.799 42.8701 144.063 43.9651 143.362 44.7184C143.027 45.0166 142.644 45.2567 142.23 45.4289C141.607 45.6631 141.065 46.0756 140.673 46.6155C140.426 47.0707 140.341 47.5972 140.432 48.1076C140.687 49.5128 141.509 50.7497 142.704 51.5252L142.704 51.5252C142.938 51.6815 143.171 51.8378 143.412 51.9728C144.397 52.5137 145.433 52.9563 146.504 53.2944ZM146.731 52.6194C145.703 52.2947 144.71 51.8687 143.766 51.3476V51.3831C143.546 51.2542 143.334 51.1142 143.129 50.9639C142.097 50.3 141.379 49.2431 141.14 48.0365C141.072 47.6838 141.124 47.3182 141.289 46.9991C141.615 46.5815 142.051 46.264 142.548 46.0826C143.042 45.8702 143.495 45.572 143.886 45.2015C144.855 44.1648 144.509 42.7519 144.205 41.509L144.204 41.5068C144.134 41.2226 144.063 40.9384 144.006 40.6684C143.688 39.0443 144.123 37.3629 145.188 36.0997C146.359 34.7816 148.087 34.1054 149.838 34.2807C152.343 34.572 154.31 35.7586 155.23 37.542C156.04 39.2477 155.923 41.2513 154.919 42.8497C154.472 43.5012 154.237 44.2756 154.247 45.0665C154.401 45.7914 154.763 46.4555 155.287 46.9778C155.704 47.3954 156.006 47.9144 156.164 48.4841C156.271 49.3439 155.634 50.2249 154.147 51.1984C152.06 52.527 149.717 53.6426 146.731 52.6194Z" fill="#D1D3D4"/>
<path id="Shape_26" fill-rule="evenodd" clip-rule="evenodd" d="M163.037 52.4287C164.713 53.1316 166.507 53.5054 168.323 53.53C169.38 53.5513 170.433 53.405 171.444 53.0966C173.586 52.4178 175.257 50.7216 175.91 48.5634C176.366 46.9095 175.923 45.1364 174.742 43.8953C172.591 41.5221 167.12 40.5771 164.289 41.5221C163.68 41.7392 163.085 41.9931 162.506 42.2824C161.623 42.7649 160.667 43.0962 159.675 43.2629C158.383 43.3155 157.093 43.1177 155.875 42.6803C154.176 42.1971 152.428 41.7068 150.787 42.4174C149.082 43.2592 148.122 45.1163 148.416 47.0003C148.656 48.5257 149.329 49.9493 150.355 51.1C151.563 52.6455 153.466 53.4741 155.415 53.3026C156.273 53.1528 157.104 52.8725 157.878 52.4713C159.313 51.494 161.177 51.4223 162.683 52.2866L163.037 52.4287ZM160.659 50.9721H160.489C159.481 51.0456 158.501 51.3365 157.616 51.8247C156.908 52.1933 156.15 52.4543 155.365 52.5992C153.242 52.8692 151.671 51.4766 150.921 50.631C149.976 49.5824 149.352 48.2823 149.124 46.8866C148.874 45.3209 149.653 43.771 151.056 43.0426C152.46 42.4191 154.012 42.8625 155.649 43.3299L155.663 43.3339C156.969 43.7995 158.354 44.007 159.739 43.945C160.798 43.7578 161.82 43.3952 162.761 42.8721C163.314 42.6004 163.884 42.3631 164.466 42.1616C167.056 41.2876 172.23 42.2042 174.169 44.3358C175.184 45.403 175.568 46.9265 175.181 48.3503C174.586 50.2724 173.089 51.7784 171.175 52.3789C168.558 53.101 165.772 52.8824 163.299 51.7608L162.959 51.6187C162.236 51.27 161.457 51.0512 160.659 50.9721Z" fill="#D1D3D4"/>
<path id="Shape_27" fill-rule="evenodd" clip-rule="evenodd" d="M164.806 47.1497C165.432 47.8775 166.362 48.2692 167.318 48.2084L167.764 48.2226C169.625 48.1804 171.427 47.5598 172.923 46.4463C175.768 44.1371 174.855 41.8563 174.055 40.7052C171.798 37.451 164.876 35.156 161.147 37.3586C159.782 38.1914 158.831 39.5642 158.528 41.1386C158.281 42.3406 158.568 43.5912 159.314 44.5634C159.983 45.349 160.953 45.8136 161.982 45.8423C162.554 45.8922 163.112 46.0438 163.631 46.29C164.064 46.5137 164.461 46.8038 164.806 47.1497ZM161.508 37.9342C162.509 37.3942 163.634 37.1294 164.77 37.1668C168.068 37.1668 171.96 38.8934 173.475 41.0818C174.6 42.7373 174.282 44.3929 172.477 45.8636C171.087 46.8654 169.431 47.4271 167.721 47.4765C166.819 47.6596 165.889 47.3357 165.294 46.631C164.46 45.7225 163.309 45.1727 162.081 45.0963C161.233 45.0869 160.43 44.7147 159.873 44.0731C159.25 43.268 159.014 42.2274 159.229 41.231C159.494 39.8595 160.321 38.663 161.508 37.9342Z" fill="#D1D3D4"/>
<path id="Path_50" d="M59.316 45.6225C59.316 45.6225 61.6018 43.761 59.316 41.3594H55.6289C55.6289 41.3594 56.4215 44.4644 55.6289 45.6225H59.316Z" fill="#231F20"/>
<path id="Shape_28" fill-rule="evenodd" clip-rule="evenodd" d="M55.6295 45.9783H59.3165C59.3889 45.9728 59.458 45.9456 59.5147 45.9001C60.162 45.3391 60.572 44.5514 60.6612 43.6975C60.6717 42.717 60.2649 41.7787 59.543 41.1183C59.4739 41.0527 59.3833 41.0148 59.2882 41.0117H55.6012C55.4913 41.0111 55.387 41.0608 55.3181 41.1467C55.2551 41.2378 55.2321 41.3508 55.2544 41.4594C55.4667 42.2765 55.8842 44.5857 55.311 45.417C55.2438 45.5309 55.2438 45.6726 55.311 45.7865C55.3749 45.9034 55.4966 45.9768 55.6295 45.9783ZM59.175 45.2678H56.1815C56.3959 44.0907 56.3524 42.8808 56.0541 41.7223H59.1396C59.6624 42.2249 59.9566 42.9211 59.9535 43.6478C59.8942 44.2636 59.6182 44.8379 59.175 45.2678Z" fill="#231F20"/>
<path id="Path_51" d="M57.3128 44.2163C57.4214 43.376 57.1244 42.534 56.5131 41.9497C56.2428 41.5966 55.9315 41.277 55.586 40.9976C54.9224 40.5644 54.1787 40.2696 53.3993 40.1308C51.6796 39.7116 49.6697 40.2445 47.9146 40.28C46.0294 40.3159 44.1564 39.9678 42.4088 39.2568C41.8083 39.0532 41.2699 38.6985 40.8448 38.2266C40.406 40.8058 40.4626 43.6479 41.9417 45.815C43.195 47.4508 44.9275 48.6511 46.8956 49.2468C49.5592 50.3256 52.5948 49.8833 54.843 48.0887C55.8522 47.3236 56.631 46.2933 57.0934 45.1116C57.196 44.8212 57.2695 44.5213 57.3128 44.2163Z" fill="white"/>
<path id="Shape_29" fill-rule="evenodd" clip-rule="evenodd" d="M46.7485 49.581C47.778 49.9604 48.8647 50.1598 49.9614 50.1708C51.8168 50.1577 53.6121 49.5084 55.0497 48.3305C56.1077 47.5222 56.9251 46.4386 57.4134 45.1971C57.5345 44.8852 57.6222 44.5613 57.6752 44.2308C57.8049 43.29 57.4818 42.3433 56.8048 41.68C56.5118 41.311 56.1822 40.973 55.8211 40.671C55.1173 40.2091 54.3277 39.895 53.4999 39.7474C52.2565 39.5305 50.9853 39.5305 49.742 39.7474C49.6604 39.7565 49.5794 39.7657 49.4989 39.7748C48.9513 39.8372 48.4292 39.8966 47.9232 39.8966C46.0806 39.9534 44.2451 39.6418 42.5235 38.98C41.983 38.7941 41.4968 38.4768 41.1082 38.0563C41.0243 37.9448 40.8822 37.8945 40.7472 37.9284C40.6126 37.9645 40.5107 38.0751 40.4854 38.2126C39.9263 41.4526 40.3085 44.0887 41.6319 46.0284C42.9249 47.7212 44.7146 48.9638 46.7485 49.581ZM42.2192 45.6092C41.0799 43.9253 40.7119 41.7226 41.0799 38.9516C41.4365 39.2196 41.8237 39.4438 42.2334 39.6195C44.0332 40.3401 45.9575 40.6951 47.8949 40.6639C48.4586 40.6508 49.0587 40.5889 49.6389 40.529C49.6852 40.5242 49.7314 40.5194 49.7774 40.5147C50.9483 40.3125 52.145 40.3125 53.3159 40.5147C54.0482 40.644 54.7479 40.9168 55.3752 41.3176C55.6963 41.5654 55.9904 41.8464 56.2528 42.156C56.7897 42.6689 57.0523 43.4072 56.9605 44.1455C56.9097 44.4273 56.8314 44.7033 56.7269 44.9697C56.2919 46.0944 55.5575 47.0776 54.6039 47.8118C52.4456 49.5226 49.5405 49.9428 46.9891 48.9131C45.0926 48.3429 43.4235 47.1867 42.2192 45.6092Z" fill="#231F20"/>
<rect id="Rectangle_6" x="101" y="25.6914" width="30.0486" height="19.9232" fill="white"/>
<path id="Shape_30" fill-rule="evenodd" clip-rule="evenodd" d="M101 45.976H131.049C131.243 45.9722 131.399 45.8154 131.403 45.6208V25.6834C131.399 25.4888 131.243 25.3319 131.049 25.3281H101C100.805 25.3281 100.646 25.4872 100.646 25.6834V45.6208C100.646 45.817 100.805 45.976 101 45.976ZM130.723 45.2655H101.326L101.354 26.0458H130.723V45.2655Z" fill="#D1D3D4"/>
<rect id="Rectangle_7" x="101" y="45.6211" width="30.0486" height="3.94342" fill="white"/>
<path id="Shape_31" fill-rule="evenodd" clip-rule="evenodd" d="M101 49.9196H131.049C131.244 49.9196 131.403 49.7605 131.403 49.5643V45.6209C131.403 45.4247 131.244 45.2656 131.049 45.2656H101C100.805 45.2656 100.646 45.4247 100.646 45.6209V49.5643C100.646 49.7605 100.805 49.9196 101 49.9196ZM130.723 49.209H101.326L101.354 45.9762H130.723V49.209Z" fill="#D1D3D4"/>
<path id="Path_52" d="M104.439 40.9833C104.3 40.9888 104.172 40.9115 104.112 40.7865C104.053 40.6615 104.072 40.5128 104.163 40.4078C104.502 39.9815 112.655 29.9418 120.255 30.5457C123.284 30.7873 125.351 32.3789 125.79 34.8089C126.196 36.9481 125.119 39.0944 123.164 40.0383C121.041 41.026 119.074 41.0118 117.701 39.9957C116.486 39.0221 115.922 37.4441 116.243 35.9173C116.301 34.5922 117.191 33.4503 118.458 33.0752C119.762 32.7299 121.151 33.1247 122.081 34.1055C122.511 34.581 122.604 35.2735 122.315 35.8462C121.777 36.8907 121.14 37.4378 120.418 37.4662C119.265 37.4662 118.415 36.1518 118.38 36.0949C118.331 36.014 118.316 35.9167 118.338 35.8246C118.361 35.7325 118.419 35.6533 118.5 35.6047C118.58 35.5555 118.676 35.5406 118.766 35.5634C118.857 35.5861 118.934 35.6445 118.982 35.7255C119.166 36.0168 119.753 36.7912 120.397 36.7557C121.041 36.7202 121.402 36.0452 121.685 35.5194C121.845 35.1972 121.783 34.8082 121.529 34.5531C120.781 33.7888 119.682 33.4852 118.649 33.7573C117.659 34.0641 116.973 34.9697 116.943 36.0097C116.666 37.2757 117.12 38.5907 118.118 39.4131C119.272 40.2728 121.006 40.2657 122.867 39.4131C124.534 38.5949 125.437 36.7468 125.061 34.9226C124.686 32.8407 122.86 31.4694 120.171 31.2562C112.973 30.6594 104.792 40.7489 104.715 40.8555C104.646 40.9368 104.545 40.9836 104.439 40.9833Z" fill="#D1D3D4"/>
<path id="Shape_32" fill-rule="evenodd" clip-rule="evenodd" d="M104.594 64.1466H116.172C116.367 64.1466 116.526 63.9875 116.526 63.7913V54.5545C116.526 54.3583 116.367 54.1992 116.172 54.1992H104.594C104.399 54.1992 104.24 54.3583 104.24 54.5545V63.7913C104.24 63.9875 104.399 64.1466 104.594 64.1466ZM115.818 63.4361H104.948V54.9097H115.818V63.4361Z" fill="#D1D3D4"/>
<path id="Path_53" d="M110.383 56.2367C110.188 56.2367 110.029 56.0776 110.029 55.8814V53.6717C110.029 53.4755 110.188 53.3164 110.383 53.3164C110.579 53.3164 110.737 53.4755 110.737 53.6717V55.8672C110.741 55.9639 110.705 56.0579 110.638 56.1276C110.572 56.1974 110.479 56.2367 110.383 56.2367V56.2367Z" fill="#D1D3D4"/>
</g>
</g>
</g>
<defs>
<linearGradient id="paint0_linear_7497_240" x1="0" y1="202" x2="202" y2="202" gradientUnits="userSpaceOnUse">
<stop stop-color="#5D0202" stop-opacity="0.01"/>
<stop offset="1" stop-color="#5D0202" stop-opacity="0.497569"/>
</linearGradient>
</defs>
</svg>
