<svg width="202" height="202" viewBox="0 0 202 202" fill="none" xmlns="http://www.w3.org/2000/svg">
<g id="Group 21">
<circle id="Oval Copy 3" opacity="0.202683" cx="101" cy="101" r="101" transform="matrix(0 -1 -1 0 202 202)" fill="url(#paint0_linear_7497_405)"/>
<g id="share(1) 2">
<g id="share(1)">
<path id="Path" d="M173.226 39.4828C172.23 39.4328 171.234 39.5676 170.288 39.8805C168.888 40.5019 167.525 43.7764 166.555 48.9151C165.705 53.3655 165.34 57.8946 165.466 62.4234C165.493 63.2371 165.909 63.9883 166.586 64.4428C170.942 67.5496 185.721 63.7531 187.289 63.3368C188.036 61.9077 194.844 48.5298 191.49 44.9322C188.54 41.7446 178.646 39.4828 173.226 39.4828Z" fill="white"/>
<path id="Shape" fill-rule="evenodd" clip-rule="evenodd" d="M166.213 64.9352C167.57 65.9169 169.835 66.2711 172.392 66.2711C178.349 66.2711 185.91 64.3448 187.367 63.9734C187.483 63.944 187.56 63.9244 187.595 63.9162C187.681 63.892 187.753 63.8336 187.794 63.7546L187.799 63.7451C188.195 62.9995 195.828 48.624 191.963 44.4925C188.08 40.3418 173.662 37.7321 170.034 39.2855C166.406 40.8389 164.458 55.4408 164.825 62.4498C164.864 63.4518 165.38 64.3751 166.213 64.9352ZM170.289 39.882C171.235 39.5691 172.231 39.4343 173.226 39.4843C178.646 39.4843 188.541 41.7461 191.49 44.9336C194.845 48.5313 188.037 61.9092 187.29 63.3383C185.722 63.7546 170.942 67.5511 166.586 64.4443C165.91 63.9898 165.493 63.2386 165.466 62.4249C165.34 57.8961 165.706 53.367 166.555 48.9166C167.526 43.7779 168.889 40.5033 170.289 39.882Z" fill="#231F20"/>
<path id="Path_2" d="M131.438 147.084C141.817 142.515 148.843 132.621 149.728 121.329L139.429 110.281L125.271 137.578" fill="white"/>
<path id="Path_3" d="M131.438 147.408C131.286 147.403 131.158 147.292 131.132 147.143C131.105 146.993 131.186 146.845 131.326 146.787C141.513 142.241 148.432 132.54 149.404 121.442L139.509 110.829L125.564 137.721C125.473 137.858 125.293 137.904 125.147 137.83C125.001 137.755 124.934 137.583 124.991 137.429L139.148 110.133C139.196 110.04 139.287 109.977 139.391 109.965C139.494 109.948 139.599 109.983 139.671 110.058L149.97 121.112C150.032 121.179 150.064 121.269 150.057 121.361C149.106 132.757 142.013 142.731 131.55 147.383C131.515 147.4 131.477 147.409 131.438 147.408V147.408Z" fill="#231F20"/>
<path id="Path_4" d="M163.363 163.961L194.515 163.358L194.085 124.188L148.341 125.834L141.975 163.961H163.363V163.961Z" fill="#231F20"/>
<path id="Shape_2" fill-rule="evenodd" clip-rule="evenodd" d="M141.975 164.27H163.363H163.369L194.521 163.648C194.603 163.647 194.682 163.612 194.739 163.553C194.796 163.493 194.828 163.414 194.826 163.331L194.396 124.186C194.397 124.1 194.361 124.019 194.297 123.962C194.235 123.907 194.156 123.876 194.073 123.875L148.328 125.522C148.18 125.526 148.057 125.636 148.036 125.783L141.67 163.909C141.652 163.998 141.677 164.09 141.738 164.158C141.796 164.229 141.883 164.27 141.975 164.27ZM163.363 163.648H142.342L148.602 126.131L193.78 124.503L194.204 163.027L163.363 163.648Z" fill="#231F20"/>
<path id="Path_5" d="M200.518 80.7281C197.73 76.944 191.059 74.9495 186.566 74.2349C182.241 73.5514 177.91 74.2349 173.567 73.8621C169.589 73.6296 165.6 74.0196 161.743 75.0178C147.25 79.0194 133.777 99.9716 133.777 99.9716L148.551 100.748C148.551 100.748 146.404 116.177 140.243 149.985C165.906 150.898 195.776 153.446 195.776 153.446C195.776 153.446 195.907 146.368 196.23 139.403C198.545 137.247 198.464 133.811 198.888 131.816C199.435 129.25 198.328 101.37 198.328 101.37L201.694 100.127C201.694 100.127 201.738 82.3561 200.518 80.7281Z" fill="#E7816B"/>
<path id="Path_6" d="M166.001 80.3389L154.744 154.274L168.186 155.623L183.475 80.1836L166.001 80.3389V80.3389Z" fill="#231F20"/>
<path id="Shape_3" fill-rule="evenodd" clip-rule="evenodd" d="M168.154 155.932H168.186C168.335 155.931 168.463 155.824 168.49 155.677L183.774 80.2441C183.792 80.1512 183.767 80.0551 183.705 79.9831C183.647 79.9097 183.557 79.8683 183.463 79.8712L165.995 80.0266C165.843 80.0277 165.714 80.1379 165.69 80.2876L154.433 154.229C154.417 154.312 154.438 154.398 154.489 154.465C154.543 154.532 154.622 154.574 154.707 154.583L168.154 155.932ZM167.955 155.286L155.117 153.999L166.288 80.6417L183.089 80.4926L167.955 155.286Z" fill="#231F20"/>
<path id="Path_7" d="M167.997 71.0661L166.062 80.3368C166.062 80.3368 168.122 86.4945 174.364 85.842C178.099 85.4203 181.445 83.3411 183.474 80.1815L185.689 63.1438C185.689 63.1438 181.526 60.1551 184.152 50.6172C178.922 52.0747 173.396 52.1005 168.153 50.6918C168.153 50.6918 163.99 60.8634 164.096 65.6044C164.202 70.3453 167.997 71.0661 167.997 71.0661Z" fill="white"/>
<path id="Shape_4" fill-rule="evenodd" clip-rule="evenodd" d="M165.762 80.4473C165.86 80.7166 167.871 86.2162 173.462 86.2162C173.782 86.2166 174.102 86.1979 174.42 86.1603C178.257 85.7431 181.693 83.6019 183.755 80.3444C183.777 80.3085 183.792 80.2683 183.798 80.2263L186.014 63.1887C186.032 63.0705 185.982 62.9521 185.883 62.8842C185.846 62.8593 181.931 59.9203 184.464 50.6993C184.496 50.5858 184.463 50.4636 184.377 50.3825C184.29 50.3022 184.166 50.276 184.053 50.3141C178.882 51.7379 173.424 51.7615 168.241 50.3825C168.084 50.3428 167.922 50.4251 167.861 50.5751C167.687 50.9914 163.68 60.8648 163.779 65.6492C163.891 69.7875 166.667 71.0054 167.625 71.3036L165.758 80.2698C165.742 80.3246 165.742 80.3828 165.758 80.4376C165.759 80.4388 165.76 80.4421 165.762 80.4473ZM174.333 85.5265C168.726 86.1044 166.667 81.0465 166.399 80.3133L168.309 71.1607C168.327 71.0745 168.309 70.9848 168.26 70.9122C168.212 70.8421 168.138 70.7948 168.054 70.7817L168.049 70.7806C167.838 70.7373 164.506 70.0541 164.414 65.6555C164.329 61.5193 167.573 53.1085 168.301 51.223C168.317 51.1796 168.333 51.1396 168.347 51.1032C173.384 52.3684 178.656 52.3684 183.692 51.1032C181.583 59.3984 184.601 62.6792 185.348 63.3005L183.164 80.0772C181.17 83.1066 177.938 85.1013 174.333 85.5265Z" fill="#231F20"/>
<path id="Path_8" d="M182.187 62.3742C182.504 61.5711 183.074 60.8928 183.811 60.4418C184.514 60.0555 185.278 59.7928 186.07 59.6651C186.496 59.5486 186.942 59.5274 187.377 59.6029C187.672 59.6955 187.949 59.8408 188.192 60.0317C188.797 60.4417 189.237 61.051 189.437 61.7528C189.525 62.3368 189.472 62.9335 189.281 63.4926C189.125 64.1129 188.884 64.7088 188.565 65.2635C187.908 66.3741 186.83 67.174 185.576 67.4837C184.321 67.7933 182.995 67.5867 181.895 66.9101" fill="white"/>
<path id="Path_9" d="M184.439 67.9365C183.487 67.938 182.552 67.6779 181.738 67.1846C181.588 67.0912 181.541 66.8947 181.633 66.7434C181.676 66.6701 181.748 66.6176 181.831 66.5977C181.914 66.5778 182.002 66.5923 182.074 66.6378C183.106 67.2566 184.338 67.4484 185.509 67.1722C186.681 66.8802 187.688 66.136 188.31 65.1031C188.613 64.5713 188.841 64.0005 188.988 63.4068C189.163 62.9001 189.215 62.3589 189.137 61.8285C188.953 61.2014 188.554 60.6585 188.011 60.2937C187.8 60.1241 187.56 59.9956 187.302 59.9147C186.916 59.8531 186.521 59.8743 186.144 59.9768C185.378 60.0995 184.637 60.3494 183.954 60.7163C183.276 61.1312 182.752 61.7549 182.46 62.4934C182.395 62.6649 182.203 62.7512 182.031 62.686C181.859 62.6208 181.773 62.4288 181.838 62.2572C182.184 61.3916 182.799 60.6597 183.593 60.1695C184.345 59.7641 185.162 59.4929 186.007 59.3679C186.48 59.2379 186.976 59.2188 187.457 59.312C187.795 59.4118 188.11 59.5764 188.384 59.7967C189.058 60.2461 189.547 60.9236 189.76 61.7042C189.857 62.3291 189.803 62.968 189.604 63.5683C189.44 64.2204 189.189 64.8475 188.857 65.4324C188.148 66.6115 187 67.4626 185.665 67.7998C185.263 67.8945 184.852 67.9404 184.439 67.9365V67.9365Z" fill="#231F20"/>
<path id="Path_10" d="M167.252 75.7017C169.475 76.2597 171.831 75.8292 173.711 74.5211C176.723 72.3153 176.692 70.793 176.692 70.793C176.692 70.793 172.081 72.5701 168.223 71.2466L167.252 75.7017Z" fill="#231F20"/>
<path id="Shape_5" fill-rule="evenodd" clip-rule="evenodd" d="M167.165 75.9996C167.837 76.1743 168.53 76.26 169.224 76.2543C170.899 76.2643 172.533 75.7372 173.885 74.7506C176.997 72.4765 176.997 70.8361 176.997 70.7677C176.997 70.6668 176.946 70.5728 176.86 70.5192C176.772 70.4728 176.668 70.4728 176.58 70.5192C176.536 70.5378 172.025 72.2093 168.322 70.9666C168.243 70.9295 168.152 70.9295 168.073 70.9666C167.995 71.0093 167.941 71.0845 167.924 71.1716L166.953 75.6392C166.917 75.7963 167.01 75.9543 167.165 75.9996ZM173.531 74.2722C171.809 75.4659 169.671 75.8996 167.619 75.4714L168.453 71.6438C171.539 72.5634 174.943 71.6873 176.25 71.271C176.02 71.8551 175.366 72.9238 173.531 74.2722Z" fill="#231F20"/>
<path id="Path_11" d="M173.568 57.1992C173.568 57.1992 169.616 61.3561 170.226 62.3006C170.836 63.245 173.02 63.0959 173.02 63.0959" fill="white"/>
<path id="Path_12" d="M172.559 63.3864C171.818 63.3864 170.48 63.2684 169.964 62.4668C169.292 61.4354 172.098 58.2851 173.337 56.9864C173.395 56.9276 173.475 56.8945 173.558 56.8945C173.641 56.8945 173.72 56.9276 173.778 56.9864C173.837 57.0437 173.87 57.1221 173.87 57.2039C173.87 57.2857 173.837 57.3641 173.778 57.4214C171.762 59.5464 170.219 61.7709 170.474 62.1437C170.885 62.7651 172.465 62.8086 172.963 62.7651C173.133 62.7507 173.283 62.8753 173.299 63.0447C173.306 63.1271 173.28 63.2089 173.226 63.2719C173.172 63.3349 173.096 63.3739 173.013 63.3802C172.988 63.374 172.801 63.3864 172.559 63.3864Z" fill="#231F20"/>
<ellipse id="Oval" cx="178.918" cy="57.9739" rx="1.11247" ry="0.790145" transform="rotate(-68.08 178.918 57.9739)" fill="#231F20"/>
<ellipse id="Oval_2" cx="170.721" cy="56.634" rx="1.11247" ry="0.790145" transform="rotate(-68.08 170.721 56.634)" fill="#231F20"/>
<path id="Path_13" d="M173.014 68.6298C172.695 68.6293 172.377 68.5896 172.068 68.5118C167.762 67.4741 167.862 62.4535 167.862 62.4038C167.872 62.2337 168.014 62.1019 168.185 62.1055C168.267 62.1071 168.345 62.1417 168.401 62.2013C168.457 62.2609 168.487 62.3406 168.484 62.4224C168.484 62.6088 168.403 66.9894 172.218 67.909C176.032 68.8286 177.918 62.8077 177.936 62.7455C177.962 62.6309 178.05 62.5405 178.164 62.5118C178.278 62.4831 178.399 62.5211 178.476 62.61C178.552 62.6989 178.573 62.8234 178.528 62.9319C178.447 63.1805 176.698 68.6298 173.014 68.6298Z" fill="#231F20"/>
<path id="Path_14" d="M37 82.9805L60.2612 109.009L92.8071 120.374L88.6502 128.961C88.6502 128.961 67.5234 125.773 59.2033 124.841C50.8833 123.909 40.3666 111.433 40.3666 111.433L37 82.9805Z" fill="white"/>
<path id="Shape_6" fill-rule="evenodd" clip-rule="evenodd" d="M88.6063 129.263H88.6499C88.7708 129.264 88.8806 129.193 88.9299 129.083L93.0931 120.471C93.1304 120.39 93.1304 120.297 93.0931 120.216C93.06 120.135 92.9945 120.072 92.9126 120.042L60.4415 108.702L37.23 82.7357C37.139 82.6347 36.9928 82.6045 36.8691 82.6611C36.7493 82.7195 36.6776 82.8453 36.6886 82.978L40.0552 111.467C40.0618 111.528 40.088 111.585 40.1299 111.629C40.5593 112.145 50.8208 124.205 59.1658 125.143C65.3472 125.84 78.7595 127.818 85.1228 128.757C87.2218 129.067 88.5539 129.263 88.6063 129.263ZM59.2342 124.522C51.4556 123.646 41.53 112.3 40.665 111.293L37.4229 83.91L60.0432 109.193C60.0784 109.233 60.1234 109.263 60.1739 109.28L92.3899 120.533L88.4819 128.611C86.1607 128.25 67.0128 125.398 59.2342 124.522Z" fill="#231F20"/>
<path id="Path_15" d="M48.2934 70.0748C47.9698 67.8938 47.0924 65.8371 46.4266 63.7431C44.7464 58.6666 44.5037 53.4286 42.7426 48.3707C40.4837 41.8651 36.1463 37.1303 28.5606 37.3975C25.4372 37.3996 22.6215 39.2771 21.4229 42.1571C17.8323 40.1812 13.0469 44.2014 12.8788 47.8798C12.6299 53.3043 12.9784 57.9334 10.6137 63.072C8.82151 66.9742 6.04609 70.6278 5.81584 74.9152C5.58559 79.2025 8.01875 83.2103 11.5036 85.5777C14.9884 87.9451 19.3818 88.7342 23.5823 88.4235C27.7827 88.1128 31.8463 86.7707 35.748 85.1676C37.6682 84.4259 39.5107 83.4977 41.2491 82.3963C45.2131 79.7493 49.0526 75.1202 48.2934 70.0748Z" fill="white"/>
<path id="Shape_7" fill-rule="evenodd" clip-rule="evenodd" d="M11.3298 85.8307C14.4626 87.8451 18.1275 88.8773 21.8527 88.7946C22.4315 88.7946 23.0164 88.7759 23.5889 88.7449C28.2188 88.4031 32.5686 86.8124 35.8481 85.4641C37.7936 84.7179 39.6594 83.7791 41.4176 82.6617C45.4065 79.9837 49.3891 75.2924 48.6175 70.0419C48.3159 68.3908 47.8575 66.7721 47.2484 65.2078C47.0618 64.692 46.8813 64.1701 46.707 63.6544C45.9573 61.2101 45.369 58.7193 44.946 56.1981C44.4959 53.5147 43.8533 50.8671 43.0231 48.2757C40.3908 40.7138 35.3751 36.8676 28.5299 37.0913C25.4127 37.0971 22.5829 38.9112 21.2802 41.739C19.7062 41.0818 17.9096 41.2349 16.4699 42.1491C14.267 43.3794 12.6677 45.7282 12.5682 47.8656C12.5636 47.9642 12.5589 48.0629 12.5543 48.1617C12.5147 49.0032 12.4748 49.8505 12.4748 50.668C12.3566 55.0175 12.2508 58.7456 10.3341 62.9398C9.84699 63.9977 9.27643 65.0557 8.72157 66.0845L8.68506 66.1522C7.20401 68.8986 5.67318 71.7382 5.50516 74.901C5.28113 78.9957 7.59606 83.2769 11.3298 85.8307ZM16.7686 42.6835C17.5557 42.2187 18.4494 41.9641 19.3636 41.9441L19.3698 41.9689C20.037 41.9635 20.6946 42.1282 21.2802 42.4474C21.3591 42.4844 21.4503 42.4844 21.5292 42.4474C21.6087 42.4201 21.6738 42.3618 21.7096 42.2858C22.8571 39.5202 25.5568 37.7141 28.5548 37.7064C35.2258 37.4703 39.8681 41.0928 42.4568 48.4746C43.2713 51.039 43.8953 53.66 44.3237 56.3161C44.7548 58.8583 45.3514 61.3698 46.1096 63.8346C46.2462 64.2485 46.3904 64.6587 46.5333 65.065C46.5727 65.1771 46.612 65.2889 46.651 65.4004C47.2469 66.9266 47.6969 68.5057 47.9952 70.1165C48.7295 75.0812 44.8962 79.5798 41.0691 82.1336C39.3494 83.2264 37.5255 84.1464 35.624 84.88C32.3881 86.2097 28.0694 87.7942 23.5516 88.1111C19.0338 88.428 14.8209 87.4524 11.6721 85.3212C8.08766 82.8854 5.90965 78.8093 6.115 74.932C6.28273 71.9175 7.77754 69.1382 9.21894 66.4582L9.22646 66.4443C9.79897 65.388 10.3901 64.2944 10.8942 63.2008C12.8609 58.9141 12.972 54.9361 13.0898 50.719L13.0909 50.6804C13.1158 49.7546 13.1407 48.8412 13.1842 47.8905C13.2713 45.9581 14.7462 43.8144 16.7686 42.6835Z" fill="#231F20"/>
<path id="Path_16" d="M48.4124 86.8825C48.151 85.851 47.871 84.832 47.5599 83.8192C46.7384 81.1038 45.7614 77.1644 43.8261 75.0083C40.6711 71.5163 33.5708 71.4044 29.2583 71.3796C22.5811 71.3423 15.7546 72.9081 10.2971 76.7419C1.89614 82.6448 0.340417 91.2133 1.30497 100.77C2.41265 111.457 3.79413 122.12 5.29385 132.764C5.4432 133.857 7.24162 150.118 8.0506 150.124C8.10661 150.124 63.4345 150.168 61.6672 151.473C59.178 142.842 57.3112 134.075 55.3074 125.376C54.8842 123.512 54.1313 121.821 53.6708 120.007C53.0049 117.385 53.3098 114.508 53.0485 111.824C52.5071 105.61 51.1816 99.4961 49.8872 93.4067C49.433 91.2196 48.96 89.0386 48.4124 86.8825Z" fill="#E7816B"/>
<path id="Path_17" d="M64.0939 164.166L57.7527 136.379L6.53817 140.592L5.88477 164.166H64.0939V164.166Z" fill="#231F20"/>
<path id="Shape_8" fill-rule="evenodd" clip-rule="evenodd" d="M5.88538 164.475H64.0945C64.1779 164.465 64.254 164.423 64.3061 164.357C64.3637 164.283 64.3864 164.188 64.3683 164.096L58.0271 136.309C57.9868 136.162 57.8503 136.061 57.6973 136.067L6.48278 140.279C6.32441 140.295 6.20201 140.425 6.19652 140.584L5.57423 164.158C5.57343 164.241 5.60463 164.321 5.66135 164.382C5.72071 164.441 5.80129 164.475 5.88538 164.475ZM63.7149 163.854H6.22142L6.82504 140.876L57.492 136.713L63.7149 163.854Z" fill="#231F20"/>
<path id="Path_18" d="M33.7146 94.7847C33.8852 94.8544 34.0659 94.8964 34.2498 94.909C35.4135 94.996 36.3282 93.9148 36.8074 92.8523C37.8777 90.4849 37.8777 87.7882 37.6911 85.2034C37.6554 83.6767 37.328 82.1709 36.7265 80.7669C36.1543 79.6774 35.3865 78.7023 34.4614 77.89C32.7998 76.3552 30.7836 75.069 28.5372 74.7832C26.2907 74.4973 23.005 75.7152 22.3142 78.1758C21.5924 80.8352 24.3927 83.5133 25.7493 85.4705C27.7076 88.2994 29.8487 90.9977 32.1589 93.5482C32.5762 94.0735 33.1083 94.4965 33.7146 94.7847Z" fill="#231F20"/>
<path id="Shape_9" fill-rule="evenodd" clip-rule="evenodd" d="M34.2241 95.2178H34.3859C35.9478 95.2178 36.8439 93.5402 37.0866 92.9872C38.213 90.5079 38.1819 87.6808 38.0014 85.1953C37.9611 83.6279 37.6232 82.0824 37.0057 80.6408C36.4196 79.5162 35.6282 78.511 34.6721 77.6769C32.6621 75.8128 30.6086 74.7441 28.5737 74.5079C25.9725 74.1973 22.7241 75.5829 22.0334 78.1305C21.4111 80.4046 23.166 82.6477 24.5723 84.4435C24.9208 84.8909 25.2444 85.3072 25.5058 85.6862C27.4763 88.5127 29.6255 91.2108 31.9403 93.7639C32.3876 94.3208 32.9557 94.7691 33.6018 95.0749C33.8022 95.149 34.0114 95.1971 34.2241 95.2178ZM34.2739 94.5903C34.1199 94.5788 33.9687 94.5431 33.8258 94.4846C33.2676 94.2062 32.7819 93.802 32.407 93.3041C30.1063 90.7673 27.9736 88.0835 26.0223 85.2699C25.7588 84.9191 25.4512 84.5242 25.1254 84.1061C25.105 84.0799 25.0845 84.0536 25.064 84.0272C23.7385 82.3433 22.0956 80.2369 22.6308 78.2609C23.2282 76.0551 26.2028 74.8248 28.499 75.092C30.4032 75.3157 32.3385 76.3285 34.249 78.0994C35.1487 78.8823 35.8938 79.8265 36.4457 80.8831C37.0267 82.2618 37.3434 83.7372 37.3791 85.2326C37.5533 87.6186 37.5845 90.3712 36.5203 92.7262C36.091 93.6707 35.2509 94.6773 34.2739 94.5903Z" fill="#231F20"/>
<rect id="Rectangle" x="60.584" y="45.2695" width="87.4817" height="93.2536" fill="white"/>
<path id="Shape_10" fill-rule="evenodd" clip-rule="evenodd" d="M60.5846 138.826H148.06C148.232 138.826 148.371 138.687 148.371 138.515V45.2677C148.371 45.0961 148.232 44.957 148.06 44.957H60.5846C60.4127 44.957 60.2734 45.0961 60.2734 45.2677V138.515C60.2734 138.687 60.4127 138.826 60.5846 138.826ZM147.749 138.204H60.8957V45.5784H147.749V138.204Z" fill="#231F20"/>
<rect id="Rectangle_2" x="66.2285" y="52.4375" width="76.1809" height="68.4551" fill="white"/>
<path id="Shape_11" fill-rule="evenodd" clip-rule="evenodd" d="M66.2291 121.205H142.416C142.501 121.205 142.582 121.171 142.641 121.11C142.699 121.049 142.731 120.967 142.727 120.882V52.4396C142.727 52.268 142.588 52.1289 142.416 52.1289H66.2291C66.0573 52.1289 65.918 52.268 65.918 52.4396V120.895C65.918 121.066 66.0573 121.205 66.2291 121.205ZM142.105 120.584H66.5403V52.7503H142.105V120.584Z" fill="#D1D3D4"/>
<path id="Path_19" d="M133.891 76.3497C132.796 77.5551 131.75 78.8351 130.605 79.9598C127.612 83.0044 124.575 86.0056 121.557 89.0254C121.451 89.131 121.37 89.2739 121.246 89.3299C120.705 89.566 120.001 90.0879 119.64 89.9077C119.146 89.526 118.846 88.9464 118.819 88.3233C118.732 85.9932 118.788 83.6631 118.788 81.1714C117.805 81.1714 116.877 81.1341 115.95 81.1714C112.447 81.3392 109.074 82.0351 106.025 83.8557C102.257 85.9428 99.8735 89.8629 99.7582 94.164C99.7904 95.3227 99.9766 96.4719 100.312 97.5815C100.443 98.1656 100.773 98.8242 100.038 99.0541C99.4858 99.0563 98.971 98.7746 98.6755 98.3085C97.7284 96.4306 96.9696 94.4637 96.4103 92.4367C94.3132 82.9671 99.5218 74.2868 108.937 71.3104C111.651 70.444 114.483 70.0018 117.332 69.9994H118.782C118.782 68.1788 118.782 66.4452 118.782 64.7116C118.763 63.8798 118.819 63.048 118.95 62.2262C119.136 61.2817 119.734 61.058 120.574 61.524C120.914 61.7367 121.223 61.9937 121.495 62.2883C125.291 66.0786 129.083 69.8751 132.87 73.6778C133.243 74.1134 133.582 74.5766 133.885 75.0635L133.891 76.3497Z" fill="#E7816B"/>
<path id="Path_20" d="M86.5149 110.506C84.3843 110.101 82.4455 109.009 80.9952 107.399C79.6042 105.795 78.8416 103.742 78.8483 101.62C78.8483 93.375 78.7985 85.1358 78.8483 76.8903C78.8366 74.5456 79.7647 72.2936 81.4258 70.6362C83.0868 68.9788 85.3428 68.0537 87.6911 68.067C89.2281 68.0297 90.7589 68.0297 92.296 68.067C93.5406 68.067 94.3247 68.8064 94.3122 69.8876C94.2998 70.9688 93.5344 71.5839 92.3209 71.5963C90.8212 71.5963 89.3277 71.5963 87.828 71.5963C86.3843 71.5504 84.9846 72.096 83.9538 73.1064C82.9231 74.1168 82.351 75.5041 82.3705 76.9462C82.3456 85.231 82.3456 93.5158 82.3705 101.801C82.3704 103.206 82.9336 104.552 83.9344 105.54C84.9352 106.527 86.2903 107.074 87.6973 107.057C95.8804 107.057 109.988 107.057 118.19 107.057C119.653 107.122 121.077 106.575 122.119 105.548C123.162 104.521 123.729 103.107 123.684 101.645C123.728 99.0542 123.684 96.4631 123.684 93.8721C123.684 92.6294 124.22 91.9707 125.234 91.834C126.08 91.716 127.101 92.3 127.101 93.1451C127.101 96.6061 127.356 100.104 126.939 103.516C126.478 107.244 123.579 109.729 119.839 110.431C119.7 110.471 119.564 110.523 119.434 110.587L86.5149 110.506Z" fill="#E7816B"/>
<path id="Path_21" d="M141.849 127.797H77.3365C77.1647 127.797 77.0254 127.658 77.0254 127.486C77.0254 127.315 77.1647 127.176 77.3365 127.176H141.849C142.021 127.176 142.161 127.315 142.161 127.486C142.161 127.658 142.021 127.797 141.849 127.797Z" fill="#D1D3D4"/>
<path id="Path_22" d="M125.813 132.637H77.3365C77.1647 132.637 77.0254 132.498 77.0254 132.326C77.0254 132.155 77.1647 132.016 77.3365 132.016H125.813C125.985 132.016 126.124 132.155 126.124 132.326C126.121 132.497 125.983 132.634 125.813 132.637Z" fill="#D1D3D4"/>
<ellipse id="Oval_3" cx="69.8188" cy="128.743" rx="3.5844" ry="3.57903" fill="white"/>
<path id="Shape_12" fill-rule="evenodd" clip-rule="evenodd" d="M66.2091 130.239C66.8149 131.695 68.2396 132.642 69.8183 132.64C71.9707 132.636 73.7138 130.893 73.7138 128.744C73.7138 127.167 72.7625 125.746 71.3037 125.144C69.845 124.541 68.1663 124.876 67.0509 125.991C65.9355 127.107 65.6032 128.783 66.2091 130.239ZM66.7834 127.494C67.2926 126.27 68.4907 125.473 69.8183 125.475C71.6246 125.479 73.0881 126.94 73.0915 128.744C73.094 130.069 72.2959 131.266 71.0699 131.774C69.8439 132.282 68.4318 132.003 67.4931 131.065C66.5544 130.128 66.2742 128.718 66.7834 127.494Z" fill="#D1D3D4"/>
<path id="Path_23" d="M40.2048 51.2149C40.2048 51.2149 43.3162 58.4538 42.4139 64.1641C41.9691 67.417 39.6394 70.0993 36.4773 70.999L37.0995 80.9718C37.0995 80.9718 37.4791 86.067 31.1691 85.688C27.4544 85.4546 24.1231 83.324 22.3575 80.0522L20.4844 61.7781C20.4844 61.7781 27.3296 57.2421 26.2655 50.6992C26.2655 50.6992 34.9589 54.2223 40.2048 51.2149Z" fill="white"/>
<path id="Shape_13" fill-rule="evenodd" clip-rule="evenodd" d="M31.1817 86.0303H31.8537C33.7082 86.0303 35.1394 85.5332 36.1102 84.5701C37.009 83.5997 37.4838 82.3118 37.4295 80.9911L36.8072 71.2668C39.9617 70.2461 42.2567 67.518 42.7189 64.2392C43.6524 58.5041 40.6094 51.4144 40.4787 51.1161C40.445 51.0336 40.3767 50.9701 40.292 50.9421C40.2104 50.908 40.1185 50.908 40.0369 50.9421C35.3632 53.6327 27.6881 50.8797 26.5312 50.4647C26.4403 50.4321 26.3897 50.414 26.3838 50.414C26.2798 50.3713 26.1609 50.3879 26.0727 50.4575C25.9843 50.5268 25.9412 50.639 25.9606 50.7495C26.9563 57.0128 20.3787 61.4742 20.3102 61.5177C20.2147 61.5828 20.1623 61.6947 20.1733 61.8097L22.0775 80.1149C22.0813 80.1518 22.0918 80.1876 22.1087 80.2206C23.9398 83.5783 27.3617 85.7694 31.1817 86.0303ZM31.219 85.3903C27.6402 85.152 24.4282 83.113 22.6936 79.9782L20.8454 61.9526C21.8411 61.2318 27.2488 57.0252 26.6701 51.1969C28.568 51.8928 35.4257 54.08 40.068 51.6753C40.6467 53.1231 42.9305 59.2497 42.1402 64.1398C41.7312 67.279 39.4898 69.8737 36.44 70.7386C36.2905 70.772 36.1875 70.9091 36.1973 71.0617L36.8196 81.0035C36.8566 82.1494 36.4435 83.2644 35.6684 84.1103C34.7163 85.0796 33.2166 85.5083 31.219 85.3903Z" fill="#231F20"/>
<path id="Path_24" d="M23.8569 60.2619C23.8569 60.2619 20.2912 53.5388 17.13 58.1244C13.9687 62.71 19.3204 67.1714 22.3759 66.5562" fill="white"/>
<path id="Path_25" d="M21.7656 66.9366C20.0169 66.9366 17.926 65.6938 16.7872 63.9354C15.5208 62.1292 15.5686 59.7128 16.9055 57.9579C17.7456 56.7152 18.7039 56.156 19.7556 56.2243C22.1638 56.3672 24.1116 59.9525 24.1614 60.1202C24.2174 60.2674 24.1543 60.433 24.0147 60.5059C23.875 60.5788 23.7028 60.5359 23.6138 60.4061C23.6138 60.4061 21.7469 56.97 19.6684 56.8457C18.8387 56.796 18.0733 57.2848 17.3722 58.3121C16.1907 59.8617 16.1454 61.9955 17.2602 63.5936C18.4363 65.3832 20.7014 66.5824 22.3007 66.2593C22.4704 66.2288 22.6334 66.3391 22.6679 66.5078C22.6843 66.5878 22.6678 66.671 22.6222 66.7388C22.5766 66.8066 22.5056 66.8532 22.4252 66.8682C22.2081 66.9123 21.9871 66.9352 21.7656 66.9366Z" fill="#231F20"/>
<path id="Path_26" d="M37.5904 64.121C37.083 64.1204 36.5767 64.0726 36.0782 63.978C35.997 63.9647 35.9249 63.9184 35.879 63.8502C35.833 63.782 35.8173 63.6978 35.8356 63.6177C35.8506 63.5357 35.898 63.4633 35.967 63.4166C36.036 63.3699 36.1209 63.3528 36.2027 63.3691C36.2027 63.3691 38.2189 63.7606 39.171 63.1827C39.3079 62.406 37.3913 59.8025 35.9974 58.2118C35.9427 58.1505 35.9152 58.0697 35.9211 57.9878C35.9269 57.9059 35.9656 57.8298 36.0285 57.7769C36.1516 57.6577 36.3472 57.6577 36.4703 57.7769C37.0926 58.4604 40.0111 61.9524 39.8058 63.2324C39.7771 63.4329 39.6609 63.6105 39.4884 63.7171C38.9015 64.0136 38.2474 64.1528 37.5904 64.121Z" fill="#231F20"/>
<path id="Path_27" d="M36.4712 71.0117C36.4712 71.0117 31.1818 72.0307 28.0703 71.4529C28.0703 71.4529 31.9223 79.0832 36.994 78.7104L36.4712 71.0117Z" fill="#231F20"/>
<path id="Shape_14" fill-rule="evenodd" clip-rule="evenodd" d="M27.7965 71.5833C27.9209 71.9002 31.6174 79.0397 36.633 79.0397C36.7658 79.0397 36.8965 79.0438 37.0251 79.0521C37.1946 79.0388 37.322 78.8922 37.3113 78.7228L36.7886 71.0241C36.7813 70.9366 36.7386 70.8559 36.6704 70.8004C36.5992 70.747 36.5094 70.7246 36.4214 70.7383C36.3654 70.7507 31.1506 71.7387 28.1325 71.1733C28.0145 71.1299 27.8818 71.1617 27.7965 71.254C27.7319 71.3543 27.7319 71.483 27.7965 71.5833ZM36.6392 78.4183C32.7375 78.4183 29.626 73.5096 28.649 71.8505C31.3435 72.1674 35.0462 71.5833 36.1601 71.3845L36.6392 78.4183Z" fill="#231F20"/>
<ellipse id="Oval_4" cx="32.9852" cy="57.0277" rx="0.78407" ry="1.37323" transform="rotate(-6.85 32.9852 57.0277)" fill="#231F20"/>
<ellipse id="Oval_5" cx="39.8075" cy="56.7816" rx="0.78407" ry="1.37323" transform="rotate(-6.85 39.8075 56.7816)" fill="#231F20"/>
<path id="Path_28" d="M34.4422 67.1094C33.9894 67.1062 33.5422 67.0089 33.1291 66.8236C31.6108 66.165 30.64 64.3382 30.2355 61.3494C30.2114 61.1778 30.3312 61.0193 30.5031 60.9953C30.6749 60.9712 30.8337 61.0909 30.8578 61.2624C31.2312 64.0026 32.1024 65.6803 33.3843 66.2333C34.9587 66.9292 36.7322 65.7176 36.7509 65.7052C36.8418 65.6348 36.9642 65.6202 37.0691 65.6673C37.174 65.7144 37.2443 65.8155 37.252 65.9301C37.2596 66.0446 37.2033 66.1541 37.1056 66.2147C36.3177 66.753 35.3957 67.0627 34.4422 67.1094Z" fill="#231F20"/>
<path id="Path_29" d="M118.047 138.839C117.944 138.151 117.878 137.458 117.848 136.763C117.801 135.32 118.027 133.88 118.514 132.52C118.663 131.914 118.995 131.37 119.466 130.96C119.97 130.565 120.691 130.616 121.134 131.078C121.376 131.576 121.399 132.153 121.196 132.669C120.872 134.112 120.798 135.6 120.978 137.068C121.215 135.092 121.476 133.042 122.553 131.376C122.776 130.986 123.095 130.659 123.48 130.426C123.873 130.191 124.363 130.191 124.755 130.426C125.309 130.829 125.266 131.668 125.197 132.327C125.022 134.066 125.049 135.82 125.278 137.553C125.154 136.029 125.265 134.495 125.608 133.004C125.832 132.029 126.274 130.954 127.226 130.643C127.426 130.573 127.641 130.561 127.848 130.606C128.283 130.753 128.601 131.129 128.676 131.581C128.747 132.026 128.747 132.479 128.676 132.923C128.496 134.673 128.551 136.439 128.838 138.174C128.613 136.652 128.67 135.102 129.006 133.601C129.093 133 129.333 132.431 129.703 131.948C130.088 131.457 130.743 131.265 131.333 131.469C131.754 131.693 132.047 132.099 132.123 132.569C132.196 133.034 132.213 133.505 132.173 133.974C132.13 135.745 132.459 137.506 133.138 139.143C133.698 140.504 134.426 142.014 134.295 143.536C134.062 145.151 132.956 146.505 131.42 147.059C129.902 147.584 128.264 147.662 126.703 147.283C121.557 146.264 117.307 143.816 115.502 138.901" fill="white"/>
<path id="Path_30" d="M128.881 147.853C128.135 147.849 127.391 147.772 126.66 147.624C120.735 146.449 116.883 143.56 115.203 139.036C115.141 138.865 115.231 138.676 115.402 138.614C115.574 138.552 115.764 138.641 115.826 138.813C117.419 143.112 121.115 145.865 126.803 146.99C128.303 147.36 129.879 147.289 131.339 146.785C132.76 146.274 133.785 145.026 134.009 143.535C134.121 142.249 133.579 140.963 133.057 139.726L132.876 139.285C132.184 137.605 131.847 135.801 131.887 133.985V133.767C131.92 133.398 131.905 133.027 131.843 132.661C131.779 132.29 131.551 131.968 131.221 131.785C130.765 131.651 130.273 131.806 129.976 132.177C129.644 132.621 129.43 133.143 129.354 133.693C129.022 135.154 128.965 136.665 129.186 138.148C129.212 138.322 129.093 138.486 128.919 138.514C128.759 138.535 128.61 138.434 128.57 138.278C128.277 136.514 128.222 134.719 128.408 132.941V132.835C128.467 132.458 128.467 132.075 128.408 131.698C128.353 131.358 128.113 131.075 127.786 130.965C127.63 130.933 127.469 130.944 127.319 130.996C126.666 131.207 126.193 131.928 125.913 133.121C125.578 134.579 125.47 136.079 125.595 137.57C125.574 137.715 125.457 137.828 125.311 137.844C125.165 137.86 125.026 137.775 124.973 137.638C124.741 135.881 124.714 134.102 124.892 132.338C124.955 131.717 124.986 131.033 124.581 130.735C124.293 130.565 123.935 130.565 123.648 130.735C123.309 130.939 123.029 131.225 122.833 131.568C121.775 133.208 121.532 135.296 121.314 137.16C121.293 137.319 121.157 137.438 120.997 137.439V137.439C120.836 137.438 120.701 137.319 120.679 137.16C120.493 135.657 120.567 134.133 120.897 132.655C121.077 132.23 121.077 131.75 120.897 131.325C120.795 131.187 120.639 131.097 120.468 131.077C120.191 131.036 119.91 131.105 119.684 131.269C119.267 131.641 118.974 132.131 118.844 132.674C118.363 133.992 118.142 135.391 118.19 136.793C118.19 137.011 118.221 137.203 118.234 137.384C118.256 137.873 118.308 138.361 118.389 138.844C118.381 138.994 118.27 139.119 118.12 139.145C117.971 139.17 117.825 139.089 117.767 138.949C117.682 138.446 117.628 137.937 117.605 137.427C117.605 137.247 117.605 137.054 117.562 136.843C117.51 135.363 117.742 133.886 118.246 132.493C118.415 131.824 118.786 131.223 119.31 130.772C119.671 130.514 120.116 130.403 120.555 130.462C120.895 130.509 121.202 130.69 121.407 130.965C121.716 131.54 121.76 132.22 121.526 132.829C121.523 132.862 121.523 132.895 121.526 132.928C121.727 132.358 121.992 131.812 122.316 131.3C122.571 130.865 122.933 130.502 123.368 130.244C123.869 129.951 124.494 129.967 124.979 130.288C125.602 130.76 125.602 131.63 125.602 132.232C125.825 131.427 126.412 130.772 127.189 130.462C127.452 130.368 127.738 130.353 128.01 130.418C128.574 130.597 128.988 131.078 129.08 131.661C129.137 131.945 129.154 132.236 129.13 132.524C129.238 132.3 129.376 132.091 129.541 131.903C130.015 131.301 130.826 131.074 131.545 131.344C132.056 131.612 132.414 132.1 132.515 132.667C132.589 133.077 132.612 133.495 132.584 133.91V134.128C132.55 135.854 132.87 137.569 133.523 139.167L133.704 139.602C134.233 140.844 134.83 142.267 134.706 143.715C134.471 145.453 133.285 146.915 131.632 147.505C130.746 147.8 129.812 147.918 128.881 147.853Z" fill="#231F20"/>
<path id="Path_31" d="M183.152 104.142L182.206 118.396C182.206 118.396 152.958 95.4059 148.061 94.418V98.4382C148.061 98.4382 139.927 97.444 139.28 99.0595C138.633 100.675 139.735 106.814 141.85 108.057C143.095 108.809 153.605 108.871 153.605 108.871C153.605 108.871 155.093 112.512 169.592 125.853C184.091 139.193 197.732 146.326 198.585 133.831C199.437 121.335 200.52 100.277 200.52 100.277" fill="white"/>
<path id="Path_32" d="M193.22 140.611C188.074 140.611 179.598 135.478 169.374 126.071C156.623 114.334 153.904 110.09 153.406 109.176C151.67 109.176 142.933 109.052 141.688 108.319C139.361 106.946 138.284 100.657 138.981 98.9239C139.678 97.1903 145.776 97.8303 147.743 98.0477V94.3879C147.744 94.2918 147.787 94.201 147.861 94.1394C147.937 94.0801 148.034 94.0553 148.129 94.071C152.752 95.0031 177.999 114.65 181.925 117.739L182.828 104.106C182.801 103.972 182.861 103.836 182.977 103.765C183.094 103.695 183.243 103.705 183.349 103.791C183.455 103.877 183.495 104.021 183.45 104.149L182.529 118.397C182.523 118.516 182.447 118.621 182.336 118.664C182.228 118.715 182.1 118.701 182.006 118.627C181.726 118.403 154.14 96.7491 148.403 94.8167V98.4143C148.403 98.5065 148.365 98.5947 148.297 98.6567C148.228 98.7198 148.134 98.7494 148.042 98.7375C144.768 98.3336 139.952 98.2031 139.597 99.1662C139.006 100.639 140.083 106.623 142.03 107.772C142.908 108.288 149.442 108.511 153.624 108.543C153.755 108.541 153.873 108.62 153.922 108.741C153.922 108.772 155.646 112.55 169.828 125.605C181.465 136.299 190.675 141.388 195.155 139.642C197.022 138.902 198.061 136.932 198.267 133.795C199.107 121.448 200.19 100.446 200.202 100.241C200.205 100.156 200.243 100.076 200.306 100.018C200.369 99.961 200.453 99.9316 200.538 99.9367C200.623 99.9399 200.704 99.9773 200.761 100.04C200.819 100.104 200.848 100.187 200.843 100.272C200.843 100.483 199.748 121.492 198.908 133.826C198.671 137.231 197.489 139.418 195.379 140.219C194.691 140.487 193.958 140.62 193.22 140.611V140.611Z" fill="#231F20"/>
<path id="Path_33" d="M182.205 118.363L189.218 123.583Z" fill="white"/>
<path id="Path_34" d="M189.219 123.907C189.15 123.904 189.084 123.882 189.026 123.845L182.013 118.626C181.873 118.516 181.845 118.315 181.951 118.172C182.058 118.033 182.257 118.006 182.399 118.11L189.412 123.329C189.52 123.414 189.563 123.557 189.52 123.686C189.476 123.816 189.356 123.905 189.219 123.907V123.907Z" fill="#231F20"/>
<path id="Path_35" d="M20.0044 92.6343C20.0044 92.6343 32.0022 114.879 32.3257 115.749C32.4378 116.041 57.0494 102.881 57.9517 101.085C57.656 99.0688 57.8546 97.0112 58.5304 95.0887C58.9287 94.0386 59.663 93.9081 60.5342 93.1687C60.4221 94.4808 60.3971 95.7989 60.4595 97.1143C62.1111 95.3709 63.8962 93.7588 65.7988 92.2926C66.201 91.8679 66.7915 91.676 67.367 91.783C67.625 91.9129 67.8409 92.1133 67.9892 92.3609C70.5406 95.9462 68.4124 100.252 66.5829 103.608C63.1354 109.921 57.9704 113.841 52.4818 118.253C48.8267 121.17 45.0237 123.897 41.0876 126.424C38.0398 128.483 34.7991 130.241 31.411 131.674C29.3823 132.482 26.582 133.538 24.4289 132.532C16.6191 128.915 7.66435 110.436 5.21875 102.303" fill="white"/>
<path id="Path_36" d="M26.4649 133.253C25.7277 133.264 24.9969 133.113 24.3243 132.812C19.8998 130.767 15.4877 124.318 12.5692 119.266C9.45133 113.922 6.89865 108.268 4.95234 102.396C4.92403 102.241 5.01658 102.089 5.16761 102.043C5.31863 101.997 5.48025 102.072 5.54352 102.216C8.03269 110.579 17.0559 128.767 24.5856 132.252C26.5396 133.153 29.091 132.252 31.325 131.389C34.6907 129.96 37.9104 128.21 40.9394 126.163C44.8687 123.642 48.6656 120.921 52.3149 118.011L53.2608 117.247C58.3325 113.189 63.1179 109.355 66.3289 103.459C68.2642 99.917 70.1249 95.8657 67.754 92.5414C67.6347 92.3406 67.4596 92.1787 67.2499 92.0754C66.8579 91.9201 66.3662 92.2432 66.0053 92.5352C64.1195 93.9962 62.3471 95.5977 60.7034 97.3259C60.6191 97.4142 60.491 97.4451 60.3756 97.4049C60.2603 97.3648 60.1792 97.2609 60.1682 97.1395C60.1184 96.5678 60.1247 94.9026 60.1682 93.8339L59.9504 93.983C59.4378 94.2469 59.0394 94.6889 58.8303 95.2257C58.1793 97.0957 57.9851 99.094 58.264 101.054C58.2854 101.116 58.2854 101.184 58.264 101.247C57.7413 102.291 50.8774 106.255 45.1959 109.393C41.96 111.188 32.9305 116.091 32.3394 116.091V116.091C32.2128 116.082 32.1021 116.003 32.0531 115.886C31.8042 115.215 23.8949 100.495 19.7504 92.8086C19.6679 92.6576 19.7237 92.4684 19.8749 92.3861C20.0261 92.3037 20.2156 92.3594 20.298 92.5104C20.7648 93.3803 31.2317 112.798 32.5136 115.401C35.2268 114.32 56.2976 102.75 57.6293 100.998C57.3486 98.9663 57.5621 96.8968 58.2516 94.9647C58.5106 94.3155 58.9911 93.7785 59.6082 93.4486C59.8653 93.2852 60.1126 93.1068 60.3487 92.9142C60.4474 92.8287 60.5891 92.8138 60.7034 92.877C60.8148 92.9413 60.8763 93.0665 60.859 93.1939C60.7653 94.2433 60.7299 95.297 60.7532 96.3504C62.2729 94.7902 63.8989 93.3369 65.6195 92.0008C66.1298 91.6094 66.8081 91.1869 67.4864 91.4478C67.8104 91.5975 68.0847 91.8369 68.2767 92.1375C71.0645 96.0521 68.4509 100.837 66.889 103.713C63.6157 109.716 58.7992 113.587 53.6591 117.688L52.707 118.452C49.0458 121.378 45.2343 124.112 41.2879 126.642C38.2237 128.711 34.9664 130.479 31.5615 131.923C29.9578 132.672 28.2307 133.123 26.4649 133.253Z" fill="#231F20"/>
<path id="Path_37" d="M20.0044 92.9209C19.8939 92.9203 19.7921 92.8612 19.7368 92.7656L13.7131 82.507C13.6254 82.3577 13.6756 82.1657 13.8251 82.0782C13.9746 81.9907 14.1668 82.0408 14.2544 82.1901L20.2907 92.4798C20.3332 92.5503 20.3453 92.6351 20.3242 92.7147C20.3031 92.7943 20.2506 92.862 20.1787 92.9023C20.1241 92.927 20.063 92.9335 20.0044 92.9209V92.9209Z" fill="#231F20"/>
<path id="Path_38" d="M183.151 104.467V104.467C183.067 104.459 182.989 104.418 182.935 104.352C182.882 104.287 182.856 104.203 182.865 104.119L184.19 89.6971C184.21 89.5234 184.364 89.3967 184.539 89.4113C184.625 89.4158 184.705 89.4558 184.761 89.5218C184.816 89.5878 184.842 89.6738 184.831 89.7593L183.5 104.175C183.493 104.26 183.453 104.339 183.387 104.394C183.322 104.449 183.236 104.475 183.151 104.467Z" fill="#231F20"/>
</g>
</g>
</g>
<defs>
<linearGradient id="paint0_linear_7497_405" x1="0" y1="202" x2="202" y2="202" gradientUnits="userSpaceOnUse">
<stop stop-color="#5D0202" stop-opacity="0.01"/>
<stop offset="1" stop-color="#5D0202" stop-opacity="0.497569"/>
</linearGradient>
</defs>
</svg>
