<svg width="202" height="202" viewBox="0 0 202 202" fill="none" xmlns="http://www.w3.org/2000/svg">
<g id="Group 23">
<circle id="Oval" opacity="0.202683" cx="101" cy="101" r="101" transform="matrix(-1 0 0 1 202 0)" fill="url(#paint0_linear_7497_114)"/>
<g id="designer_(1) 2">
<g id="designer_(1)">
<path id="Path" d="M164.843 138.137C164.843 138.137 187.437 79.1718 175.732 70.1794C164.027 61.187 114.934 64.8183 112.244 68.0308C109.555 71.2434 93.7188 142.221 93.7188 142.221L164.843 138.137Z" fill="#231F20"/>
<path id="Shape" fill-rule="evenodd" clip-rule="evenodd" d="M93.4245 142.461C93.4914 142.535 93.5859 142.577 93.6852 142.578L93.7058 142.592L164.865 138.473C165 138.467 165.119 138.381 165.166 138.253L165.17 138.244C165.339 137.802 170.938 123.153 175.012 107.617C180.604 86.3926 180.92 73.7347 175.946 69.918C168.796 64.4334 148.836 64.097 140.603 64.2069C126.578 64.3922 113.473 66.0465 111.984 67.8244C109.267 71.0644 94.0009 139.262 93.3559 142.166C93.3295 142.27 93.3551 142.38 93.4245 142.461ZM140.617 64.8727H143.196C159.149 64.8727 170.861 66.884 175.506 70.4466C186.539 78.9104 166.031 133.956 164.583 137.793L94.0969 141.857C99.6134 117.214 110.427 70.728 112.485 68.25C113.686 66.8428 126.208 65.0649 140.617 64.8727Z" fill="#231F20"/>
<path id="Path_2" d="M73.1002 87.1878L62.918 121.379C62.918 121.379 83.9205 124.091 83.9205 123.315C83.9205 122.54 88.0372 85.6914 88.0372 85.6914L73.1002 87.1878Z" fill="white"/>
<path id="Shape_2" fill-rule="evenodd" clip-rule="evenodd" d="M62.8768 121.704C69.251 122.542 79.3166 123.763 82.8639 123.763C83.2922 123.803 83.724 123.744 84.1263 123.592C84.2082 123.515 84.2573 123.409 84.2636 123.297C84.2636 122.603 86.9601 98.4063 88.3803 85.7071C88.3949 85.6054 88.3591 85.503 88.2843 85.4325C88.2134 85.358 88.1122 85.3201 88.0098 85.3296L73.0659 86.826C72.9263 86.8402 72.8094 86.9381 72.7709 87.0731L62.5887 121.265C62.562 121.362 62.5784 121.465 62.6335 121.55C62.6887 121.634 62.7773 121.69 62.8768 121.704ZM83.5637 123.098C81.9719 123.324 70.637 122.027 63.3366 121.093L73.3403 87.5124L87.6256 86.0778C87.5982 86.3239 87.5605 86.662 87.5138 87.0807C86.7781 93.679 83.8089 120.309 83.5637 123.098Z" fill="#231F20"/>
<path id="Path_3" d="M53.7997 78.6973C53.8889 78.7934 57.5048 77.8255 59.3711 80.0701C61.2373 82.3148 58.8153 84.3192 52.9214 83.1591C47.0276 81.999 53.7997 78.6973 53.7997 78.6973Z" fill="white"/>
<path id="Shape_3" fill-rule="evenodd" clip-rule="evenodd" d="M52.8542 83.5027C53.9 83.7158 54.9637 83.8284 56.031 83.8391C58.055 83.8391 59.5302 83.3174 60.0997 82.4181C60.5388 81.663 60.381 80.7638 59.64 79.8852C57.991 77.9083 55.097 78.2602 54.1163 78.3794C54.1094 78.3802 54.1027 78.3811 54.0961 78.3819H53.8696C53.7984 78.3578 53.7213 78.3578 53.6501 78.3819C53.0326 78.6908 49.9724 80.2627 50.1714 81.8141C50.2743 82.6172 51.1526 83.1664 52.8542 83.5027ZM50.8712 81.6905C50.7752 80.9286 52.5385 79.7204 53.8765 79.034C53.9588 79.034 54.0549 79.034 54.1853 79.0065C55.139 78.883 57.6845 78.5672 59.098 80.2558C59.5806 80.686 59.7376 81.375 59.4891 81.9719C58.9813 82.83 56.9778 83.5576 52.9914 82.7751C51.228 82.425 50.8712 81.9445 50.8712 81.6905Z" fill="#231F20"/>
<path id="Path_4" d="M44.7372 71.5234C44.7372 71.5234 43.9962 70.6722 44.4628 70.075C44.6757 69.8291 44.9942 69.7009 45.3181 69.7309C45.642 69.7608 45.9315 69.9452 46.0958 70.2261C46.0958 70.2261 44.9294 70.6448 44.7372 71.5234Z" fill="white"/>
<path id="Shape_4" fill-rule="evenodd" clip-rule="evenodd" d="M44.4685 71.7569C44.537 71.8322 44.6344 71.8747 44.7361 71.8736L44.8253 71.8668C44.9539 71.833 45.0523 71.7293 45.0792 71.5991C45.2027 71.0431 45.9369 70.6586 46.2113 70.5625C46.3195 70.5234 46.4016 70.4336 46.4309 70.3223C46.4645 70.2101 46.4387 70.0884 46.3623 69.9997C46.0851 69.6146 45.6426 69.3831 45.1684 69.375C44.7833 69.3755 44.4204 69.5558 44.1872 69.8624C43.6726 70.5076 44.1255 71.3588 44.4685 71.7569ZM44.7499 70.2948C44.8548 70.1626 45.0134 70.0845 45.1821 70.082L45.189 70.1095C45.2915 70.0948 45.396 70.1091 45.4909 70.1507C45.2076 70.3145 44.9565 70.5285 44.7499 70.7822C44.6705 70.6294 44.6705 70.4476 44.7499 70.2948Z" fill="#231F20"/>
<path id="Path_5" d="M46.3558 70.1953C45.5164 70.2635 44.8286 70.8896 44.6816 71.7192L59.3992 90.8778C59.586 88.9882 61.0398 87.4714 62.919 87.2053L46.3558 70.1953Z" fill="white"/>
<path id="Shape_5" fill-rule="evenodd" clip-rule="evenodd" d="M59.1174 91.0881C59.1829 91.1737 59.2841 91.2244 59.3919 91.2254L59.4948 91.2117C59.6356 91.172 59.7369 91.0487 59.7486 90.9028C59.9229 89.1733 61.2589 87.7885 62.9803 87.553C63.1096 87.5307 63.2155 87.4379 63.2548 87.3127C63.2984 87.1878 63.2664 87.0489 63.1724 86.9558L46.6092 69.9458C46.5428 69.8765 46.4513 69.8369 46.3554 69.8359C45.3602 69.9139 44.5372 70.6421 44.3381 71.6207C44.3097 71.7277 44.3325 71.8418 44.3999 71.9296L59.1174 91.0881ZM59.2135 90.0516L45.0723 71.6481C45.2212 71.098 45.667 70.6785 46.225 70.5636L62.2256 86.997C60.759 87.422 59.6184 88.5787 59.2135 90.0516Z" fill="#231F20"/>
<path id="Path_6" d="M59.3986 90.8741L64.4211 93.4825L65.0454 92.8991L62.9184 87.2016C62.9184 87.2016 59.0075 86.8103 59.3986 90.8741Z" fill="white"/>
<path id="Shape_6" fill-rule="evenodd" clip-rule="evenodd" d="M64.2575 93.793C64.3079 93.8209 64.3646 93.8351 64.4222 93.8342C64.5104 93.8346 64.5958 93.8029 64.6623 93.745L65.2867 93.1615C65.3927 93.0639 65.4281 92.9114 65.3759 92.7771L63.2558 87.0796C63.2087 86.95 63.0911 86.8592 62.9539 86.8463C61.8545 86.7547 60.7645 87.1083 59.928 87.8279C59.1759 88.6622 58.8494 89.7964 59.0429 90.9031C59.0539 91.0239 59.1266 91.1304 59.235 91.1846L64.2575 93.793ZM64.3604 93.0517L59.7359 90.6491C59.6135 89.8125 59.8643 88.9643 60.422 88.329C61.0513 87.8015 61.852 87.523 62.6726 87.5464L64.6349 92.8046L64.3604 93.0517Z" fill="#231F20"/>
<path id="Path_7" d="M64.4219 93.4858L65.3825 94.5155L65.8353 94.0006L65.0463 92.9023L64.4219 93.4858V93.4858Z" fill="white"/>
<path id="Shape_7" fill-rule="evenodd" clip-rule="evenodd" d="M65.128 94.7535C65.1911 94.8282 65.2841 94.8709 65.3818 94.8702H65.4093C65.5103 94.8703 65.6061 94.825 65.67 94.7467L66.1229 94.2318C66.2261 94.1036 66.2261 93.9207 66.1229 93.7925L65.3338 92.6942C65.2743 92.6121 65.1827 92.5593 65.0819 92.5488C64.9811 92.5383 64.8806 92.5712 64.8055 92.6393L64.1811 93.2228C64.1116 93.2868 64.0698 93.3755 64.0645 93.4699C64.0639 93.5635 64.0981 93.654 64.1605 93.7239L65.128 94.7535ZM65.375 93.9847L64.9221 93.4973L64.9839 93.4424L65.375 93.9847Z" fill="#231F20"/>
<path id="Path_8" d="M54.7325 92.3809C55.5421 90.7403 57.573 87.26 58.0396 85.7499C59.3295 81.6312 51.7752 77.7734 49.3326 77.7734C46.89 77.7734 41.7852 86.3128 41.7852 90.8776C41.7852 95.4424 58.6983 130.396 58.6983 130.396L74.9253 122.969L54.7325 92.3809Z" fill="white"/>
<path id="Shape_8" fill-rule="evenodd" clip-rule="evenodd" d="M58.4035 130.551C58.4616 130.673 58.5844 130.75 58.7191 130.751C58.7786 130.759 58.8392 130.747 58.8907 130.716L75.1245 123.275C75.2169 123.233 75.2868 123.153 75.3167 123.056C75.3428 122.955 75.3254 122.848 75.2686 122.76L55.1718 92.351C55.3232 92.068 55.4955 91.741 55.6845 91.3821C55.821 91.123 55.9662 90.8472 56.1187 90.5594C56.9905 89.047 57.7562 87.4758 58.4104 85.8573C58.7741 84.5367 58.4578 83.1216 57.5664 82.0819C55.5835 79.4185 51.2129 77.4141 49.3329 77.4141C46.6089 77.4141 41.4492 86.2897 41.4492 90.8752C41.4492 95.3455 56.9113 127.453 58.323 130.384C58.3593 130.459 58.3863 130.516 58.4035 130.551ZM42.1628 90.8752C42.1628 86.3584 47.1853 78.1211 49.3329 78.1211C50.911 78.1211 55.0758 79.9264 56.9901 82.528C57.743 83.3883 58.0182 84.5671 57.7243 85.6719C57.0833 87.2471 56.336 88.7768 55.4875 90.2505C55.0758 91.0193 54.6984 91.7264 54.4377 92.248C54.3767 92.3592 54.3767 92.4938 54.4377 92.605L74.4247 122.808L58.8838 129.934L58.8375 129.837C56.9511 125.901 42.1628 95.0399 42.1628 90.8752Z" fill="#231F20"/>
<path id="Path_9" d="M141.068 99.2985L161.069 94.1982C160.383 93.2303 152.314 67.6055 143.806 63.4113C136.362 58.469 118.707 55.174 103.112 56.2929C103.112 56.2929 98.9949 56.1419 91.7768 59.0044C74.1981 65.9924 70.8086 90.3267 70.8086 90.3267L84.5312 95.07C84.5312 95.07 81.9102 126.543 79.4333 142.997C79.4333 142.997 109.774 148.935 153.947 141.624C153.981 141.611 141.151 103.953 141.068 99.2985Z" fill="#E7816B"/>
<path id="Path_10" d="M139.422 64.1169C136.773 66.8626 134.708 70.1576 131.785 72.7454C125.486 78.3193 117.246 82.7331 108.607 82.1977C98.4252 81.5662 89.6221 74.6057 87.4128 64.467C86.0405 58.1105 87.4677 52.2071 92.3804 47.7178C95.7767 44.6151 100.127 42.7205 104.573 41.5398C116.381 38.3754 129.63 40.0571 139.71 46.9902C141.357 48.0043 142.747 49.3857 143.772 51.0265C146.29 55.5913 143.394 60.2865 140.128 63.4236C139.909 63.6364 139.675 63.8766 139.422 64.1169Z" fill="#E7816B"/>
<path id="Path_11" d="M104.684 71.3138C104.582 71.3138 102.688 73.6202 102.592 73.6546C103.669 77.7183 104.808 83.0108 109.405 83.5325C118.73 84.5964 120.143 72.1581 121.9 66.2891C115.443 68.1013 110.887 68.8289 104.684 71.3138Z" fill="#231F20"/>
<path id="Shape_9" fill-rule="evenodd" clip-rule="evenodd" d="M109.369 83.8751C109.743 83.9179 110.119 83.9408 110.495 83.9438C117.809 83.9369 119.984 75.2328 121.404 69.3569C121.431 69.2494 121.458 69.1426 121.485 69.0364C121.729 68.0642 121.958 67.15 122.193 66.364C122.225 66.2452 122.194 66.1181 122.111 66.0277C122.023 65.9391 121.894 65.9049 121.775 65.9384C119.773 66.5008 117.97 66.9536 116.222 67.3925L116.217 67.3937C112.249 68.306 108.35 69.5011 104.553 70.97C104.443 71.0181 104.429 71.025 103.366 72.2468C103.002 72.6724 102.501 73.2559 102.391 73.3589C102.275 73.44 102.22 73.5847 102.254 73.7227L102.433 74.4091L102.444 74.4514C103.492 78.4187 104.795 83.3553 109.369 83.8751ZM103.071 74.2375L102.947 73.7639H102.968C103.119 73.5991 103.386 73.2971 103.867 72.6793C104.223 72.2606 104.704 71.7114 104.841 71.5741C108.601 70.1181 112.463 68.9389 116.395 68.0458C116.699 67.9681 117.007 67.8899 117.319 67.8106C118.603 67.484 119.953 67.1407 121.383 66.7484C121.178 67.4898 120.972 68.3135 120.759 69.1716L120.755 69.1891C119.191 75.4616 117.054 84.0322 109.424 83.1612C105.31 82.7297 104.126 78.239 103.078 74.2642L103.071 74.2375Z" fill="#231F20"/>
<path id="Path_12" d="M113.713 23.4313C112.341 23.3764 111.463 23.9736 110.283 24.3992C107.984 25.2092 106.914 23.2872 104.938 22.2644C98.5228 18.928 90.6463 20.5792 86.1101 26.2114C84.741 27.8336 83.8543 29.8076 83.5508 31.9089C83.2627 34.284 83.9282 36.714 83.5165 39.0616C83.005 41.8026 81.1169 44.0859 78.5215 45.1023C80.7181 45.2719 82.9275 45.0629 85.0535 44.4845C83.8171 45.9546 82.0059 46.8181 80.0859 46.8527C82.2739 48.5359 84.9625 49.4373 87.7225 49.4131L82.8853 50.5457C87.0021 53.1885 92.0177 53.9779 96.8686 53.7583C106.529 53.2572 122.708 49.3033 122.427 36.7826C122.269 31.9844 119.634 23.7059 113.713 23.4313Z" fill="white"/>
<path id="Shape_10" fill-rule="evenodd" clip-rule="evenodd" d="M82.6734 50.8564C86.7764 53.4786 91.5107 54.1651 95.209 54.1651C95.7853 54.1651 96.3411 54.1513 96.9175 54.1102C99.8335 53.9591 107.299 53.2315 113.556 50.0945C119.814 46.9574 122.922 42.475 122.798 36.7844C122.702 31.4164 119.724 23.3576 113.783 23.0968C112.843 23.0908 111.917 23.3097 111.079 23.7352C111.036 23.7529 110.993 23.7708 110.95 23.7888C110.71 23.8891 110.463 23.9921 110.201 24.0852C108.76 24.5863 107.882 23.9205 106.77 23.0762C106.25 22.6601 105.694 22.2904 105.11 21.971C98.5521 18.5548 90.4961 20.2409 85.857 26.0004C84.4471 27.6742 83.5344 29.7098 83.2223 31.8763C83.1151 33.0179 83.1151 34.167 83.2223 35.3085C83.36 36.5458 83.3461 37.7952 83.1811 39.0291C82.6901 41.6569 80.8721 43.842 78.3782 44.802C78.2251 44.8563 78.1327 45.0123 78.1586 45.1727C78.1803 45.331 78.3083 45.4534 78.4674 45.4679C80.2904 45.6117 82.1247 45.4961 83.9153 45.1246C82.8215 46.0132 81.4612 46.5087 80.0524 46.5319C79.9047 46.5319 79.7736 46.6264 79.7269 46.7665C79.6802 46.9067 79.7284 47.061 79.8465 47.1496C81.4941 48.4146 83.4254 49.2582 85.4728 49.6071L82.7832 50.2318C82.6517 50.2673 82.5511 50.3732 82.5224 50.5063C82.4992 50.6426 82.5584 50.7798 82.6734 50.8564ZM96.8283 53.4786C93.2672 53.6502 88.183 53.307 83.7506 50.7329L87.7851 49.7238C87.9556 49.6831 88.0681 49.5203 88.0458 49.3463C88.0279 49.1713 87.8784 49.0397 87.7027 49.0442C85.3339 49.0675 83.0111 48.3892 81.0267 47.0947C82.6933 46.8288 84.2084 45.971 85.2944 44.6785C85.3804 44.5572 85.3804 44.3948 85.2944 44.2735C85.2123 44.1456 85.056 44.087 84.9102 44.1293C83.2604 44.5827 81.5574 44.8135 79.8465 44.8157C81.924 43.5781 83.367 41.5041 83.8055 39.1252C83.9814 37.8371 83.9998 36.5324 83.8604 35.2399C83.7575 34.1463 83.7575 33.0455 83.8604 31.9519C84.1647 29.9254 85.0271 28.0239 86.351 26.4603C90.7822 20.9505 98.486 19.3383 104.753 22.6094C105.302 22.9082 105.823 23.2551 106.311 23.6459C107.484 24.5383 108.595 25.3826 110.372 24.758C110.656 24.6613 110.924 24.5486 111.186 24.4388C111.221 24.4238 111.257 24.4089 111.292 24.3941C112.039 24.0162 112.863 23.8165 113.7 23.8107C119.203 24.0784 121.941 31.7459 122.057 36.853C122.174 42.2622 119.196 46.525 113.192 49.5316C106.983 52.648 99.6826 53.3276 96.8283 53.4786Z" fill="#231F20"/>
<path id="Path_13" d="M101.905 61.8345L102.591 73.655C102.591 73.655 107.991 79.833 114.942 76.037C121.892 72.241 121.625 66.2209 121.625 66.2209L117.062 44.0283C117.062 44.0283 110.756 42.573 109.151 30.1484C103.772 34.4093 97.3432 37.1389 90.543 38.0494C90.543 38.0494 90.6665 51.9498 93.116 57.4756C95.5655 63.0015 101.905 61.8345 101.905 61.8345Z" fill="white"/>
<path id="Shape_11" fill-rule="evenodd" clip-rule="evenodd" d="M102.331 73.8778C102.372 73.9328 105.659 77.6052 110.379 77.6052C112.031 77.5878 113.65 77.1508 115.086 76.3353C122.044 72.5372 121.952 66.457 121.948 66.1583C121.948 66.1536 121.948 66.1503 121.948 66.1485L117.378 43.9353C117.351 43.8051 117.253 43.7013 117.124 43.6676C115.864 43.2384 114.748 42.4686 113.899 41.4435C112.328 39.7274 110.283 36.3707 109.474 30.0829C109.455 29.9586 109.371 29.8538 109.254 29.8084C109.135 29.7622 109 29.786 108.904 29.8701C103.565 34.0675 97.203 36.7641 90.4747 37.6818C90.3057 37.7087 90.1809 37.8539 90.1797 38.025L90.1798 38.0381C90.1886 38.7742 90.3469 52.1336 92.7801 57.5886C94.9552 62.4967 100.115 62.3594 101.563 62.2152L102.249 73.6719C102.251 73.7481 102.28 73.8211 102.331 73.8778ZM114.784 75.7106C108.52 79.136 103.607 74.2348 102.921 73.4866L102.249 61.7759C102.241 61.6772 102.194 61.5858 102.118 61.5219C102.04 61.4638 101.94 61.4414 101.844 61.4601L101.843 61.4602C101.588 61.5029 95.7355 62.4788 93.4251 57.2797C91.2363 52.3305 90.8933 40.3452 90.8933 38.2859C97.4321 37.3173 103.623 34.7209 108.897 30.735C110.469 41.5808 115.628 43.8598 116.767 44.2373L121.289 66.2034C121.289 66.204 121.289 66.2054 121.289 66.2074C121.292 66.3867 121.38 72.0993 114.784 75.7106Z" fill="#231F20"/>
<path id="Path_14" d="M114.489 50.245C116.101 50.4879 117.744 50.0832 119.059 49.1192C120.865 47.6886 121.795 45.4206 121.515 43.1334C121.473 42.2928 121.238 41.4731 120.829 40.7377C120.424 39.9935 119.715 39.4624 118.888 39.2825C117.874 39.2195 116.868 39.4868 116.019 40.0444C114.688 40.7309 114.647 41.4928 113.92 42.6186C114.002 42.5156 114.064 42.2273 114.146 42.1244" fill="white"/>
<path id="Path_15" d="M115.407 50.6642C115.081 50.663 114.756 50.6378 114.433 50.5887C114.244 50.5571 114.116 50.3798 114.145 50.1906C114.158 50.1008 114.208 50.0203 114.281 49.9673C114.355 49.9143 114.447 49.8933 114.536 49.9092C116.056 50.133 117.603 49.7455 118.838 48.8314C120.548 47.4706 121.424 45.3162 121.15 43.1477C121.123 42.3602 120.914 41.5896 120.54 40.8962C120.182 40.2462 119.562 39.7812 118.838 39.6194C117.987 39.4684 117.137 39.8597 116.19 40.347C115.539 40.6637 115.03 41.2121 114.763 41.8847C114.618 42.1455 114.461 42.4407 114.248 42.7633C114.234 42.7912 114.215 42.8166 114.193 42.8388C114.078 42.9808 113.871 43.0052 113.726 42.8937C113.575 42.7872 113.539 42.5787 113.644 42.427V42.427C113.644 42.427 113.644 42.3377 113.692 42.2897C113.732 42.1654 113.79 42.0475 113.864 41.9396C113.899 41.898 113.944 41.8651 113.994 41.8435L114.124 41.5964C114.463 40.8001 115.077 40.1521 115.853 39.7704C116.663 39.3517 117.781 38.7751 118.927 38.9742C119.87 39.1613 120.683 39.7537 121.15 40.5942C121.571 41.3793 121.806 42.2506 121.837 43.1408C122.131 45.5445 121.147 47.9272 119.243 49.4218C118.129 50.2332 116.785 50.6684 115.407 50.6642V50.6642Z" fill="#231F20"/>
<path id="Path_16" d="M102.261 68.0504C105.005 67.853 107.473 66.3112 108.855 63.9318C111.277 59.8887 110.309 57.3008 110.309 57.3008C110.309 57.3008 107.043 61.4675 101.904 61.8038L102.261 68.0504Z" fill="#231F20"/>
<path id="Shape_12" fill-rule="evenodd" clip-rule="evenodd" d="M101.925 68.0651C101.932 68.2455 102.081 68.3879 102.261 68.3878L102.282 68.4221C105.134 68.239 107.707 66.6454 109.143 64.173C111.627 60.0338 110.673 57.3567 110.632 57.2468C110.588 57.1315 110.486 57.048 110.364 57.0272C110.241 57.0089 110.118 57.0588 110.042 57.1576C110.041 57.1581 110.04 57.1593 110.039 57.1611C109.926 57.2999 106.741 61.2116 101.884 61.5234C101.793 61.5287 101.707 61.57 101.647 61.6383C101.586 61.7065 101.556 61.7961 101.561 61.8872L101.925 68.0651ZM102.584 67.6807L102.261 62.1412C105.272 61.749 108.049 60.3078 110.104 58.0706C110.227 59.0316 110.186 61.036 108.546 63.7817C107.269 65.9348 105.067 67.3746 102.584 67.6807Z" fill="#231F20"/>
<path id="Path_17" d="M100.999 43.043C100.999 43.043 98.426 49.825 99.5925 50.635C100.759 51.445 103.222 50.1545 103.222 50.1545" fill="white"/>
<path id="Path_18" d="M100.608 51.2461C100.179 51.2658 99.7541 51.1506 99.3936 50.9166C98.1036 50.0243 100.08 44.5739 100.67 42.9196C100.737 42.7442 100.933 42.6555 101.109 42.7205C101.195 42.7528 101.264 42.8182 101.302 42.902C101.339 42.9859 101.341 43.0812 101.308 43.1667C100.114 46.3175 99.2495 49.9625 99.7847 50.3469C100.601 50.9098 102.426 50.1822 103.058 49.8527C103.226 49.7663 103.433 49.8302 103.524 49.9968C103.609 50.1656 103.541 50.3711 103.373 50.4567C102.518 50.9147 101.576 51.1839 100.608 51.2461V51.2461Z" fill="#231F20"/>
<ellipse id="Oval_2" cx="105.627" cy="41.533" rx="0.994933" ry="1.40714" transform="rotate(-17.91 105.627 41.533)" fill="#231F20"/>
<ellipse id="Oval_3" cx="96.4417" cy="43.7099" rx="0.994891" ry="1.4072" transform="rotate(-0.78 96.4417 43.7099)" fill="#231F20"/>
<path id="Shape_13" fill-rule="evenodd" clip-rule="evenodd" d="M99.9628 58.8071C100.509 59.1769 101.156 59.3666 101.815 59.3493C102.236 59.3477 102.654 59.2876 103.057 59.1709C104.702 58.6579 106.019 57.4179 106.632 55.8073C107.135 54.5107 107.325 53.1138 107.188 51.7299C107.175 51.6315 107.123 51.5425 107.044 51.4827C106.886 51.366 106.79 51.2974 97.9113 53.24C97.7479 53.2761 97.6329 53.4228 97.6368 53.5901L97.6368 53.5902C97.6438 53.7432 97.8021 57.2287 99.9628 58.8071ZM100.354 58.2442C98.8032 57.1184 98.4327 54.6884 98.3504 53.8578V53.851C101.177 53.2332 105.342 52.3408 106.522 52.128C106.604 53.2965 106.425 54.4686 106.001 55.5602C105.456 56.9775 104.294 58.0675 102.845 58.5187C102.015 58.804 101.101 58.7032 100.354 58.2442Z" fill="#231F20"/>
<path id="Path_19" d="M106.316 55.6954C104.998 58.8805 101.698 59.6424 100.141 58.5373C100.491 57.3223 101.129 56.0592 102.316 55.5993C103.618 55.1548 105.036 55.1889 106.316 55.6954V55.6954Z" fill="#231F20"/>
<path id="Shape_14" fill-rule="evenodd" clip-rule="evenodd" d="M99.9626 58.8052C100.51 59.1718 101.157 59.359 101.815 59.3406C102.235 59.341 102.653 59.2832 103.057 59.169C104.699 58.6557 106.016 57.4191 106.632 55.8123C106.666 55.7263 106.666 55.6306 106.632 55.5446C106.593 55.4585 106.521 55.3917 106.433 55.3593C105.08 54.8346 103.586 54.803 102.213 55.27C101.108 55.6888 100.306 56.7596 99.8391 58.4345C99.7969 58.5718 99.8465 58.7207 99.9626 58.8052ZM102.844 58.51C102.096 58.7591 101.28 58.71 100.566 58.3728C100.999 57.0685 101.616 56.2311 102.46 55.8878C103.56 55.5219 104.749 55.5219 105.85 55.8878C105.266 57.1498 104.173 58.1034 102.844 58.51Z" fill="#231F20"/>
<path id="Shape_15" fill-rule="evenodd" clip-rule="evenodd" d="M88.2096 46.9008C88.4159 47.8463 89.2526 48.5205 90.2199 48.5208C90.3687 48.5128 90.5161 48.4874 90.659 48.4452L98.3094 46.7703C99.3986 46.5146 100.084 45.4355 99.8532 44.3403L99.1671 41.066C99.0505 40.5312 98.726 40.0648 98.2651 39.7699C97.8042 39.4749 97.2449 39.3757 96.7107 39.4941L89.0604 41.1758C87.9503 41.4188 87.247 42.5157 87.4891 43.6264L88.2096 46.9008ZM96.8617 40.1599C96.9598 40.1498 97.0586 40.1498 97.1567 40.1599L97.1842 40.1393C97.8157 40.1484 98.3595 40.5876 98.5015 41.2033L99.1877 44.4776C99.3333 45.203 98.8781 45.9134 98.1585 46.0839L90.5081 47.8C89.783 47.9457 89.073 47.4903 88.9025 46.7703L88.1821 43.448C88.0328 42.7181 88.4925 42.0022 89.2182 41.8348L96.8617 40.1599Z" fill="#231F20"/>
<path id="Shape_16" fill-rule="evenodd" clip-rule="evenodd" d="M102.743 45.2069C103.074 45.421 103.46 45.5354 103.854 45.5364C104.016 45.5357 104.176 45.5196 104.335 45.4883L111.978 43.8134C113.078 43.5548 113.763 42.4582 113.515 41.356L112.829 38.0816C112.712 37.5468 112.388 37.0804 111.927 36.7855C111.466 36.4905 110.907 36.3913 110.373 36.5097L102.729 38.1846C102.193 38.3018 101.727 38.6279 101.432 39.0907C101.139 39.551 101.04 40.109 101.158 40.6421L101.844 43.9164C101.961 44.4486 102.284 44.9126 102.743 45.2069ZM110.496 37.1961C110.593 37.1745 110.692 37.163 110.791 37.1618C111.435 37.1589 111.994 37.6043 112.136 38.2327L112.822 41.507C112.899 41.8581 112.835 42.2253 112.644 42.5298C112.448 42.8301 112.143 43.042 111.793 43.1201L104.142 44.795C103.417 44.9407 102.707 44.4853 102.537 43.7654L101.816 40.491C101.742 40.139 101.808 39.7717 102.002 39.4682C102.194 39.1647 102.501 38.9518 102.853 38.8779L110.496 37.1961Z" fill="#231F20"/>
<path id="Path_20" d="M98.8165 41.5C98.7537 41.5013 98.6918 41.4847 98.6382 41.4519C98.4718 41.3535 98.414 41.1405 98.5078 40.9714C98.8303 40.4154 99.8801 39.5436 101.602 40.2369C101.792 40.309 101.887 40.521 101.815 40.7106C101.743 40.9001 101.531 40.9954 101.342 40.9234C99.8046 40.3056 99.1871 41.246 99.1253 41.3558C99.0526 41.4521 98.937 41.5061 98.8165 41.5Z" fill="#231F20"/>
<path id="Path_21" d="M30.4656 132.879H171.534L194.17 174.237H7.83008L30.4656 132.879V132.879Z" fill="white"/>
<path id="Shape_17" fill-rule="evenodd" clip-rule="evenodd" d="M7.82921 174.58H194.169C194.291 174.581 194.406 174.519 194.471 174.415C194.529 174.308 194.529 174.179 194.471 174.072L171.828 132.714C171.769 132.602 171.653 132.533 171.526 132.535H30.4784C30.3523 132.533 30.2357 132.602 30.1765 132.714L7.53417 174.072C7.47559 174.179 7.47559 174.308 7.53417 174.415C7.59775 174.517 7.70912 174.579 7.82921 174.58ZM193.586 173.893H8.41242L30.6705 133.222H171.327L193.586 173.893Z" fill="#D1D3D4"/>
<path id="Path_22" d="M32.6543 106.198L32.9562 104.894C33.6423 103.59 34.4039 102.711 36.1742 102.711H103.326C104.993 102.714 106.459 103.815 106.928 105.416L117.844 142.936C118.429 144.606 117.615 146.443 115.985 147.131L114.798 147.412L32.6543 106.198Z" fill="white"/>
<path id="Shape_18" fill-rule="evenodd" clip-rule="evenodd" d="M114.647 147.718C114.694 147.739 114.746 147.751 114.798 147.753L114.866 147.78L116.094 147.485C117.889 146.731 118.79 144.712 118.153 142.872L107.23 105.303C106.714 103.559 105.116 102.359 103.298 102.352H36.1464C34.1018 102.352 33.3127 103.47 32.6266 104.713C32.6236 104.743 32.6236 104.772 32.6266 104.802L32.3247 106.106C32.2858 106.261 32.3603 106.421 32.5031 106.491L114.647 147.718ZM114.866 147.046L33.0726 106.01L33.2784 105.015C34.0057 103.738 34.6575 103.052 36.1739 103.052H103.346C104.859 103.059 106.189 104.058 106.619 105.509L117.535 143.03C117.926 144.389 117.583 146.153 115.93 146.799L114.866 147.046Z" fill="#231F20"/>
<path id="Path_23" d="M114.796 147.413H46.2724C45.3164 147.402 44.4802 146.766 44.214 145.848L32.6801 106.199C32.5919 105.89 32.6534 105.559 32.8461 105.302C33.0389 105.046 33.3407 104.895 33.6613 104.895H104.017L115.935 145.896C116.042 146.254 115.972 146.642 115.748 146.941C115.523 147.24 115.17 147.415 114.796 147.413V147.413Z" fill="#231F20"/>
<path id="Shape_19" fill-rule="evenodd" clip-rule="evenodd" d="M46.2735 147.752H114.797C115.278 147.752 115.731 147.525 116.02 147.141C116.308 146.756 116.399 146.258 116.266 145.796L104.341 104.795C104.3 104.651 104.168 104.552 104.018 104.555H33.635C33.2091 104.559 32.8091 104.76 32.5525 105.1C32.2958 105.44 32.2116 105.881 32.3245 106.291L43.8583 145.94C44.176 147.011 45.1572 147.747 46.2735 147.752ZM33.0978 105.507C33.2252 105.338 33.4234 105.238 33.635 105.234H103.744L115.614 145.988C115.689 146.242 115.641 146.517 115.484 146.73C115.32 146.943 115.066 147.068 114.797 147.066H46.2735C45.4596 147.064 44.7432 146.528 44.5102 145.748L32.9832 106.099C32.9281 105.895 32.9704 105.676 33.0978 105.507Z" fill="#231F20"/>
<path id="Path_24" d="M103.305 130.52L99.1403 148.237C98.6865 150.189 96.9451 151.57 94.9412 151.566H51.5982C50.2802 151.565 49.0347 150.962 48.2166 149.928C47.3985 148.894 47.0974 147.543 47.3991 146.26L51.0699 130.52H47.4815L43.9685 145.45C43.4313 147.779 43.9845 150.225 45.4712 152.096C46.958 153.967 49.216 155.058 51.6051 155.06H94.9755C98.593 155.057 101.737 152.573 102.578 149.053L106.928 130.52L103.305 130.52Z" fill="white"/>
<path id="Shape_20" fill-rule="evenodd" clip-rule="evenodd" d="M51.5973 155.449H94.9402C98.7511 155.474 102.071 152.854 102.934 149.14L107.291 130.606C107.311 130.505 107.285 130.399 107.22 130.318C107.155 130.237 107.058 130.19 106.954 130.188H103.332C103.174 130.187 103.038 130.295 103.002 130.448L98.8375 148.165C98.4189 149.965 96.8144 151.237 94.9677 151.234H51.5973C50.3836 151.232 49.2369 150.676 48.4832 149.725C47.7296 148.773 47.4513 147.529 47.7275 146.346L51.4258 130.606C51.4506 130.506 51.4279 130.399 51.364 130.318C51.2987 130.237 51.2006 130.189 51.0964 130.188H47.4737C47.3147 130.186 47.1756 130.294 47.1375 130.448L43.6313 145.385C43.0593 147.82 43.6307 150.383 45.1827 152.344C46.7348 154.304 49.0974 155.448 51.5973 155.449ZM44.2832 145.543L47.7138 130.874H50.6573L47.062 146.188C46.7348 147.575 47.0595 149.035 47.9434 150.152C48.8273 151.269 50.1733 151.921 51.5973 151.92H94.954C97.1206 151.93 99.0046 150.436 99.4893 148.323L103.606 130.874H106.522L102.268 148.975C101.481 152.371 98.4522 154.772 94.9677 154.762H51.5973C49.3034 154.769 47.1327 153.724 45.7065 151.926C44.2804 150.129 43.7559 147.777 44.2832 145.543Z" fill="#231F20"/>
<path id="Path_25" d="M159.198 94.3906C159.198 94.3906 165.332 121.642 160.309 128.603C155.287 135.563 120.212 134.465 120.212 134.465C120.212 134.465 114.524 141.295 109.583 140.842C104.643 140.389 107.525 131.04 113.337 127.148L112.534 123.901L143.458 118.938L139.341 99.3536" fill="white"/>
<path id="Path_26" d="M110.036 141.207C109.867 141.207 109.696 141.207 109.522 141.207C108.207 141.141 107.102 140.196 106.832 138.907C106.057 135.866 108.541 130.066 112.911 127.018L112.17 124.004C112.146 123.913 112.161 123.816 112.211 123.737C112.264 123.655 112.349 123.6 112.445 123.586L143.012 118.678L138.964 99.4573C138.945 99.3681 138.963 99.2753 139.014 99.1993C139.064 99.1233 139.142 99.0705 139.231 99.0523C139.32 99.0319 139.412 99.0482 139.489 99.0973C139.565 99.1464 139.618 99.2242 139.636 99.3131L143.753 118.897C143.773 118.99 143.753 119.088 143.698 119.165C143.646 119.242 143.564 119.295 143.472 119.309L112.918 124.217L113.604 127.1C113.64 127.238 113.585 127.384 113.467 127.464C109.268 130.278 106.75 135.942 107.47 138.756C107.661 139.755 108.513 140.491 109.529 140.534C114.229 140.973 119.821 134.356 119.862 134.28C119.929 134.199 120.031 134.154 120.136 134.157C120.486 134.157 155.129 135.166 159.973 128.432C164.817 121.698 158.875 94.7963 158.813 94.5012C158.786 94.3785 158.827 94.2508 158.92 94.1662C159.012 94.0815 159.143 94.0527 159.263 94.0907C159.382 94.1286 159.473 94.2275 159.5 94.3501C159.753 95.469 165.606 121.808 160.549 128.837C155.609 135.701 123.231 134.933 120.301 134.843C119.526 135.749 114.633 141.207 110.036 141.207Z" fill="#231F20"/>
<path id="Path_27" d="M122.399 80.8939C122.346 80.8931 122.294 80.8789 122.248 80.8527C122.163 80.8141 122.098 80.7425 122.066 80.6544C122.035 80.5663 122.042 80.4694 122.083 80.3859C127.065 70.0893 139.854 63.1631 139.985 63.0945C140.066 63.0489 140.163 63.0384 140.252 63.0657C140.341 63.0929 140.416 63.1553 140.458 63.2386C140.504 63.3212 140.515 63.4188 140.487 63.5093C140.46 63.5998 140.398 63.6755 140.314 63.7191C140.19 63.7878 127.6 70.5836 122.722 80.6948C122.66 80.8164 122.535 80.8932 122.399 80.8939Z" fill="#231F20"/>
<path id="Path_28" d="M101.252 80.4057C101.202 80.4161 101.151 80.4161 101.101 80.4057C89.1489 74.9142 87.7012 62.8466 87.6874 62.7299C87.6674 62.5349 87.8083 62.3602 88.0031 62.3386C88.096 62.327 88.1897 62.3532 88.2632 62.4112C88.3367 62.4693 88.3839 62.5544 88.3942 62.6475C88.3942 62.7642 89.8213 74.4406 101.431 79.6987C101.607 79.7798 101.687 79.9873 101.609 80.1655C101.555 80.3149 101.411 80.4121 101.252 80.4057V80.4057Z" fill="#231F20"/>
<path id="Path_29" d="M46.7939 95.9674C46.6408 95.9237 46.5352 95.7836 46.5352 95.6242C46.5352 95.4648 46.6408 95.3248 46.7939 95.281C51.9674 95.1231 54.4786 92.1989 54.5061 92.1714C54.565 92.0993 54.6503 92.0536 54.7431 92.0446C54.8358 92.0356 54.9283 92.0639 55.0001 92.1234C55.1511 92.2488 55.1726 92.4727 55.0481 92.6245C54.9383 92.7549 52.3036 95.8233 46.8145 95.988L46.7939 95.9674Z" fill="#231F20"/>
<path id="Path_30" d="M139.299 99.702C139.136 99.7034 138.994 99.5925 138.956 99.4343C138.956 99.3107 135.724 86.6596 135.278 79.0745C135.272 78.9816 135.304 78.8903 135.366 78.8207C135.428 78.7512 135.514 78.7091 135.607 78.7038C135.802 78.692 135.97 78.8387 135.985 79.0333C136.431 86.5498 139.614 99.1323 139.642 99.2627C139.69 99.4521 139.577 99.6448 139.388 99.6951L139.299 99.702Z" fill="#231F20"/>
<path id="Path_31" d="M83.9965 101.962V101.962C83.9023 101.957 83.8143 101.914 83.7523 101.843C83.6903 101.772 83.6596 101.679 83.6671 101.585L85.3687 74.9166C85.374 74.8224 85.417 74.7343 85.488 74.6723C85.5591 74.6102 85.6521 74.5795 85.7461 74.5871C85.8397 74.5905 85.9277 74.632 85.9899 74.702C86.0521 74.772 86.083 74.8644 86.0755 74.9577L84.3464 101.626C84.339 101.814 84.1845 101.962 83.9965 101.962Z" fill="#231F20"/>
<path id="Path_32" d="M144.747 87.0465C144.618 87.0481 144.498 86.9764 144.438 86.8612L141.118 80.6832C141.081 80.5931 141.081 80.4919 141.118 80.4018C141.15 80.3096 141.216 80.2333 141.303 80.189L151.595 75.3221C151.679 75.2799 151.777 75.2736 151.866 75.3046C151.955 75.3356 152.028 75.4013 152.068 75.4869C152.152 75.6632 152.079 75.8743 151.904 75.9605L141.927 80.6695L144.932 86.2434L155.039 83.1544C155.162 83.1176 155.295 83.149 155.388 83.2368C155.481 83.3246 155.52 83.4555 155.491 83.5801C155.461 83.7046 155.368 83.8041 155.245 83.8408L144.85 87.0534L144.747 87.0465Z" fill="#231F20"/>
<ellipse id="Oval_4" cx="153.659" cy="160.276" rx="16.9406" ry="5.10025" fill="white"/>
<path id="Shape_21" fill-rule="evenodd" clip-rule="evenodd" d="M136.377 160.276C136.377 163.33 143.972 165.719 153.661 165.719C163.349 165.719 170.944 163.33 170.944 160.276C170.944 157.221 163.349 154.832 153.661 154.832C143.972 154.832 136.377 157.221 136.377 160.276ZM137.063 160.276C137.063 157.976 143.732 155.518 153.661 155.518C163.589 155.518 170.258 157.976 170.258 160.276C170.258 162.575 163.589 165.033 153.661 165.033C143.732 165.033 137.063 162.575 137.063 160.276Z" fill="#D1D3D4"/>
<path id="Path_33" d="M140.891 145.709L140.486 145.785C139.262 145.967 138.148 146.595 137.357 147.549C136.453 148.93 136.413 150.706 137.254 152.127C139.052 155.367 143.43 156.246 146.805 156.582C147.283 156.66 147.772 156.622 148.232 156.472C148.698 156.313 149.013 155.88 149.021 155.388C148.962 154.987 148.704 154.643 148.335 154.475C147.982 154.311 147.604 154.204 147.217 154.159C145.117 153.816 142.908 153.562 140.987 152.594C139.868 152.024 138.304 150.727 139.121 149.327C139.406 148.883 139.817 148.534 140.301 148.324C142.229 147.405 144.061 148.105 145.961 148.668C146.1 148.718 146.247 148.739 146.394 148.729C146.77 148.626 147.009 148.257 146.949 147.871C146.888 147.041 146.057 146.498 145.275 146.19C143.878 145.659 142.369 145.493 140.891 145.709V145.709Z" fill="white"/>
<path id="Shape_22" fill-rule="evenodd" clip-rule="evenodd" d="M146.778 156.926C146.976 156.948 147.175 156.959 147.375 156.96C147.709 156.965 148.041 156.909 148.356 156.795C148.945 156.658 149.374 156.151 149.414 155.548C149.453 154.944 149.093 154.386 148.527 154.173C148.14 153.988 147.725 153.87 147.299 153.823L146.524 153.699C144.676 153.504 142.869 153.027 141.165 152.285C140.347 151.924 139.689 151.277 139.313 150.466C139.215 150.142 139.262 149.791 139.443 149.505C139.693 149.117 140.054 148.813 140.479 148.633C142.119 147.851 143.711 148.331 145.399 148.846L145.893 148.997C146.078 149.06 146.274 149.086 146.469 149.073C147.024 148.941 147.391 148.411 147.32 147.844C147.231 146.725 146.112 146.128 145.426 145.874C143.967 145.315 142.388 145.142 140.843 145.373L140.417 145.448C139.111 145.649 137.924 146.323 137.083 147.343C136.095 148.831 136.044 150.754 136.952 152.292C138.414 154.928 141.625 156.438 146.778 156.926ZM140.554 146.121L140.946 146.052V146.066C142.373 145.852 143.831 146.011 145.179 146.526C145.598 146.677 146.579 147.13 146.634 147.899C146.647 148.105 146.544 148.386 146.38 148.386C146.282 148.388 146.184 148.372 146.092 148.338L145.598 148.187C143.862 147.659 142.064 147.116 140.184 148.016C139.635 148.251 139.171 148.649 138.853 149.155C138.574 149.607 138.502 150.157 138.654 150.665C139.082 151.659 139.868 152.456 140.856 152.896C142.621 153.675 144.496 154.175 146.414 154.379L147.189 154.502C147.538 154.539 147.879 154.631 148.198 154.777C148.453 154.894 148.633 155.131 148.678 155.409C148.655 155.752 148.427 156.047 148.102 156.157C147.693 156.281 147.261 156.309 146.839 156.239C141.934 155.779 138.894 154.379 137.556 151.963C136.776 150.658 136.806 149.024 137.632 147.748C138.376 146.869 139.415 146.291 140.554 146.121Z" fill="#231F20"/>
<path id="Path_34" d="M142.477 142.234C142.477 142.234 145.646 158.064 145.907 159.018C146.168 159.972 153.661 163.892 159.63 160.041L164.851 143.861L142.477 142.234Z" fill="white"/>
<path id="Shape_23" fill-rule="evenodd" clip-rule="evenodd" d="M148.549 161.052C150.221 161.7 151.997 162.04 153.791 162.054C155.918 162.091 158.01 161.504 159.808 160.366C159.875 160.325 159.926 160.262 159.952 160.187L165.174 144.008C165.208 143.908 165.194 143.797 165.134 143.709C165.075 143.621 164.978 143.567 164.872 143.562L142.497 141.9C142.39 141.889 142.284 141.929 142.213 142.01C142.142 142.091 142.115 142.201 142.14 142.305C142.27 142.958 145.317 158.155 145.571 159.11C145.735 159.72 147.231 160.544 148.549 161.052ZM146.236 158.931C146.01 158.087 143.416 145.189 142.902 142.614L164.412 144.179L159.362 159.823C155.753 162.075 151.815 161.368 149.756 160.743C147.567 160.077 146.332 159.158 146.236 158.931Z" fill="#231F20"/>
<ellipse id="Oval_5" cx="153.695" cy="142.698" rx="4.86" ry="11.2183" transform="rotate(-87.65 153.695 142.698)" fill="#231F20"/>
<path id="Shape_24" fill-rule="evenodd" clip-rule="evenodd" d="M153.475 147.921H154.566C156.956 147.973 159.336 147.594 161.592 146.802C163.863 145.951 165.18 144.647 165.235 143.205C165.359 140.281 160.377 137.803 153.9 137.535C147.423 137.267 142.257 139.327 142.133 142.251C142.01 145.175 146.991 147.66 153.475 147.921ZM142.812 142.285C142.908 139.951 147.403 138.167 152.844 138.167L153.9 138.187C159.78 138.427 164.686 140.7 164.583 143.15C164.535 144.283 163.369 145.374 161.379 146.136C158.852 147.022 156.175 147.397 153.502 147.241C147.615 147.001 142.716 144.729 142.812 142.285Z" fill="#231F20"/>
<path id="Shape_25" fill-rule="evenodd" clip-rule="evenodd" d="M90.5423 98.2563H126.845C127.027 98.2566 127.178 98.1151 127.189 97.9337V87.1909C127.189 87.0013 127.035 86.8477 126.845 86.8477H90.5423C90.3543 86.8513 90.2029 87.0029 90.1992 87.1909V97.9131C90.1992 98.1026 90.3528 98.2563 90.5423 98.2563ZM126.502 97.5699H90.8854V87.5341H126.502V97.5699Z" fill="white"/>
<rect id="Rectangle" x="7.83008" y="174.238" width="186.333" height="7.18703" fill="white"/>
<path id="Shape_26" fill-rule="evenodd" clip-rule="evenodd" d="M7.82939 181.768H194.169C194.358 181.768 194.512 181.614 194.512 181.425V174.238C194.508 174.05 194.357 173.898 194.169 173.895H7.82939C7.64146 173.898 7.48998 174.05 7.48633 174.238V181.425C7.48633 181.614 7.63992 181.768 7.82939 181.768ZM193.826 181.082H8.17246V174.581H193.826V181.082Z" fill="#D1D3D4"/>
<path id="Path_35" d="M164.844 107.119V107.119C164.656 107.111 164.508 106.957 164.508 106.769C164.508 105.979 165.009 87.3699 167.06 80.9243C169.112 74.4786 172.961 71.7946 173.119 71.6916C173.276 71.5855 173.49 71.627 173.596 71.7843C173.702 71.9416 173.66 72.1552 173.503 72.2614C173.462 72.2614 169.709 74.863 167.712 81.1302C165.715 87.3974 165.201 106.59 165.194 106.782C165.192 106.874 165.154 106.96 165.089 107.023C165.023 107.086 164.935 107.121 164.844 107.119V107.119Z" fill="white"/>
</g>
</g>
</g>
<defs>
<linearGradient id="paint0_linear_7497_114" x1="0" y1="202" x2="202" y2="202" gradientUnits="userSpaceOnUse">
<stop stop-color="#5D0202" stop-opacity="0.01"/>
<stop offset="1" stop-color="#5D0202" stop-opacity="0.497569"/>
</linearGradient>
</defs>
</svg>
